<svg width="1140" height="377" viewBox="0 0 1140 377" fill="none" xmlns="http://www.w3.org/2000/svg">
<path d="M117 108.325V230.825M117 230.825V231.479M117 230.825H118.294M117 230.825H2M117 231.479V374.5M117 231.479L118.294 230.825M117 231.479L2.99999 289.166M118.294 230.825L570.5 2L1022.71 230.825M118.294 230.825H1022.71M1138 289.166L1023 230.973M1023 230.973L1022.71 230.825M1023 230.973V230.825M1023 230.973V374.5M1022.71 230.825H1023M1138 230.825H1023M1023 230.825V108.325M172 231.734L118.707 285.027C118.077 285.657 118.523 286.734 119.414 286.734H1023M117 258.734L144 231.734M145 286.734L200 231.734M173 286.734L228 231.734M201 286.734L256 231.734M229 286.734L284 231.734M257 286.734L312 231.734M285 286.734L340 231.734M313 286.734L368 231.734M341 286.734L396 231.734M369 286.734L424 231.734M397 286.734L452 231.734M425 286.734L480 231.734M453 286.734L508 231.734M481 286.734L536 231.734M509 286.734L564 231.734M537 286.734L592 231.734M565 286.734L620 231.734M593 286.734L648 231.734M621 286.734L676 231.734M649 286.734L704 231.734M677 286.734L732 231.734M705 286.734L760 231.734M733 286.734L788 231.734M761 286.734L816 231.734M789 286.734L844 231.734M817 286.734L872 231.734M845 286.734L900 231.734M873 286.734L928 231.734M901 286.734L956 231.734M929 286.734L984 231.734M957 286.734L1012 231.734M985 286.734L1023 248.734M1013 286.734L1023 276.734" stroke="url(#paint0_linear_90_111)" stroke-width="4" stroke-linecap="round" stroke-linejoin="round"/>
<defs>
<linearGradient id="paint0_linear_90_111" x1="570" y1="2" x2="570" y2="474" gradientUnits="userSpaceOnUse">
<stop offset="0.0873693" stop-color="#0A0A0A"/>
<stop offset="0.793815" stop-color="#525252"/>
<stop offset="1" stop-color="#0A0A0A"/>
</linearGradient>
</defs>
</svg>
