<svg width="24" height="24" viewBox="0 0 24 24" fill="none" xmlns="http://www.w3.org/2000/svg">
<path d="M5.68148 2.51257C5.94943 2.04847 6.44462 1.76257 6.98052 1.76257L17.3166 1.76257C17.8525 1.76257 18.3477 2.04847 18.6156 2.51257L23.7836 11.4639C24.0516 11.928 24.0516 12.4997 23.7836 12.9639L19.8055 19.8542L18.5064 17.6042L21.6186 12.2139L16.8836 4.01257L7.41353 4.01257L4.31749 9.37509H1.71941L5.68148 2.51257Z" fill="white"/>
<path d="M16.9058 20.3765L18.0997 22.4444C17.8679 22.5864 17.5978 22.6651 17.3166 22.6651H6.98052C6.44463 22.6651 5.94943 22.3792 5.68148 21.9151L0.513462 12.9639C0.374959 12.724 0.308047 12.4553 0.31273 12.1876L11.5366 12.1875C11.9394 12.1875 12.3114 12.4028 12.5121 12.7521L16.8989 20.3885L16.9058 20.3765Z" fill="white"/>
</svg>
