<svg width="64" height="64" viewBox="0 0 64 64" fill="none" xmlns="http://www.w3.org/2000/svg">
<path d="M8.80234 28.5025C8.40995 27.3739 7.81249 26.1127 7.62267 24.9463C7.44391 23.8472 7.7205 23.2714 8.37812 22.3922C9.22312 22.1317 9.87361 21.9838 10.6982 22.3764C12.0205 23.0063 12.5988 25.7604 13.0304 27.024C14.3089 26.5479 15.7308 25.8923 17.0787 25.6992C18.3005 25.524 19.3271 25.5353 20.342 26.2592C20.5819 26.7703 20.6461 26.8742 20.4432 27.4459C19.7174 29.4945 16.3437 30.3598 14.4746 31.0125C14.9726 32.5779 16.0939 34.3577 16.0236 36.017C15.9823 36.9885 15.4445 37.4315 14.7451 38.022C14.2991 38.0312 13.8095 38.0606 13.3852 37.9109C11.791 37.3496 11.0985 33.9286 10.5534 32.4761C8.90481 33.0784 5.34289 34.9332 3.67086 34.0776C3.2275 33.8511 2.91772 33.4525 2.74351 32.9996C2.52496 32.4304 2.48705 31.8483 2.81295 31.2963C3.7578 29.6973 7.10869 29.0378 8.80234 28.5025Z" fill="white"/>
<path d="M27.8974 5.28693C27.6791 4.65904 27.3467 3.9573 27.2411 3.30838C27.1416 2.69684 27.2955 2.37647 27.6614 1.88732C28.1315 1.74239 28.4934 1.66008 28.9522 1.87853C29.6879 2.22898 30.0097 3.76131 30.2498 4.46436C30.9612 4.19945 31.7523 3.83469 32.5022 3.72724C33.182 3.62977 33.7532 3.63609 34.3178 4.03881C34.4513 4.32317 34.487 4.38099 34.3741 4.69906C33.9703 5.8389 32.0933 6.32029 31.0533 6.68344C31.3304 7.55444 31.9543 8.54464 31.9152 9.46788C31.8922 10.0084 31.5929 10.2549 31.2038 10.5834C30.9557 10.5885 30.6833 10.6048 30.4472 10.5216C29.5602 10.2093 29.175 8.30592 28.8717 7.49778C27.9544 7.8329 25.9727 8.86483 25.0424 8.38881C24.7957 8.26278 24.6234 8.04102 24.5264 7.78904C24.4048 7.47236 24.3837 7.14849 24.5651 6.84136C25.0908 5.95172 26.9551 5.58477 27.8974 5.28693Z" fill="white"/>
<path d="M44.382 47.2871C43.8746 45.8279 43.1021 44.197 42.8566 42.6888C42.6255 41.2675 42.9831 40.523 43.8335 39.3862C44.9261 39.0493 45.7672 38.858 46.8335 39.3657C48.5433 40.1802 49.291 43.7415 49.8491 45.3754C51.5024 44.7598 53.341 43.912 55.0839 43.6623C56.6637 43.4358 57.9912 43.4504 59.3035 44.3864C59.6138 45.0473 59.6968 45.1817 59.4344 45.9209C58.4959 48.57 54.1335 49.6888 51.7166 50.5327C52.3605 52.557 53.8105 54.8583 53.7196 57.004C53.6662 58.2601 52.9707 58.833 52.0664 59.5966C51.4897 59.6085 50.8566 59.6464 50.3079 59.4529C48.2465 58.7271 47.3511 54.3035 46.6462 52.4253C44.5145 53.2042 39.9087 55.6025 37.7467 54.4962C37.1734 54.2033 36.7728 53.6879 36.5475 53.1023C36.2649 52.3663 36.2159 51.6136 36.6373 50.8998C37.8591 48.8322 42.192 47.9794 44.382 47.2871Z" fill="white"/>
</svg>
