<svg width="90" height="86" viewBox="0 0 90 86" fill="none" xmlns="http://www.w3.org/2000/svg">
<path d="M24.661 79.0593C24.4106 78.9775 24.1761 78.8847 23.9451 78.756C23.4207 78.4637 23.07 78.2002 22.9075 77.5863C22.5553 76.2571 22.7101 74.5641 22.6446 73.1733C22.4586 69.2164 21.381 65.0567 19.497 61.5669C19.1845 60.9957 18.8474 60.4392 18.4859 59.8977C18.1244 59.3561 17.7398 58.8314 17.3321 58.3237C16.9244 57.8161 16.4952 57.3273 16.0445 56.8575C15.5938 56.3878 15.1233 55.9389 14.633 55.5108C12.7587 53.8406 7.97443 51.3849 6.92905 50.1569C6.66084 49.8419 6.46074 49.4739 6.39819 49.0587C6.32102 48.5466 6.54884 47.9675 6.85343 47.5653C7.83231 46.2726 11.9649 46.9846 13.4671 46.917C14.7726 46.8515 16.064 46.6794 17.3414 46.4009C25.9881 44.523 29.4193 39.8424 33.9665 32.8359C34.7138 31.6838 35.1209 31.2362 36.4916 30.9396C37.209 31.1954 37.8279 31.4357 38.1991 32.1641C39.0324 33.7989 38.4614 37.4185 38.6759 39.3423C38.7996 40.5226 39.0088 41.6875 39.3036 42.837C39.5981 43.9863 39.975 45.1079 40.4342 46.2018C42.3885 50.7858 45.7035 54.3159 49.957 56.8776C51.4096 57.7524 53.6371 58.7573 54.5878 60.2061C54.8815 60.6537 54.8837 60.7211 54.7871 61.2177C52.971 63.2895 47.8395 62.7247 45.2407 63.1379C42.6417 63.5514 40.1342 64.2332 37.8433 65.5529C34.099 67.7102 31.1652 70.6663 28.8482 74.3069C28.0369 75.5815 27.2586 77.1591 26.2238 78.2433C25.7909 78.6968 25.2443 78.8734 24.661 79.0593ZM34.2916 40.3169C29.7196 46.3294 24.3281 49.8018 16.7723 50.8222L15.8461 50.9431C22.061 55.7866 25.4975 61.9781 26.5657 69.7982C32.6072 63.3679 35.9752 60.5563 44.677 58.648C40.4004 54.7229 36.9486 50.8778 35.3942 45.0984C35.0537 43.832 34.8615 41.3348 34.2916 40.3169Z" fill="white"/>
<path d="M71.1044 27.7811C70.9766 27.7393 70.857 27.692 70.7392 27.6263C70.4717 27.4772 70.2928 27.3428 70.2099 27.0296C70.0302 26.3516 70.1092 25.488 70.0758 24.7786C69.9809 22.7602 69.4313 20.6383 68.4702 18.8582C68.3108 18.5668 68.1389 18.2829 67.9545 18.0067C67.77 17.7304 67.5739 17.4628 67.3659 17.2038C67.1579 16.9448 66.939 16.6955 66.7091 16.4559C66.4792 16.2163 66.2392 15.9873 65.9891 15.7689C65.033 14.9169 62.5925 13.6643 62.0593 13.0379C61.9225 12.8772 61.8204 12.6895 61.7885 12.4777C61.7491 12.2165 61.8654 11.9211 62.0207 11.7159C62.52 11.0565 64.6281 11.4197 65.3944 11.3853C66.0603 11.3518 66.7191 11.264 67.3706 11.122C71.7813 10.1641 73.5316 7.7765 75.8511 4.20244C76.2323 3.61479 76.44 3.38646 77.1392 3.23515C77.5051 3.36562 77.8208 3.48822 78.0102 3.85978C78.4352 4.69368 78.1439 6.54002 78.2534 7.52139C78.3165 8.12346 78.4232 8.71767 78.5736 9.304C78.7238 9.89029 78.916 10.4624 79.1503 11.0204C80.1472 13.3587 81.8382 15.1594 84.0079 16.4661C84.7489 16.9124 85.8851 17.425 86.3701 18.164C86.5198 18.3923 86.521 18.4267 86.4717 18.68C85.5453 19.7368 82.9277 19.4488 81.6021 19.6595C80.2764 19.8704 78.9973 20.2182 77.8286 20.8914C75.9187 21.9918 74.4222 23.4998 73.2403 25.3568C72.8264 26.007 72.4294 26.8117 71.9015 27.3648C71.6807 27.5961 71.4019 27.6862 71.1044 27.7811ZM76.017 8.0185C73.6848 11.0855 70.9346 12.8568 67.0803 13.3773L66.6079 13.439C69.7781 15.9096 71.5311 19.0679 72.076 23.0569C75.1577 19.7768 76.8757 18.3426 81.3145 17.3692C79.1331 15.367 77.3723 13.4056 76.5794 10.4575C76.4057 9.81158 76.3077 8.53776 76.017 8.0185Z" fill="white"/>
</svg>
