<svg width="403" height="187" viewBox="0 0 403 187" fill="none" xmlns="http://www.w3.org/2000/svg">
<path d="M190.767 91.6299C188.022 92.4708 185.144 93.3492 182.338 93.9474C181.578 94.1095 180.161 94.3242 179.504 93.7506C179.358 93.6228 179.242 93.4334 179.23 93.2375C179.188 92.5607 179.583 91.8501 179.989 91.3357C181.582 90.8999 189.743 88.3345 190.709 88.9743C191.119 89.2457 191.459 89.7719 191.495 90.2694C191.538 90.8555 191.152 91.2562 190.767 91.6299Z" fill="#9C94B9"/>
<path d="M206.794 87.2911C204.594 88.0425 197.065 90.4312 195.078 89.955C194.615 89.8439 194.423 89.6645 194.197 89.2586C194.162 88.5329 194.625 87.8119 195.09 87.2898C198.089 86.3233 201.441 85.3633 204.522 84.7221C205.304 84.5592 206.361 84.4287 207.052 84.9327C207.338 85.1418 207.475 85.4424 207.489 85.8004C207.513 86.4318 207.187 86.8394 206.794 87.2911Z" fill="#9C94B9"/>
<path d="M222.508 83.1261C220.554 83.7459 218.539 84.1998 216.561 84.7413C215.342 85.075 214.116 85.5243 212.873 85.7469C212.256 85.8573 211.602 85.8762 211.097 85.4382C210.799 85.1798 210.627 84.7987 210.605 84.407C210.57 83.7975 210.848 83.4212 211.239 82.996C213.665 82.1843 218.049 80.8847 220.489 80.4602C221.217 80.3337 222.146 80.2737 222.762 80.761C223.014 80.9606 223.154 81.2168 223.172 81.5458C223.211 82.2236 222.95 82.6499 222.508 83.1261Z" fill="#9C94B9"/>
<path d="M170.261 62.2494C170.272 61.3868 170.178 60.3837 170.333 59.5452C170.479 58.7551 170.803 58.4322 171.453 57.9971C172.079 58.028 172.548 58.0875 173.002 58.5568C173.731 59.3095 173.452 61.3214 173.434 62.2854C174.401 62.2765 175.506 62.1811 176.451 62.3814C177.307 62.5629 177.988 62.823 178.49 63.5639C178.526 63.9699 178.544 64.0562 178.271 64.3944C177.293 65.6067 174.837 65.3646 173.434 65.3481C173.388 66.5333 173.706 68.0172 173.259 69.1264C172.997 69.7757 172.531 69.9442 171.923 70.1731C171.624 70.0697 171.291 69.9693 171.044 69.7633C170.117 68.9903 170.482 66.4976 170.469 65.3775C169.225 65.3811 166.405 65.7644 165.498 64.7724C165.257 64.5096 165.147 64.1629 165.14 63.8126C165.132 63.3724 165.247 62.968 165.597 62.6733C166.612 61.8202 169.004 62.1964 170.261 62.2494Z" fill="#9C94B9"/>
<path d="M228.839 115.683C228.839 114.329 228.539 112.686 228.962 111.385C229.143 110.828 229.473 110.649 229.958 110.401C230.461 110.417 230.978 110.428 231.379 110.783C232.41 111.696 232.01 114.404 232.007 115.668C233.256 115.635 235.463 115.328 236.522 116.031C236.854 116.252 237.05 116.567 237.094 116.963C237.141 117.393 237.066 117.831 236.763 118.161C235.866 119.135 233.256 118.86 232.013 118.901C232.004 120.08 232.252 121.387 231.985 122.542C231.823 123.242 231.533 123.497 230.93 123.857C230.362 123.836 229.827 123.787 229.395 123.375C228.447 122.471 228.824 120.082 228.834 118.872C227.667 118.828 225.37 119.258 224.433 118.47C224.06 118.157 223.923 117.805 223.917 117.331C223.912 116.886 224.056 116.445 224.398 116.144C225.327 115.328 227.681 115.666 228.839 115.683Z" fill="#9C94B9"/>
<path d="M284.653 117.034C284.286 117.041 283.919 117.045 283.552 117.043C283.185 117.042 282.819 117.037 282.452 117.027C282.085 117.017 281.718 117.003 281.352 116.984C280.985 116.965 280.619 116.942 280.253 116.915C279.887 116.888 279.522 116.856 279.156 116.82C278.791 116.784 278.427 116.744 278.062 116.699C277.698 116.654 277.335 116.605 276.972 116.552C276.609 116.499 276.246 116.441 275.885 116.379C275.523 116.317 275.162 116.251 274.802 116.18C274.442 116.11 274.083 116.035 273.724 115.956C273.366 115.877 273.008 115.794 272.652 115.707C272.296 115.619 271.94 115.527 271.586 115.432C271.232 115.336 270.879 115.236 270.527 115.131C270.175 115.027 269.825 114.919 269.476 114.806C269.127 114.693 268.779 114.577 268.432 114.456C268.086 114.335 267.741 114.21 267.397 114.081C267.054 113.952 266.712 113.819 266.371 113.682C266.031 113.544 265.693 113.403 265.356 113.258C265.019 113.113 264.683 112.963 264.35 112.81C264.017 112.657 263.685 112.5 263.355 112.339C263.026 112.178 262.698 112.013 262.372 111.844C262.046 111.675 261.723 111.503 261.401 111.326C261.079 111.15 260.76 110.969 260.442 110.785C260.125 110.601 259.809 110.413 259.497 110.222C259.184 110.03 258.873 109.835 258.565 109.636C258.256 109.437 257.95 109.235 257.647 109.028C257.343 108.822 257.042 108.612 256.744 108.399C256.445 108.185 256.149 107.969 255.856 107.748C255.563 107.528 255.272 107.304 254.984 107.077C254.696 106.849 254.411 106.619 254.128 106.385C253.845 106.151 253.566 105.913 253.289 105.672C253.012 105.432 252.738 105.188 252.466 104.941C252.184 104.678 251.906 104.413 251.63 104.144C251.354 103.875 251.082 103.603 250.813 103.327C250.544 103.051 250.279 102.772 250.016 102.49C249.754 102.208 249.496 101.923 249.24 101.634C248.985 101.346 248.734 101.054 248.486 100.76C248.238 100.465 247.993 100.167 247.752 99.867C247.512 99.5665 247.275 99.263 247.041 98.9566C246.808 98.6503 246.578 98.3411 246.352 98.0292C246.127 97.7171 245.905 97.4024 245.687 97.085C245.468 96.7676 245.254 96.4477 245.044 96.1252C244.833 95.8025 244.627 95.4774 244.425 95.1498C244.222 94.8221 244.024 94.4921 243.83 94.1596C243.635 93.8271 243.445 93.4923 243.259 93.1553C243.073 92.818 242.891 92.4787 242.713 92.1371C242.535 91.7956 242.361 91.4519 242.192 91.106C242.022 90.7601 241.857 90.4123 241.696 90.0625C241.535 89.7127 241.378 89.3609 241.226 89.0072C241.073 88.6535 240.925 88.298 240.781 87.9407C240.638 87.5835 240.499 87.2246 240.363 86.864C240.228 86.5032 240.098 86.1409 239.972 85.7772C239.846 85.4132 239.724 85.0478 239.607 84.6809C239.49 84.3141 239.377 83.9458 239.269 83.5762C239.16 83.2067 239.057 82.8359 238.958 82.4637C238.858 82.0915 238.764 81.7183 238.674 81.3439C238.584 80.9694 238.498 80.5939 238.417 80.2174C238.336 79.8409 238.26 79.4634 238.188 79.0849C238.117 78.7066 238.05 78.3275 237.987 77.9474C237.925 77.5674 237.867 77.1867 237.814 76.8052C237.761 76.4238 237.712 76.0418 237.669 75.6592C237.625 75.2766 237.586 74.8935 237.551 74.51C237.517 74.1264 237.487 73.7424 237.462 73.3581C237.437 72.9737 237.417 72.5891 237.401 72.2044C237.387 71.8257 237.379 71.447 237.375 71.0681C237.371 70.689 237.371 70.3101 237.376 69.9312C237.382 69.5523 237.391 69.1736 237.406 68.7949C237.42 68.4162 237.439 68.0379 237.462 67.6598C237.486 67.2815 237.514 66.9036 237.547 66.5262C237.579 66.1487 237.617 65.7716 237.659 65.3949C237.7 65.0184 237.747 64.6424 237.798 64.2668C237.849 63.8913 237.905 63.5166 237.965 63.1426C238.025 62.7685 238.09 62.3951 238.159 62.0225C238.228 61.6499 238.302 61.2782 238.38 60.9074C238.458 60.5366 238.541 60.1669 238.628 59.7982C238.716 59.4296 238.807 59.0619 238.903 58.6952C239 58.3288 239.1 57.9635 239.205 57.5996C239.31 57.2355 239.42 56.8727 239.534 56.5113C239.648 56.1499 239.766 55.7899 239.889 55.4313C240.011 55.0729 240.138 54.7159 240.269 54.3604C240.401 54.0049 240.537 53.6511 240.677 53.2989C240.816 52.9468 240.961 52.5964 241.109 52.2478C241.258 51.8992 241.41 51.5524 241.567 51.2075C241.724 50.8627 241.885 50.5197 242.05 50.1788C242.215 49.8376 242.385 49.4986 242.558 49.1618C242.732 48.825 242.909 48.4902 243.091 48.1575C243.272 47.825 243.458 47.4947 243.648 47.1667C243.837 46.8385 244.031 46.5128 244.228 46.1895C244.426 45.866 244.627 45.5451 244.833 45.2268C245.038 44.9084 245.247 44.5925 245.46 44.279C245.673 43.9657 245.89 43.655 246.111 43.3469C246.331 43.0387 246.556 42.7333 246.784 42.4306C247.012 42.128 247.243 41.8282 247.479 41.5312C247.714 41.2343 247.953 40.9401 248.195 40.6489C248.438 40.3576 248.684 40.0694 248.933 39.7842C249.183 39.499 249.435 39.2169 249.692 38.9378C256.727 31.3514 266.171 25.7951 276.416 23.973C278.913 23.529 281.399 23.3851 283.926 23.2974C284.295 23.2973 284.664 23.3016 285.033 23.3102C285.402 23.3187 285.77 23.3315 286.139 23.3487C286.507 23.3658 286.875 23.3872 287.243 23.4128C287.611 23.4385 287.979 23.4685 288.346 23.5027C288.714 23.5369 289.081 23.5754 289.447 23.6182C289.813 23.6609 290.179 23.7079 290.544 23.7592C290.91 23.8104 291.275 23.866 291.639 23.9257C292.003 23.9854 292.366 24.0494 292.728 24.1176C293.091 24.1857 293.453 24.2581 293.813 24.3347C294.174 24.4113 294.534 24.4921 294.893 24.5771C295.252 24.662 295.61 24.7511 295.967 24.8444C296.324 24.9377 296.68 25.0351 297.035 25.1367C297.389 25.2382 297.742 25.3439 298.095 25.4536C298.447 25.5634 298.798 25.6773 299.147 25.7952C299.497 25.9131 299.845 26.0351 300.192 26.1611C300.538 26.2871 300.884 26.4171 301.227 26.5512C301.571 26.6852 301.913 26.8232 302.254 26.9652C302.594 27.1072 302.933 27.2531 303.27 27.403C303.607 27.5529 303.942 27.7066 304.276 27.8643C304.609 28.022 304.941 28.1835 305.271 28.3488C305.6 28.5142 305.928 28.6834 306.254 28.8564C306.58 29.0294 306.904 29.2062 307.225 29.3867C307.547 29.5672 307.867 29.7514 308.184 29.9394C308.502 30.1273 308.817 30.3189 309.13 30.5141C309.443 30.7096 309.753 30.9085 310.062 31.111C310.37 31.3135 310.676 31.5195 310.98 31.7291C311.283 31.9387 311.584 32.1518 311.883 32.3684C312.182 32.585 312.478 32.8051 312.771 33.0286C313.064 33.2521 313.355 33.479 313.644 33.7091C313.932 33.9393 314.217 34.1729 314.5 34.41C314.783 34.6469 315.063 34.887 315.34 35.1303C315.617 35.3737 315.892 35.6202 316.163 35.8701C325.315 44.1612 330.408 56.3343 330.963 68.5572C330.978 68.9425 330.989 69.328 330.994 69.7135C331.001 70.099 331.002 70.4846 330.998 70.8701C330.994 71.2557 330.986 71.6411 330.973 72.0264C330.96 72.4118 330.942 72.7969 330.92 73.1819C330.897 73.5668 330.87 73.9514 330.838 74.3356C330.806 74.7199 330.77 75.1038 330.728 75.4872C330.687 75.8706 330.641 76.2533 330.59 76.6356C330.539 77.0178 330.484 77.3993 330.423 77.7801C330.363 78.1609 330.299 78.541 330.229 78.9202C330.16 79.2995 330.085 79.6778 330.007 80.0553C329.928 80.4328 329.844 80.8092 329.756 81.1846C329.668 81.5599 329.576 81.9341 329.478 82.3073C329.381 82.6805 329.279 83.0524 329.173 83.423C329.066 83.7936 328.955 84.1628 328.84 84.5307C328.725 84.8986 328.605 85.2649 328.48 85.6299C328.356 85.9948 328.227 86.3581 328.093 86.7199C327.96 87.0817 327.822 87.4418 327.68 87.8002C327.538 88.1587 327.391 88.5152 327.24 88.8699C327.089 89.2248 326.934 89.5778 326.774 89.9288C326.614 90.2797 326.45 90.6286 326.282 90.9755C326.114 91.3223 325.941 91.6671 325.765 92.0098C325.588 92.3526 325.407 92.693 325.222 93.0312C325.037 93.3697 324.847 93.7056 324.654 94.0391C324.461 94.3728 324.263 94.7039 324.062 95.0325C323.86 95.3613 323.655 95.6875 323.445 96.0112C323.236 96.3351 323.022 96.6562 322.805 96.9745C322.588 97.2929 322.366 97.6086 322.141 97.9217C321.916 98.2348 321.687 98.545 321.454 98.8524C321.221 99.1597 320.985 99.4642 320.745 99.7656C320.504 100.067 320.26 100.366 320.013 100.662C319.765 100.957 319.514 101.25 319.259 101.539C319.004 101.828 318.746 102.115 318.484 102.398C309.535 112.127 297.601 116.475 284.653 117.034ZM281.971 26.5315C281.605 26.5553 281.24 26.5837 280.875 26.6166C280.51 26.6495 280.145 26.6869 279.781 26.7288C279.417 26.7708 279.054 26.8172 278.691 26.8682C278.328 26.9191 277.966 26.9746 277.605 27.0345C277.243 27.0944 276.882 27.1588 276.522 27.2277C276.163 27.2966 275.804 27.3699 275.446 27.4477C275.088 27.5255 274.731 27.6077 274.374 27.6944C274.018 27.781 273.663 27.8721 273.31 27.9675C272.956 28.063 272.603 28.1628 272.252 28.267C271.901 28.3712 271.551 28.4797 271.202 28.5926C270.854 28.7054 270.507 28.8226 270.161 28.9441C269.815 29.0656 269.471 29.1913 269.129 29.3213C268.786 29.4514 268.445 29.5856 268.106 29.7241C267.767 29.8626 267.429 30.0052 267.094 30.1521C266.758 30.2989 266.424 30.4499 266.092 30.6049C265.76 30.76 265.43 30.9193 265.102 31.0827C264.774 31.2459 264.448 31.4133 264.124 31.5847C263.8 31.7562 263.479 31.9316 263.159 32.1109C262.84 32.2902 262.523 32.4736 262.208 32.6609C261.893 32.8481 261.58 33.0392 261.27 33.2342C260.96 33.4293 260.652 33.628 260.347 33.8305C260.041 34.0332 259.739 34.2396 259.439 34.4498C259.138 34.6599 258.841 34.8737 258.546 35.0911C258.251 35.3088 257.959 35.5299 257.67 35.7546C257.38 35.9795 257.094 36.2078 256.81 36.4395C256.526 36.6715 256.245 36.9069 255.967 37.1457C255.69 37.3845 255.415 37.6268 255.143 37.8725C254.871 38.1182 254.602 38.3672 254.337 38.6193C254.071 38.8717 253.809 39.1273 253.549 39.3862C253.29 39.6451 253.034 39.9071 252.781 40.1722C252.528 40.4373 252.278 40.7056 252.032 40.9771C251.786 41.2485 251.543 41.5229 251.304 41.8002C243.872 50.4251 239.769 61.7418 240.608 73.1683C240.632 73.5372 240.66 73.9056 240.693 74.2737C240.726 74.6418 240.764 75.0093 240.806 75.3764C240.848 75.7435 240.895 76.11 240.947 76.4759C240.998 76.8418 241.055 77.207 241.115 77.5715C241.176 77.936 241.241 78.2998 241.311 78.6627C241.381 79.0257 241.455 79.3877 241.534 79.7486C241.613 80.1096 241.697 80.4695 241.785 80.8284C241.873 81.1872 241.965 81.545 242.062 81.9016C242.16 82.2581 242.261 82.6134 242.367 82.9675C242.473 83.3214 242.584 83.6741 242.698 84.0254C242.813 84.3766 242.933 84.7263 243.056 85.0745C243.18 85.4228 243.308 85.7693 243.441 86.1142C243.573 86.4593 243.71 86.8026 243.851 87.1441C243.992 87.4857 244.138 87.8254 244.287 88.1632C244.437 88.501 244.591 88.8369 244.749 89.171C244.907 89.5051 245.069 89.837 245.236 90.1668C245.402 90.4967 245.573 90.8245 245.748 91.1502C245.922 91.4758 246.101 91.7992 246.284 92.1203C246.467 92.4414 246.654 92.7602 246.845 93.0766C247.036 93.393 247.231 93.707 247.43 94.0185C247.628 94.33 247.831 94.6389 248.038 94.9453C248.244 95.2517 248.455 95.5554 248.669 95.8565C248.883 96.1576 249.101 96.4559 249.323 96.7515C249.545 97.0471 249.77 97.3398 249.999 97.6297C250.229 97.9196 250.461 98.2066 250.698 98.4906C250.934 98.7746 251.174 99.0556 251.418 99.3337C251.661 99.6117 251.908 99.8865 252.159 100.158C252.409 100.43 252.663 100.699 252.92 100.964C253.177 101.229 253.437 101.492 253.701 101.75C253.965 102.009 254.232 102.264 254.502 102.517C254.772 102.769 255.046 103.017 255.322 103.263C255.599 103.508 255.878 103.749 256.161 103.988C264.528 111.146 275.663 114.344 286.542 113.927C298.674 112.918 309.614 107.982 317.567 98.6014C317.8 98.3276 318.029 98.051 318.255 97.7717C318.481 97.4923 318.703 97.2101 318.922 96.9253C319.141 96.6404 319.357 96.3527 319.569 96.0624C319.781 95.7722 319.989 95.4793 320.193 95.1839C320.398 94.8885 320.599 94.5907 320.796 94.2904C320.993 93.9899 321.187 93.687 321.376 93.3818C321.566 93.0766 321.752 92.7691 321.934 92.4594C322.116 92.1495 322.294 91.8374 322.469 91.5232C322.643 91.2089 322.813 90.8926 322.98 90.5742C323.146 90.2557 323.309 89.9351 323.467 89.6126C323.626 89.2901 323.78 88.9657 323.931 88.6393C324.081 88.313 324.228 87.9849 324.37 87.655C324.512 87.325 324.651 86.9933 324.784 86.6598C324.919 86.3263 325.049 85.9913 325.175 85.6549C325.3 85.3183 325.422 84.9801 325.539 84.6403C325.656 84.3007 325.77 83.9596 325.879 83.6171C325.987 83.2748 326.092 82.9311 326.192 82.586C326.293 82.2409 326.389 81.8947 326.481 81.5472C326.573 81.1998 326.66 80.8513 326.743 80.5017C326.826 80.1521 326.905 79.8015 326.98 79.4499C327.054 79.0984 327.124 78.7459 327.19 78.3926C327.255 78.0392 327.317 77.6852 327.374 77.3305C327.43 76.9756 327.483 76.6201 327.531 76.2641C327.579 75.908 327.623 75.5513 327.662 75.194C327.701 74.8368 327.736 74.4791 327.766 74.1211C327.797 73.763 327.823 73.4046 327.844 73.0458C327.866 72.6871 327.883 72.3282 327.895 71.969C327.908 71.61 327.916 71.2507 327.92 70.8913C327.923 70.5321 327.922 70.1728 327.917 69.8134C327.912 69.4541 327.902 69.0949 327.888 68.7357C327.874 68.3767 327.855 68.0178 327.832 67.6592C327.809 67.3006 327.781 66.9423 327.749 66.5845C326.988 57.5218 323.229 48.3764 317.219 41.5106C315.638 39.7047 313.827 38.0943 311.991 36.5515C311.732 36.336 311.469 36.1237 311.205 35.9146C310.94 35.7052 310.673 35.499 310.404 35.2959C310.135 35.0926 309.863 34.8926 309.589 34.6958C309.315 34.499 309.039 34.3053 308.761 34.1148C308.482 33.9243 308.201 33.7371 307.919 33.5533C307.636 33.3693 307.351 33.1886 307.064 33.0112C306.777 32.8339 306.488 32.6599 306.197 32.4892C305.906 32.3185 305.613 32.1513 305.318 31.9875C305.024 31.8235 304.727 31.663 304.428 31.5061C304.13 31.349 303.829 31.1954 303.527 31.0453C303.225 30.8953 302.921 30.7487 302.616 30.6058C302.31 30.4626 302.003 30.3231 301.694 30.1872C301.386 30.0512 301.075 29.9189 300.763 29.7901C300.452 29.6614 300.139 29.5363 299.824 29.4148C299.509 29.2933 299.193 29.1754 298.876 29.0612C298.558 28.947 298.239 28.8365 297.919 28.7297C297.599 28.6229 297.278 28.5199 296.956 28.4205C296.633 28.3211 296.31 28.2255 295.985 28.1336C295.661 28.0417 295.335 27.9536 295.009 27.8693C294.682 27.7849 294.354 27.7044 294.026 27.6276C293.697 27.5509 293.368 27.4779 293.038 27.4088C292.708 27.3396 292.377 27.2743 292.045 27.2128C291.713 27.1513 291.381 27.0937 291.048 27.0399C290.715 26.9862 290.381 26.9362 290.047 26.8902C289.713 26.8441 289.378 26.8019 289.043 26.7636C288.708 26.7253 288.372 26.6908 288.036 26.6603C287.7 26.6297 287.364 26.6031 287.027 26.5803C286.691 26.5576 286.354 26.5387 286.017 26.5237C285.68 26.5088 285.343 26.4977 285.006 26.4905C284.668 26.4834 284.331 26.4801 283.994 26.4808C283.656 26.4814 283.319 26.4859 282.982 26.4944C282.645 26.5028 282.308 26.5152 281.971 26.5315Z" fill="#9C94B9"/>
<path d="M279.649 47.363C279.779 45.7831 279.153 43.2642 279.838 41.8666C280.075 41.3828 280.378 41.2573 280.856 41.1162C283.282 41.2352 285.632 41.1083 288.048 41.1062C288.578 41.1056 289.16 41.1984 289.523 41.6288C290.475 42.7575 289.988 46.1734 289.961 47.6677C292.364 48.3373 294.495 49.1045 296.596 50.472C297.819 49.2915 298.929 47.7743 300.294 46.7712C300.624 46.5287 300.749 46.4436 301.157 46.5437C302.654 46.9117 307.174 51.507 307.814 52.9252C307.835 54.3744 304.84 56.8222 303.889 57.9311C305.076 60.0467 305.986 62.1596 306.793 64.4449C308.644 64.4552 310.885 64.1594 312.688 64.5011C312.911 64.7026 312.998 64.8865 313.089 65.1669C313.637 66.8433 313.703 72.9931 312.927 74.4965C312.117 75.1208 308.433 74.82 307.213 74.8106C306.5 77.6305 305.58 80.1203 304.271 82.7107C305.405 84.2209 307.259 85.3849 308.105 87.0565C308.111 87.27 308.092 87.4415 308.005 87.6395C307.318 89.1935 303.671 92.9877 302.154 93.5767C300.656 93.475 298.641 90.8686 297.633 89.8216C295.043 91.3179 292.51 92.3576 289.635 93.1542C289.605 94.5718 290.147 97.6154 289.191 98.7169C288.663 99.325 287.852 99.2496 287.123 99.2681C285.551 99.2743 280.476 99.7472 279.5 98.81C278.369 97.7232 278.719 94.7339 278.717 93.2756C275.915 92.5668 273.309 91.0731 270.842 89.6063C269.608 90.7317 268.243 93.0269 266.746 93.6441C266.518 93.5985 266.328 93.5334 266.125 93.417C264.606 92.547 260.461 88.5949 259.996 86.9554C260.353 85.6715 263.056 83.5147 264.129 82.4962C262.779 79.9417 261.752 77.6155 261.062 74.8011C259.926 74.7628 256.645 75.0348 255.777 74.5528C255.46 74.3769 255.4 74.1884 255.291 73.8549C254.842 72.4767 254.869 65.8219 255.522 64.5795C256.612 63.9847 260.052 64.3609 261.497 64.3677C262.143 62.0185 263.117 59.968 264.43 57.9205C263.297 56.5276 261.368 55.2679 260.598 53.6555C260.455 53.355 260.364 53.074 260.51 52.7555C261.022 51.6372 266.101 47.072 267.191 46.6598C268.34 46.9898 270.564 49.6996 271.559 50.5946C274.211 49.192 276.761 48.1706 279.649 47.363ZM283.163 44.2105C282.885 44.3704 282.821 44.3751 282.74 44.7048C282.575 45.3747 282.683 46.2898 282.697 46.9892C283.977 47.0098 285.255 47.0237 286.533 47.1079L286.832 46.9742C287.055 46.1369 286.925 45.1288 286.906 44.2638C285.659 44.2216 284.411 44.2038 283.163 44.2105ZM283.149 50.099C277.794 50.457 272.359 53.081 268.812 57.136C265.273 61.1824 263.682 66.2184 264.049 71.5726C264.423 77.0222 266.718 82.0405 270.89 85.6202C274.65 88.8477 280.082 91.0009 285.082 90.6309C290.598 90.2046 295.799 88.0021 299.452 83.7539C299.668 83.5019 299.878 83.2448 300.081 82.9826C300.284 82.7202 300.48 82.453 300.67 82.181C300.86 81.909 301.043 81.6325 301.22 81.3514C301.396 81.0702 301.565 80.7848 301.727 80.4953C301.89 80.206 302.045 79.9127 302.192 79.6156C302.34 79.3184 302.48 79.0178 302.613 78.7138C302.745 78.4098 302.871 78.1026 302.988 77.7923C303.106 77.482 303.216 77.169 303.318 76.8534C303.42 76.5375 303.514 76.2195 303.6 75.8991C303.687 75.5788 303.765 75.2565 303.836 74.9322C303.906 74.6082 303.969 74.2824 304.023 73.955C304.077 73.6276 304.123 73.2991 304.161 72.9696C304.2 72.64 304.229 72.3097 304.251 71.9785C304.273 71.6476 304.286 71.3162 304.292 70.9842C304.297 70.6525 304.294 70.3209 304.283 69.9893C304.272 69.6578 304.253 69.3267 304.225 68.9959C303.757 63.4217 301.199 58.4479 296.889 54.8478C292.992 51.5927 288.234 49.8545 283.149 50.099ZM267.012 50.4346C266.101 51.3606 265.214 52.3095 264.351 53.2811C264.979 53.9342 265.59 54.6595 266.325 55.1928L266.574 55.1701C267.441 54.2185 268.283 53.218 269.303 52.4253C268.471 51.801 267.755 51.1596 267.012 50.4346ZM301.085 50.4228L299.043 52.4456C299.626 53.0336 301.181 54.9639 301.923 55.0864C302.626 54.3726 303.319 53.6685 304.098 53.0366C303.371 52.3239 302.033 50.6859 301.085 50.4228ZM258.054 67.2849C258.056 68.7202 258.042 70.1573 258.064 71.5923C258.926 71.5985 259.88 71.6839 260.724 71.5207C260.724 70.1246 260.829 68.7673 260.967 67.3806C259.992 67.3143 259.032 67.2748 258.054 67.2849ZM307.426 67.4351C307.479 68.859 307.52 70.2833 307.549 71.7078L310.223 71.6963C310.232 70.3007 310.261 68.9017 310.228 67.5064C309.293 67.4669 308.361 67.4192 307.426 67.4351ZM265.959 85.1995C265.266 85.8212 264.643 86.4507 264.084 87.1987C264.793 88.1659 265.551 88.9484 266.491 89.6961C267.165 89.0023 267.806 88.3047 268.417 87.5546C267.852 86.951 266.718 85.4043 265.959 85.1995ZM302.204 85.4894L300.147 87.765C300.55 88.2926 301.464 89.7698 302.098 89.9542C302.812 89.0896 303.538 88.2359 304.277 87.3929C303.623 86.7716 302.944 85.995 302.204 85.4894ZM281.928 93.6453C281.841 94.4782 281.789 95.2815 281.798 96.1197C283.377 96.1141 284.994 96.1748 286.568 96.0773L286.595 93.7125C285.039 93.7127 283.483 93.6903 281.928 93.6453Z" fill="#9C94B9"/>
<path d="M286.1 86.3953C281.96 86.9303 277.555 85.8644 274.22 83.3273C270.804 80.7277 268.595 76.7063 268.023 72.4684C267.985 72.2064 267.953 71.9437 267.929 71.6804C267.904 71.4168 267.886 71.1527 267.874 70.8882C267.863 70.6238 267.858 70.3592 267.86 70.0945C267.861 69.8299 267.87 69.5655 267.885 69.3011C267.9 69.037 267.922 68.7733 267.95 68.5101C267.978 68.2469 268.013 67.9846 268.054 67.7232C268.095 67.4618 268.143 67.2016 268.198 66.9425C268.252 66.6835 268.313 66.426 268.38 66.1701C268.448 65.9139 268.521 65.6598 268.601 65.4076C268.681 65.1552 268.768 64.9051 268.86 64.6573C268.953 64.4092 269.051 64.1637 269.156 63.9207C269.261 63.6778 269.372 63.4375 269.489 63.1998C269.606 62.9624 269.729 62.7281 269.857 62.4969C269.986 62.2655 270.12 62.0376 270.26 61.8131C270.401 61.5884 270.546 61.3675 270.697 61.1503C270.848 60.9328 271.005 60.7195 271.167 60.5101C274.064 56.7833 277.945 54.9291 282.569 54.3652C286.391 53.8414 290.706 55.1368 293.76 57.4309C293.979 57.5941 294.194 57.7626 294.404 57.9364C294.614 58.1102 294.82 58.2891 295.022 58.4729C295.223 58.6569 295.42 58.8458 295.612 59.0394C295.805 59.2333 295.992 59.4316 296.174 59.6345C296.357 59.8376 296.534 60.045 296.706 60.2567C296.878 60.4685 297.045 60.6844 297.206 60.9046C297.368 61.1245 297.523 61.3483 297.674 61.576C297.824 61.8038 297.969 62.0352 298.108 62.2701C298.247 62.505 298.38 62.7431 298.507 62.9845C298.634 63.2261 298.755 63.4706 298.87 63.7181C298.985 63.9653 299.094 64.2154 299.196 64.4684C299.299 64.7212 299.395 64.9764 299.485 65.2341C299.575 65.4918 299.659 65.7514 299.736 66.013C299.813 66.2748 299.884 66.5383 299.948 66.8035C300.012 67.0688 300.069 67.3355 300.12 67.6036C300.171 67.8717 300.216 68.1409 300.253 68.4111C300.838 72.6705 299.763 76.6895 297.162 80.109C294.307 83.8632 290.755 85.7398 286.1 86.3953ZM282.471 57.6009C278.915 58.0902 275.904 59.6366 273.72 62.5346C271.693 65.2238 270.653 68.6088 271.125 71.9664C271.156 72.1887 271.192 72.4102 271.234 72.6308C271.276 72.8513 271.323 73.0708 271.376 73.2892C271.428 73.5074 271.487 73.7241 271.55 73.9394C271.613 74.1549 271.682 74.3685 271.756 74.5805C271.83 74.7926 271.909 75.0026 271.993 75.2106C272.078 75.4186 272.167 75.6244 272.262 75.8281C272.356 76.0318 272.456 76.233 272.56 76.4318C272.665 76.6305 272.774 76.8265 272.888 77.0198C273.002 77.2131 273.121 77.4035 273.245 77.591C273.368 77.7784 273.497 77.9626 273.629 78.1437C273.762 78.3248 273.899 78.5025 274.041 78.677C274.182 78.8512 274.328 79.0218 274.478 79.189C274.628 79.3561 274.781 79.5194 274.939 79.6789C275.098 79.8384 275.259 79.9939 275.425 80.1456C275.591 80.297 275.76 80.4443 275.933 80.5875C276.106 80.7306 276.282 80.8694 276.462 81.0037C279.169 83.0009 282.478 83.7554 285.804 83.439C289.449 82.9246 292.424 81.2951 294.641 78.3155C296.722 75.5191 297.517 72.0633 296.983 68.6241C296.454 65.2214 294.393 61.8774 291.588 59.8752C289.057 58.0681 285.558 57.1719 282.471 57.6009Z" fill="#9C94B9"/>
<path d="M281.886 73.743C284.288 71.4204 286.742 68.6823 289.18 66.5072C289.669 66.4731 290.137 66.4893 290.579 66.7238C290.901 66.8943 291.141 67.1725 291.196 67.5445C291.307 68.2999 290.752 69.1428 290.302 69.6952C289.243 70.9964 283.093 77.4766 281.696 77.501C280.821 77.5163 277.766 74.1752 277.019 73.4811C276.337 72.8963 275.518 72.2311 275.344 71.3046C275.249 70.7979 275.369 70.1848 275.636 69.7558C275.886 69.6121 275.966 69.5205 276.265 69.521C278.148 69.5252 280.616 72.4963 281.886 73.743Z" fill="#9C94B9"/>
<path d="M81.8477 118.591C81.7211 115.542 81.5973 112.507 81.8415 109.46C81.8845 108.901 81.9384 108.343 82.0031 107.786C82.0678 107.229 82.1434 106.673 82.2297 106.119C82.3161 105.565 82.4133 105.013 82.5212 104.462C82.629 103.912 82.7476 103.364 82.8769 102.818C83.0062 102.273 83.146 101.73 83.2964 101.189C83.4468 100.649 83.6077 100.112 83.7791 99.5778C83.9505 99.044 84.1322 98.5136 84.3242 97.9867C84.5163 97.4597 84.7185 96.9368 84.9309 96.4179C85.1433 95.8988 85.3658 95.384 85.5983 94.8736C85.8307 94.3633 86.0731 93.8578 86.3253 93.3569C86.5774 92.8559 86.8393 92.3601 87.1108 91.8695C87.3823 91.3787 87.6633 90.8935 87.9537 90.4138C88.2441 89.934 88.5437 89.4601 88.8527 88.9921C89.1616 88.524 89.4795 88.0622 89.8063 87.6065C90.1333 87.1507 90.469 86.7015 90.8133 86.259C91.1577 85.8164 91.5107 85.3807 91.8721 84.9518C99.6016 75.8565 109.912 71.1089 121.675 70.117C122.167 70.0787 122.659 70.0546 123.152 70.0446C123.508 70.0376 123.863 70.035 124.218 70.0366C124.574 70.0382 124.929 70.0442 125.284 70.0545C125.639 70.0647 125.995 70.0793 126.349 70.0981C126.704 70.117 127.059 70.1402 127.413 70.1677C127.767 70.1952 128.121 70.227 128.475 70.263C128.828 70.2991 129.181 70.3395 129.534 70.3841C129.886 70.4287 130.238 70.4776 130.59 70.5308C130.941 70.584 131.292 70.6414 131.642 70.7031C131.992 70.7648 132.341 70.8307 132.689 70.9009C133.038 70.9711 133.385 71.0455 133.732 71.1241C134.078 71.2027 134.424 71.2854 134.768 71.3724C135.113 71.4594 135.456 71.5505 135.799 71.6459C136.141 71.7412 136.482 71.8406 136.822 71.9442C137.162 72.0478 137.501 72.1555 137.838 72.2674C138.175 72.3792 138.511 72.4951 138.846 72.615C139.18 72.735 139.513 72.859 139.845 72.987C140.176 73.1151 140.506 73.2471 140.834 73.3832C141.163 73.5192 141.489 73.6592 141.814 73.8032C142.139 73.9472 142.462 74.0951 142.783 74.2469C143.105 74.3987 143.424 74.5544 143.742 74.714C144.059 74.8736 144.375 75.037 144.688 75.2042C145.002 75.3714 145.313 75.5424 145.623 75.7172C145.932 75.892 146.239 76.0705 146.544 76.2528C146.849 76.435 147.152 76.6209 147.453 76.8105C147.753 77.0001 148.052 77.1933 148.348 77.3901C148.643 77.587 148.937 77.7873 149.228 77.9913C149.519 78.1953 149.807 78.4027 150.094 78.6137C150.379 78.8246 150.663 79.039 150.943 79.2568C151.224 79.4747 151.502 79.6959 151.778 79.9204C152.053 80.145 152.326 80.3729 152.596 80.6041C152.865 80.8353 153.133 81.0697 153.397 81.3074C153.661 81.5451 153.922 81.7859 154.181 82.0299C160.583 88.1763 164.84 97.4414 165.907 106.187C166.413 110.336 166.309 114.461 166.38 118.631C167.198 118.838 167.986 119.118 168.737 119.505C170.92 120.628 172.562 122.459 173.297 124.818C173.562 125.667 173.693 126.546 173.747 127.432C173.891 129.779 173.706 132.182 173.701 134.536C173.698 136.68 173.965 139.11 173.642 141.223C173.559 141.758 173.43 142.282 173.255 142.794C173.081 143.307 172.863 143.801 172.603 144.276C172.532 144.407 172.458 144.537 172.38 144.665C172.303 144.792 172.222 144.918 172.138 145.042C172.054 145.165 171.967 145.287 171.877 145.406C171.787 145.525 171.694 145.642 171.598 145.757C171.503 145.872 171.404 145.984 171.302 146.093C171.201 146.203 171.097 146.31 170.99 146.415C170.883 146.519 170.774 146.621 170.662 146.72C170.55 146.819 170.435 146.915 170.319 147.008C170.202 147.101 170.083 147.192 169.962 147.279C169.841 147.366 169.717 147.45 169.592 147.531C169.466 147.613 169.339 147.69 169.209 147.765C169.08 147.84 168.949 147.911 168.816 147.979C168.683 148.047 168.548 148.112 168.412 148.173C168.276 148.235 168.138 148.293 167.999 148.347C167.86 148.402 167.719 148.453 167.577 148.5C167.436 148.547 167.293 148.591 167.149 148.631C164.833 149.288 162.355 148.925 160.271 147.739C157.919 146.401 156.613 144.339 155.904 141.784L126.276 141.709L91.9121 141.763C91.4499 142.931 91.0039 144.11 90.3457 145.185C89.1375 147.159 87.3955 148.441 85.131 148.954C82.6944 149.506 80.1993 149.099 78.0911 147.748C77.9632 147.664 77.8374 147.578 77.7137 147.488C77.59 147.399 77.4686 147.306 77.3494 147.211C77.2303 147.115 77.1135 147.017 76.9992 146.915C76.8848 146.814 76.773 146.71 76.6637 146.603C76.5544 146.497 76.4478 146.387 76.3439 146.275C76.2399 146.164 76.1388 146.049 76.0404 145.933C75.9421 145.816 75.8467 145.697 75.7541 145.575C75.6616 145.454 75.5721 145.33 75.4856 145.204C75.3991 145.078 75.3158 144.95 75.2355 144.82C75.1553 144.69 75.0783 144.558 75.0045 144.425C74.9307 144.291 74.8603 144.156 74.7931 144.018C74.7259 143.881 74.6621 143.742 74.6017 143.602C74.5414 143.462 74.4844 143.32 74.431 143.177C74.3775 143.034 74.3276 142.89 74.2812 142.744C74.2347 142.599 74.1919 142.452 74.1526 142.305C74.1134 142.157 74.0778 142.009 74.0458 141.859C73.7548 140.445 73.6898 127.701 73.9516 126.101C74.1696 124.767 74.6502 123.529 75.4143 122.414C76.9783 120.131 79.223 119.102 81.8477 118.591ZM122.935 73.21C117.548 73.5784 111.854 74.7003 107.017 77.1952C111.401 81.6336 114.896 86.6358 118.579 91.6338L126.319 91.5537C127.805 91.538 129.289 91.4962 130.773 91.4285C132.602 89.4626 134.117 87.2247 135.759 85.105C137.766 82.5131 139.843 79.9811 141.83 77.3717C136.373 74.4626 129.076 72.7543 122.935 73.21ZM103.847 78.8635C95.022 84.4574 88.9366 92.109 86.3783 102.358L98.6842 102.565C100.85 102.581 103.025 102.567 105.189 102.649C106.666 102.706 108.147 102.9 109.624 102.897C111.418 99.579 113.676 96.3926 115.894 93.344C114.314 90.948 105.959 79.4467 103.847 78.8635ZM144.761 78.8199C142.484 81.764 140.188 84.694 137.875 87.6098C136.444 89.4284 135.062 91.3265 133.543 93.0706C135.31 96.4029 138.25 99.0555 140.067 102.33L150.859 102.338L162.006 102.339C159.835 93.1817 154.029 84.4436 145.961 79.4345C145.579 79.1976 145.189 78.9617 144.761 78.8199ZM118.641 94.655C117.536 96.5844 116.207 98.4065 114.979 100.261C113.993 101.751 113.063 103.386 111.951 104.776C114.056 108.462 116.289 112.069 118.65 115.596C122.707 115.598 126.785 115.687 130.84 115.565C133.19 111.929 135.558 108.28 137.467 104.389C135.443 101.013 132.981 97.9107 130.812 94.6249C126.754 94.608 122.697 94.6181 118.641 94.655ZM140.809 105.407C139.279 107.551 138.054 109.912 136.705 112.17C135.715 113.827 134.59 115.429 133.666 117.12C135.171 119.61 137.108 121.814 138.641 124.286L138.646 133.118C138.649 134.959 138.569 136.855 138.741 138.689C140.714 138.703 155.028 138.934 155.669 138.556L155.736 138.404C155.83 136.053 155.821 133.704 155.824 131.352C155.829 127.437 155.651 123.752 158.78 120.866C160.085 119.663 161.482 119.121 163.161 118.651C163.282 114.32 163.444 109.834 162.66 105.557C155.378 105.557 148.086 105.361 140.809 105.407ZM85.5205 105.554C84.68 109.957 84.6795 114.344 85.2059 118.783C87.6791 119.543 89.5753 120.947 90.7959 123.256C92.5411 126.559 91.8662 134.657 91.9213 138.621C98.2227 138.674 104.524 138.691 110.826 138.672L110.852 134.206L110.847 124.737C112.397 122.056 114.445 119.711 115.964 116.985C113.514 113.434 111.09 109.803 109.143 105.945C101.272 105.605 93.3982 105.475 85.5205 105.554ZM126.122 118.588C123.716 118.634 121.31 118.65 118.904 118.636C117.134 120.854 115.415 123.26 114.006 125.726L114.009 138.62C117.235 138.612 120.462 138.622 123.689 138.649L135.572 138.695C135.592 134.19 135.581 129.686 135.539 125.181C133.961 122.997 132.49 120.667 130.827 118.553C129.26 118.558 127.688 118.538 126.122 118.588ZM82.509 121.647C80.8415 121.943 79.2416 122.694 78.2196 124.095C77.6207 124.916 77.3663 125.975 77.2241 126.969C76.8932 129.283 76.8508 139.193 77.2529 141.413C77.5183 142.879 78.2047 143.985 79.4295 144.853C80.6975 145.752 82.1445 146.137 83.6849 146.083C85.4381 145.648 86.8447 144.833 87.8293 143.266C88.3657 142.412 88.6414 141.501 88.7669 140.505C88.9905 138.729 88.9416 127.777 88.5183 126.11C88.1288 124.578 87.1816 123.175 85.8 122.374C84.8617 121.831 83.5908 121.53 82.509 121.647ZM163.967 121.788C162.294 122.162 160.802 122.894 159.875 124.404C159.414 125.154 159.174 126.011 159.055 126.878C158.794 128.799 158.891 139.876 159.301 141.417C159.701 142.923 160.617 144.353 162.007 145.116C163.189 145.765 164.519 145.852 165.832 145.668C167.549 145.133 168.922 144.256 169.782 142.619C170.235 141.757 170.45 140.832 170.555 139.871C170.797 137.659 170.6 135.267 170.599 133.036C170.599 131.267 170.745 129.458 170.631 127.697C170.586 126.997 170.462 126.295 170.227 125.633C169.702 124.161 168.617 122.932 167.168 122.317C166.916 122.212 166.659 122.122 166.396 122.047C166.134 121.972 165.868 121.912 165.598 121.867C165.329 121.823 165.057 121.794 164.785 121.78C164.512 121.767 164.239 121.77 163.967 121.788Z" fill="#9C94B9"/>
<path d="M83.3922 139.458C82.8627 139.401 82.2072 139.298 81.8365 138.866C81.065 137.967 81.2881 130.405 81.3992 128.88C81.4663 127.959 81.6799 127.653 82.3701 127.044C83.0082 127.099 83.5356 127.18 83.9633 127.708C84.1605 127.951 84.2862 128.198 84.3406 128.507C84.6404 130.208 84.6329 136.213 84.4305 137.979C84.3437 138.737 83.9781 139.019 83.3922 139.458Z" fill="#9C94B9"/>
<path d="M165.19 139.062C164.869 139.034 164.521 139.021 164.209 138.943C163.861 138.857 163.588 138.686 163.447 138.349C162.967 137.202 163.017 130.529 163.458 129.365C163.85 128.925 164.265 128.749 164.796 128.51C164.97 128.529 164.97 128.524 165.163 128.576C165.584 128.689 165.911 128.918 166.122 129.305C166.834 130.611 166.785 136.562 166.322 137.944C166.114 138.566 165.747 138.792 165.19 139.062Z" fill="#9C94B9"/>
<path d="M112.694 159.905C112.392 160.489 112.099 161.1 111.74 161.65C110.551 163.478 108.597 164.696 106.469 165.103C104.287 165.52 102.199 164.994 100.398 163.71C98.6665 162.474 97.3899 160.546 97.1003 158.424C97.0831 158.29 97.0692 158.155 97.0588 158.02C97.0482 157.885 97.041 157.75 97.0373 157.615C97.0336 157.48 97.0332 157.345 97.0361 157.209C97.0391 157.074 97.0455 156.939 97.0553 156.804C97.0651 156.669 97.0783 156.535 97.0948 156.4C97.1113 156.266 97.1311 156.132 97.1543 155.999C97.1772 155.866 97.2037 155.733 97.2335 155.601C97.2634 155.469 97.2965 155.338 97.3328 155.208C97.3691 155.078 97.4087 154.948 97.4515 154.82C97.4943 154.691 97.5404 154.564 97.5897 154.439C97.6388 154.312 97.691 154.188 97.7464 154.064C97.8018 153.941 97.8603 153.819 97.922 153.698C97.9835 153.578 98.0479 153.459 98.1153 153.342C98.1828 153.225 98.2532 153.109 98.3265 152.996C98.3998 152.882 98.4758 152.77 98.5545 152.66C98.6333 152.55 98.7148 152.442 98.799 152.336C100.326 150.381 102.309 149.518 104.705 149.206C106.682 149.066 108.778 149.611 110.784 149.613L135.46 149.633C137.062 149.629 138.679 149.655 140.28 149.581C142.554 149.476 144.717 148.871 146.963 149.625C147.081 149.664 147.198 149.707 147.314 149.752C147.429 149.797 147.544 149.845 147.657 149.896C147.77 149.947 147.882 150.001 147.993 150.057C148.104 150.114 148.213 150.173 148.321 150.235C148.428 150.296 148.535 150.361 148.639 150.428C148.744 150.495 148.847 150.565 148.948 150.637C149.049 150.709 149.148 150.784 149.246 150.861C149.343 150.938 149.439 151.017 149.532 151.099C149.626 151.18 149.717 151.264 149.807 151.35C149.896 151.437 149.984 151.525 150.069 151.616C150.154 151.706 150.237 151.799 150.317 151.893C150.398 151.988 150.476 152.084 150.552 152.183C150.627 152.281 150.701 152.382 150.771 152.484C150.842 152.586 150.911 152.689 150.976 152.795C151.042 152.9 151.105 153.007 151.166 153.116C151.226 153.224 151.284 153.334 151.339 153.446C152.304 155.407 152.496 157.726 151.762 159.796C151.039 161.838 149.554 163.605 147.55 164.483C145.309 165.464 143.041 165.208 140.822 164.365C138.899 163.255 137.829 161.881 136.951 159.89L112.694 159.905ZM143.778 152.42C142.326 152.82 141.139 153.413 140.333 154.756C140.251 154.893 140.177 155.034 140.11 155.179C140.042 155.324 139.982 155.471 139.93 155.622C139.878 155.773 139.833 155.926 139.796 156.081C139.76 156.236 139.731 156.393 139.71 156.551C139.689 156.709 139.676 156.868 139.671 157.028C139.667 157.187 139.67 157.347 139.681 157.506C139.693 157.665 139.712 157.823 139.74 157.98C139.768 158.137 139.803 158.293 139.846 158.446C139.889 158.597 139.938 158.746 139.996 158.892C140.053 159.038 140.117 159.181 140.189 159.32C140.261 159.46 140.339 159.595 140.424 159.727C140.509 159.859 140.601 159.986 140.699 160.109C140.797 160.231 140.9 160.348 141.01 160.461C141.119 160.573 141.234 160.679 141.355 160.78C141.475 160.88 141.6 160.975 141.73 161.063C141.86 161.151 141.994 161.232 142.131 161.307C143.07 161.816 144.07 161.978 145.129 161.897C146.523 161.541 147.69 160.963 148.44 159.675C149.086 158.565 149.181 157.209 148.84 155.984C148.49 154.727 147.694 153.636 146.55 152.992C145.683 152.505 144.763 152.345 143.778 152.42ZM104.259 152.569C102.761 153.037 101.514 153.673 100.775 155.149C100.159 156.38 100.13 157.9 100.623 159.178C100.68 159.327 100.743 159.472 100.815 159.614C100.886 159.755 100.965 159.893 101.05 160.027C101.136 160.161 101.228 160.29 101.327 160.414C101.426 160.539 101.53 160.658 101.641 160.771C101.752 160.885 101.869 160.992 101.991 161.094C102.113 161.196 102.24 161.291 102.371 161.379C102.503 161.468 102.639 161.55 102.779 161.624C102.92 161.699 103.063 161.766 103.21 161.826C104.148 162.219 105.071 162.215 106.064 162.094C107.564 161.501 108.789 160.711 109.474 159.178C110.017 157.966 110.004 156.61 109.485 155.393C108.978 154.205 108.042 153.271 106.829 152.815C105.979 152.495 105.151 152.452 104.259 152.569ZM111.905 152.908L111.776 153.08L111.851 153.235C112.401 154.396 112.814 155.546 113.037 156.813L128.904 156.815C131.327 156.816 133.993 157.046 136.389 156.758C136.649 156.438 136.668 156.064 136.731 155.671C136.992 154.627 137.332 153.787 137.939 152.886C132.799 152.915 127.659 152.917 122.519 152.892C118.99 152.875 115.433 152.78 111.905 152.908Z" fill="#9C94B9"/>
</svg>
