<svg width="403" height="187" viewBox="0 0 403 187" fill="none" xmlns="http://www.w3.org/2000/svg">
<path d="M66.8027 47.2322C66.5994 47.2212 66.4059 47.1989 66.2077 47.1491C65.7579 47.036 65.4434 46.9096 65.1994 46.4844C64.6707 45.5639 64.4477 44.271 64.1207 43.2474C63.1906 40.3351 61.5545 37.4495 59.4505 35.2245C59.103 34.8611 58.7402 34.5137 58.362 34.1822C57.9839 33.8507 57.592 33.5364 57.1862 33.2394C56.7804 32.9424 56.3623 32.6638 55.932 32.4036C55.5017 32.1435 55.0607 31.9028 54.6092 31.6817C52.8763 30.811 48.8145 29.9361 47.7887 29.2295C47.5256 29.0483 47.3027 28.814 47.1729 28.517C47.0129 28.1506 47.0672 27.6735 47.214 27.3128C47.6861 26.1537 50.9128 25.859 52.0205 25.5086C52.9817 25.199 53.9111 24.8128 54.8087 24.35C60.8866 21.2232 62.5114 17.0489 64.504 10.9179C64.8313 9.90986 65.0456 9.49489 66.0093 9C66.5959 9.04736 67.1059 9.10291 67.5286 9.57174C68.4774 10.6239 68.7751 13.436 69.3199 14.8273C69.6483 15.6824 70.0374 16.5089 70.4873 17.3068C70.9369 18.1048 71.4425 18.8656 72.0039 19.5892C74.3793 22.6159 77.5593 24.5852 81.2461 25.6451C82.5052 26.0071 84.3687 26.3113 85.3679 27.2013C85.6766 27.4763 85.6918 27.5261 85.7189 27.9156C84.7778 29.8227 80.8351 30.4266 78.9781 31.2536C77.1211 32.081 75.386 33.09 73.9401 34.5313C71.577 36.8873 69.9786 39.6768 68.9774 42.8533C68.6267 43.9655 68.3614 45.2969 67.8059 46.3118C67.5735 46.7363 67.2009 46.9771 66.8027 47.2322ZM66.2426 16.4294C64.0328 21.8244 60.7033 25.4896 55.2682 27.7595L54.6011 28.0346C60.2081 30.4037 64.0111 34.3325 66.3722 39.9484C69.5953 33.9484 71.5466 31.1799 77.6595 28.0194C73.6828 25.9478 70.3376 23.771 68.0217 19.7734C67.5144 18.8974 66.8716 17.0744 66.2426 16.4294Z" fill="#B9A694"/>
<path d="M161.677 18.4292C157.278 19.3159 152.83 20.7413 148.592 22.2099C137.348 26.106 126.749 31.0546 116.756 37.5457C112.195 40.5082 107.801 43.8402 103.563 47.2434C102.075 48.4386 96.86 53.5531 95.8766 53.7852C95.3824 53.9019 94.9261 53.7532 94.5305 53.4554C94.1182 53.1454 93.8399 52.5867 93.8632 52.0736C93.8887 51.503 94.3069 50.9498 94.6873 50.5508C98.5622 46.4865 103.341 42.9821 107.842 39.6385C132.102 21.6141 160.096 12.4125 190.175 11.0408C191.655 10.9876 193.135 10.956 194.615 10.9461C196.095 10.9361 197.575 10.9478 199.055 10.9811C200.536 11.0144 202.015 11.0693 203.493 11.1459C204.971 11.2224 206.448 11.3205 207.924 11.4402C209.4 11.5599 210.873 11.7011 212.344 11.8638C213.816 12.0266 215.285 12.2108 216.751 12.4165C218.217 12.6221 219.68 12.8492 221.139 13.0976C222.599 13.346 224.054 13.6157 225.506 13.9066C226.957 14.1976 228.404 14.5096 229.846 14.8429C231.289 15.1761 232.726 15.5303 234.158 15.9056C235.59 16.2808 237.017 16.6768 238.437 17.0937C239.858 17.5107 241.272 17.9482 242.68 18.4064C244.088 18.8647 245.488 19.3434 246.882 19.8426C248.276 20.3417 249.662 20.8611 251.041 21.4008C252.419 21.9405 253.79 22.5002 255.152 23.0799C256.514 23.6596 257.868 24.2591 259.213 24.8784C262.371 26.3603 265.434 27.8966 268.505 29.5519C269.515 30.0967 270.753 30.5965 271.662 31.2839C272.055 31.581 272.351 32.0136 272.5 32.4824C272.647 32.945 272.649 33.4976 272.382 33.9191C271.789 34.8535 270.572 34.4342 269.79 34.062C267.114 32.7879 264.543 31.235 261.894 29.8956C259.017 28.4196 256.089 27.0566 253.107 25.8064C250.126 24.5562 247.101 23.4226 244.033 22.4056C217.521 13.6851 188.884 11.6913 161.677 18.4292Z" fill="#B9A694"/>
<path d="M305.222 83.4609C304.775 83.5935 304.334 83.7286 303.861 83.6475C302.371 83.3917 301.989 79.3782 301.507 78.0907C301.028 76.8101 300.354 75.5511 299.478 74.4972C298.247 73.0154 296.7 71.6701 295.005 70.7481C293.325 69.8341 289.516 69.3633 288.554 67.7869C288.335 67.4277 288.298 67.0704 288.45 66.6715C289.092 64.9935 292.725 64.5124 294.239 63.8483C295.683 63.2146 297.04 62.4157 298.231 61.3773C299.497 60.2735 300.46 58.9741 301.173 57.4554C301.985 55.7269 302.268 52.6044 304.012 51.6303C304.351 51.6247 304.812 51.5786 305.123 51.7297C306.304 52.3038 306.827 55.5926 307.299 56.8119C307.644 57.7018 308.071 58.5201 308.635 59.2926C310.504 61.8503 313.539 63.7458 316.46 64.869C317.62 65.3152 318.925 65.6327 319.998 66.268C320.295 66.4432 320.824 66.8034 320.881 67.1622C320.959 67.664 320.775 68.1163 320.399 68.4461C319.443 69.2845 317.093 69.6129 315.863 70.1008C314.703 70.5615 313.56 71.1344 312.521 71.8292C309.185 74.0613 307.499 76.6552 306.354 80.4561C306.048 81.4738 305.848 82.5867 305.222 83.4609ZM304.438 58.5637C301.602 63.268 299.332 65.1015 294.341 67.3569C299.446 69.1881 301.751 71.298 304.379 76.0332C306.689 71.9957 309.576 68.878 314.14 67.4775C310.825 65.8735 308.165 64.4228 306.059 61.2939C305.472 60.4213 305.046 59.4009 304.438 58.5637Z" fill="#B9A694"/>
<path d="M172.62 51.6038C174.469 49.9727 176.048 47.9905 177.721 46.1797C179.817 43.9113 181.994 41.718 184.101 39.46C185.864 37.5706 187.574 35.4645 189.768 34.062C191.377 33.0333 193.099 32.4943 194.971 32.1962C195.976 32.0831 197.053 32.0523 198.061 32.1684C199.707 32.3582 201.589 32.977 202.965 33.8975C205.648 35.6928 207.913 38.591 210.127 40.9398C213.411 44.4241 216.919 47.9491 219.869 51.7167C221.604 51.7399 228.505 51.2495 229.543 52.2129C229.888 52.5324 230.051 52.9142 230.119 53.372C230.302 54.5999 230.117 55.9782 230.1 57.2252C230.09 59.4043 230.092 61.5833 230.105 63.7622C233.14 63.7742 248.487 63.4816 249.868 64.0674C250.499 64.7803 250.614 65.6283 250.637 66.5595C250.69 68.7418 250.625 70.9367 250.634 73.121C250.682 84.4705 249.479 91.9227 241.354 100.497C236.137 106.002 229.224 108.907 221.686 109.118C216.292 114.456 211.578 117.712 204.132 119.623C204.179 125.192 204.127 130.761 203.974 136.328C206.896 137.212 209.62 138.332 212.235 139.922C217.736 143.265 222.756 149.349 224.31 155.693C226.322 155.797 230.261 155.357 231.931 155.896C232.428 156.056 232.866 156.385 233.102 156.859C233.611 157.882 233.505 168.692 233.05 169.909C232.538 170.347 231.507 170.404 230.845 170.452C227.308 170.709 223.584 170.52 220.027 170.53L197.92 170.535L169.716 170.446C167.345 170.424 161.982 170.821 160.045 170.162C159.479 169.554 159.31 169.032 159.238 168.205C159.131 166.973 159.28 165.65 159.276 164.406C159.27 162.289 159.003 159.923 159.287 157.841C159.354 157.351 159.494 156.863 159.846 156.498C161.02 155.28 165.804 155.841 167.477 155.859C167.615 155.426 167.776 155.002 167.961 154.588C172.352 144.65 178.697 140.254 188.548 136.436C188.624 130.851 188.628 125.266 188.56 119.68C188.133 119.589 187.707 119.489 187.284 119.38C186.861 119.271 186.44 119.153 186.021 119.027C185.603 118.901 185.187 118.767 184.774 118.624C184.361 118.481 183.951 118.329 183.544 118.17C183.138 118.01 182.734 117.842 182.334 117.666C181.934 117.49 181.538 117.306 181.145 117.114C180.752 116.922 180.364 116.722 179.98 116.514C179.595 116.306 179.215 116.09 178.839 115.867C178.464 115.643 178.093 115.412 177.726 115.174C177.36 114.935 176.999 114.689 176.643 114.436C176.286 114.183 175.935 113.922 175.59 113.655C175.244 113.387 174.904 113.113 174.569 112.832C174.235 112.55 173.906 112.262 173.583 111.968C173.26 111.673 172.944 111.372 172.633 111.064C172.322 110.757 172.018 110.443 171.72 110.123C171.422 109.803 171.131 109.477 170.847 109.145C164.429 109.044 157.5 106.749 152.626 102.509C146.45 97.1361 142.632 90.185 142.047 81.9726C141.803 78.5549 141.951 75.0987 141.948 71.6739C141.947 69.7027 141.714 67.5443 142.002 65.6076C142.098 64.9607 142.249 64.4754 142.68 63.9811C143.902 63.3257 159.662 63.6843 162.278 63.6885C162.284 61.9397 161.965 53.3823 162.579 52.5359C162.82 52.2039 163.179 52.0393 163.564 51.9427C165.38 51.4865 170.309 51.7813 172.62 51.6038ZM196.152 35.4416C194.369 35.6204 192.822 35.9961 191.292 36.9637C189.46 38.1231 187.813 40.2101 186.31 41.7778C183.235 44.986 180.127 48.2152 177.227 51.5844C183.909 51.7196 190.591 51.7593 197.274 51.7037L215.91 51.5977C213.316 49.0468 210.787 46.4327 208.324 43.7555C206.099 41.384 203.736 38.0966 200.92 36.4849C199.585 35.7206 197.882 35.4109 196.351 35.4335C196.285 35.4345 196.218 35.4387 196.152 35.4416ZM165.395 54.8201L165.44 75.2413C165.446 79.9205 165.091 84.7964 165.508 89.4481C166.155 96.6722 169.562 103.425 174.652 108.54C180.128 114.044 188.565 117.396 196.303 117.409C196.551 117.407 196.799 117.403 197.046 117.395C197.294 117.387 197.542 117.377 197.789 117.363C198.037 117.349 198.284 117.333 198.531 117.313C198.778 117.294 199.025 117.271 199.272 117.245C199.518 117.22 199.765 117.191 200.01 117.16C200.256 117.128 200.502 117.093 200.747 117.056C200.992 117.019 201.237 116.978 201.481 116.935C201.725 116.891 201.968 116.845 202.211 116.796C202.454 116.746 202.697 116.694 202.938 116.639C203.18 116.584 203.421 116.526 203.661 116.465C203.902 116.404 204.141 116.34 204.38 116.273C204.619 116.207 204.857 116.137 205.094 116.065C205.331 115.992 205.567 115.917 205.802 115.839C206.038 115.761 206.272 115.68 206.505 115.596C206.739 115.512 206.971 115.425 207.202 115.336C207.433 115.246 207.663 115.154 207.892 115.059C208.121 114.964 208.349 114.866 208.576 114.766C208.803 114.665 209.028 114.562 209.252 114.456C209.476 114.35 209.699 114.241 209.921 114.13C210.142 114.019 210.362 113.905 210.581 113.788C210.8 113.672 211.017 113.552 211.233 113.43C211.449 113.308 211.663 113.184 211.876 113.057C212.089 112.93 212.3 112.8 212.51 112.668C212.72 112.536 212.928 112.401 213.135 112.264C213.341 112.127 213.546 111.987 213.749 111.845C213.952 111.703 214.154 111.558 214.353 111.411C214.553 111.264 214.751 111.114 214.947 110.963C215.143 110.811 215.337 110.657 215.529 110.5C215.722 110.344 215.912 110.185 216.101 110.024C216.289 109.863 216.476 109.7 216.66 109.534C216.845 109.368 217.027 109.2 217.208 109.03C217.388 108.86 217.567 108.688 217.743 108.514C227.88 98.227 227.033 89.6176 226.997 76.283L226.944 54.8702C217.82 54.8084 208.697 54.8004 199.573 54.8463C188.189 54.8033 176.777 54.6581 165.395 54.8201ZM145.385 66.9736C144.872 67.6393 145.24 81.5633 145.428 82.9807C146.416 90.419 149.954 96.3822 155.909 100.919C159.298 103.502 163.511 104.979 167.705 105.585L167.828 105.379C166.146 102.563 164.66 99.9098 163.685 96.7485C162.028 91.3728 162.279 85.8432 162.303 80.2969C162.338 75.8406 162.352 71.3843 162.343 66.928C156.696 66.8689 151.029 66.8013 145.385 66.9736ZM230.224 67.0519C230.156 71.542 230.13 76.0323 230.145 80.5229C230.134 85.5442 230.318 90.4915 229.052 95.4009C228.755 96.5644 228.392 97.7067 227.963 98.828C227.533 99.9494 227.041 101.042 226.485 102.107C225.964 103.101 224.801 104.41 224.556 105.448C225.03 105.741 225.481 105.647 225.995 105.533C229.811 104.686 233.601 102.707 236.684 100.339C236.87 100.188 237.054 100.034 237.236 99.8781C237.418 99.722 237.598 99.5637 237.776 99.4032C237.955 99.2428 238.131 99.0801 238.305 98.915C238.479 98.7503 238.651 98.5833 238.821 98.4141C238.991 98.245 239.159 98.0737 239.324 97.9004C239.49 97.7271 239.654 97.5518 239.815 97.3744C239.977 97.197 240.136 97.0177 240.293 96.8364C240.45 96.6551 240.604 96.4719 240.757 96.2868C240.909 96.1016 241.059 95.9146 241.207 95.7258C241.355 95.537 241.5 95.3464 241.643 95.1539C241.786 94.9614 241.927 94.7672 242.065 94.5713C242.204 94.3754 242.339 94.1778 242.473 93.9787C242.606 93.7793 242.737 93.5784 242.865 93.376C242.994 93.1734 243.12 92.9693 243.243 92.7637C243.366 92.5581 243.487 92.3509 243.605 92.1423C243.724 91.9336 243.839 91.7236 243.953 91.5121C244.065 91.3005 244.176 91.0875 244.284 90.8733C244.392 90.659 244.497 90.4435 244.599 90.2267C244.701 90.0098 244.801 89.7918 244.898 89.5726C244.995 89.3532 245.09 89.1327 245.181 88.9111C245.273 88.6896 245.362 88.4668 245.448 88.2428C245.534 88.0191 245.617 87.7943 245.698 87.5684C245.778 87.3425 245.856 87.1157 245.931 86.8879C246.006 86.66 246.078 86.4312 246.147 86.2015C246.216 85.9719 246.283 85.7415 246.346 85.5102C246.41 85.279 246.471 85.0469 246.528 84.8141C246.586 84.5814 246.641 84.3479 246.693 84.1139C246.745 83.8798 246.794 83.6451 246.84 83.4097C246.887 83.1743 246.93 82.9384 246.97 82.702C247.011 82.4655 247.048 82.2286 247.083 81.9913C247.117 81.754 247.149 81.5163 247.178 81.2781C247.206 81.0402 247.232 80.8018 247.254 80.563C247.679 76.1381 247.411 71.4812 247.416 67.0279C241.696 66.9804 235.943 66.9319 230.224 67.0519ZM191.854 120.222L191.868 135.738C193.365 135.549 194.874 135.332 196.386 135.351C197.831 135.369 199.272 135.585 200.71 135.603C200.868 130.51 200.879 125.377 200.837 120.281C197.861 120.507 194.818 120.674 191.854 120.222ZM195.37 138.745C187.564 139.375 180.415 142.724 175.317 148.758C173.592 150.8 171.977 153.267 170.985 155.754L196.345 155.776C204.413 155.776 212.561 156.002 220.621 155.691C218.423 149.326 214.227 144.37 208.156 141.385C204.338 139.508 199.644 138.325 195.37 138.745ZM162.762 159.09C162.478 161.752 162.673 164.545 162.747 167.219C185.083 166.895 207.454 167.174 229.796 167.125C230.38 166.217 230.036 160.577 230.029 159.149C218.249 159.053 206.468 159.029 194.687 159.077C184.046 159.082 173.402 158.978 162.762 159.09Z" fill="#B9A694"/>
<path d="M191.208 75.7201C191.746 73.6121 192.48 71.561 193.13 69.4857C193.595 68.0023 193.985 66.4792 194.512 65.0172C194.837 64.1165 195.057 63.7269 195.942 63.3118C196.121 63.3373 196.379 63.357 196.551 63.4317C197.868 64.004 200.733 73.8403 201.448 75.7818C204.059 75.8481 213.15 75.3085 214.887 76.3828C215.12 76.7537 215.207 76.8539 215.139 77.3117C215.052 77.893 214.437 78.5273 214.025 78.9008C213.016 79.8135 211.71 80.5047 210.575 81.258C208.575 82.5862 206.606 83.9657 204.623 85.3198C205.458 87.354 209.512 97.1567 209.009 98.6081C208.851 99.0646 208.747 99.0885 208.339 99.2832C207.643 99.2893 207.13 99.1215 206.514 98.7972C205.092 98.0497 203.765 96.9033 202.464 95.9456C200.488 94.4904 198.521 93.0944 196.454 91.7691C195.125 91.4119 187.469 99.3876 184.637 99.2043C184.289 99.0112 184.092 98.8493 183.909 98.4988C183.743 98.1813 183.71 97.9152 183.768 97.5612C183.974 96.298 184.608 94.9899 185.029 93.7743L187.904 85.4271C185.785 83.7485 183.356 82.2473 181.093 80.7653C180.038 80.0737 178.891 79.4294 177.934 78.6085C177.568 78.2946 177.188 77.9457 177.122 77.4397C177.07 77.0372 177.236 76.6551 177.516 76.3709C177.758 76.1252 178.042 75.9661 178.377 75.8966C179.88 75.5849 181.716 75.7631 183.262 75.7618C185.91 75.7637 188.559 75.7498 191.208 75.7201ZM196.073 70.7172C195.597 72.4391 194.565 77.6838 193.167 78.559C192.012 79.2823 185.659 78.8613 183.995 78.873C185.625 79.9981 191.068 82.8636 191.335 84.5852C191.612 86.365 189.518 90.999 188.906 92.9172C190.4 91.7488 194.594 88.0016 196.551 88.0501C196.748 88.0549 196.931 88.1122 197.111 88.1872C199.412 89.6414 202.119 91.375 204.027 93.3129C203.384 91.494 200.758 85.6676 201.479 84.0624C202.215 82.4229 206.776 80.0123 208.409 78.85C206.492 78.8604 200.238 79.3256 199.058 78.2348C197.967 77.2267 197.146 72.346 196.073 70.7172Z" fill="#B9A694"/>
<path d="M68.3748 145.499C65.1912 144.17 61.8097 141.784 59.2033 139.551C58.967 139.347 58.7332 139.14 58.502 138.931C58.2708 138.721 58.0421 138.509 57.8161 138.294C57.5901 138.079 57.3668 137.861 57.1461 137.64C56.9255 137.419 56.7075 137.196 56.4924 136.97C56.2772 136.744 56.0648 136.515 55.8553 136.284C55.6457 136.053 55.439 135.819 55.2352 135.583C55.0314 135.346 54.8305 135.107 54.6326 134.866C54.4347 134.625 54.2397 134.381 54.0478 134.135C53.8558 133.889 53.6669 133.641 53.4811 133.39C53.2952 133.139 53.1125 132.886 52.9329 132.631C52.7532 132.376 52.5767 132.119 52.4034 131.859C52.2301 131.6 52.0601 131.338 51.8932 131.074C51.7263 130.811 51.5627 130.545 51.4023 130.277C51.242 130.009 51.085 129.74 50.9312 129.468C50.7775 129.196 50.6271 128.923 50.4801 128.648C50.3331 128.372 50.1895 128.095 50.0494 127.816C49.9092 127.538 49.7724 127.257 49.6391 126.975C49.5058 126.693 49.376 126.409 49.2497 126.123C49.1234 125.838 49.0006 125.551 48.8813 125.263C48.762 124.974 48.6463 124.684 48.5342 124.393C48.422 124.102 48.3135 123.809 48.2085 123.515C48.1035 123.222 48.0022 122.926 47.9045 122.63C47.8068 122.334 47.7128 122.036 47.6223 121.737C47.5319 121.439 47.4452 121.139 47.3622 120.838C47.2792 120.537 47.1999 120.235 47.1243 119.932C47.0487 119.629 46.9768 119.326 46.9086 119.021C46.8405 118.717 46.7761 118.411 46.7154 118.105C46.6548 117.799 46.598 117.492 46.5448 117.184C46.4917 116.877 46.4424 116.569 46.3969 116.26C46.3514 115.951 46.3096 115.642 46.2717 115.332C46.2338 115.022 46.1997 114.712 46.1694 114.401C46.1391 114.091 46.1126 113.78 46.0899 113.468C46.0685 113.158 46.0509 112.847 46.0371 112.537C46.0233 112.226 46.0134 111.915 46.0073 111.603C46.0012 111.292 45.9989 110.981 46.0005 110.67C46.0021 110.359 46.0075 110.048 46.0167 109.737C46.026 109.426 46.039 109.115 46.0559 108.804C46.0729 108.493 46.0936 108.183 46.1182 107.873C46.1427 107.563 46.1711 107.253 46.2034 106.943C46.2356 106.634 46.2716 106.325 46.3114 106.016C46.3513 105.708 46.395 105.4 46.4424 105.092C46.4898 104.784 46.5411 104.478 46.5961 104.171C46.6511 103.865 46.7099 103.559 46.7724 103.255C46.835 102.95 46.9013 102.646 46.9713 102.343C47.0414 102.04 47.1152 101.737 47.1927 101.436C47.2701 101.135 47.3514 100.834 47.4363 100.535C47.5212 100.236 47.6098 99.9374 47.7021 99.6404C47.7944 99.3432 47.8903 99.0471 47.9899 98.7523C48.0894 98.4576 48.1926 98.1642 48.2995 97.8719C48.4063 97.5796 48.5167 97.2888 48.6307 96.9993C48.7447 96.7098 48.8622 96.4218 48.9833 96.1351C49.1044 95.8484 49.229 95.5634 49.3572 95.2799C49.4853 94.9963 49.6169 94.7144 49.752 94.4342C49.8871 94.1537 50.0256 93.8752 50.1676 93.5984C50.3096 93.3214 50.4549 93.0464 50.6037 92.7733C50.7524 92.5 50.9045 92.2285 51.06 91.9589C51.2154 91.6895 51.3741 91.422 51.5362 91.1565C51.6982 90.8907 51.8635 90.6271 52.0321 90.3656C52.2006 90.1042 52.3724 89.8448 52.5473 89.5874C52.7223 89.3303 52.9003 89.0752 53.0816 88.8222C53.2628 88.5693 53.4472 88.3188 53.6346 88.0705C53.822 87.8222 54.0125 87.5762 54.206 87.3327C54.3994 87.0889 54.5959 86.8476 54.7954 86.6088C54.9948 86.3702 55.1971 86.1339 55.4024 85.9001C55.6117 85.6563 55.824 85.4152 56.0393 85.1768C56.2546 84.9385 56.4728 84.7028 56.6939 84.4698C56.9151 84.2368 57.1391 84.0066 57.3659 83.7792C57.5928 83.5518 57.8224 83.3272 58.0549 83.1054C58.2873 82.8836 58.5224 82.6648 58.7603 82.4491C58.9982 82.2331 59.2387 82.0202 59.4819 81.8102C59.725 81.6005 59.9707 81.3937 60.219 81.1898C60.4673 80.9861 60.718 80.7854 60.9713 80.5878C61.2246 80.3901 61.4803 80.1957 61.7384 80.0045C61.9965 79.8134 62.2569 79.6254 62.5197 79.4407C62.7824 79.256 63.0474 79.0745 63.3145 78.8962C63.5819 78.7182 63.8514 78.5434 64.1231 78.3718C64.3946 78.2005 64.6682 78.0325 64.944 77.8678C65.2198 77.7031 65.4976 77.5419 65.7775 77.3841C66.0571 77.2264 66.3388 77.0721 66.6226 76.9215C66.9061 76.7706 67.1916 76.6234 67.479 76.4798C67.7662 76.3361 68.0551 76.196 68.3458 76.0595C68.6366 75.9231 68.9291 75.7902 69.2232 75.6609C69.5171 75.5318 69.8127 75.4062 70.11 75.2842C70.4071 75.1625 70.7057 75.0443 71.0058 74.9299C71.306 74.8154 71.6074 74.7048 71.9101 74.5978C72.213 74.4907 72.5171 74.3875 72.8224 74.2881C73.1279 74.1888 73.4345 74.0932 73.7422 74.0013C74.0501 73.9095 74.359 73.8216 74.669 73.7375C74.9789 73.6535 75.2898 73.5732 75.6017 73.4967C75.9137 73.4204 76.2265 73.3479 76.5402 73.2794C76.8542 73.2106 77.1687 73.1459 77.4839 73.0851C77.7993 73.0243 78.1154 72.9675 78.4321 72.9147C78.7488 72.8617 79.0662 72.8126 79.3842 72.7676C79.7022 72.7225 80.0208 72.6815 80.3398 72.6444C80.6589 72.6073 80.9783 72.5741 81.2981 72.5448C81.618 72.5157 81.9382 72.4905 82.2585 72.4692C86.1632 72.0831 90.2581 72.6412 94.039 73.6021C94.3475 73.6803 94.6551 73.7623 94.9617 73.8481C95.2682 73.9339 95.5738 74.0235 95.8782 74.1171C96.1826 74.2104 96.4859 74.3075 96.7879 74.4084C97.0898 74.5093 97.3904 74.6138 97.6899 74.722C97.9894 74.8302 98.2875 74.9422 98.5842 75.0579C98.8806 75.1734 99.1758 75.2926 99.4697 75.4155C99.7633 75.5384 100.055 75.6649 100.346 75.7951C100.637 75.9252 100.926 76.0589 101.213 76.196C101.5 76.3333 101.786 76.474 102.07 76.6182C102.353 76.7626 102.635 76.9104 102.916 77.0615C103.196 77.2128 103.474 77.3674 103.75 77.5254C104.027 77.6836 104.301 77.8452 104.574 78.0101C104.846 78.1749 105.117 78.3431 105.385 78.5144C105.653 78.686 105.919 78.8609 106.183 79.0391C106.447 79.2172 106.709 79.3985 106.968 79.583C107.228 79.7675 107.485 79.9552 107.739 80.1462C107.994 80.3371 108.247 80.5311 108.497 80.7281C108.747 80.9253 108.995 81.1255 109.24 81.3285C109.485 81.5318 109.727 81.738 109.967 81.9473C110.208 82.1566 110.445 82.3687 110.68 82.5836C110.915 82.7987 111.147 83.0167 111.376 83.2376C111.606 83.4584 111.832 83.6819 112.056 83.9082C112.28 84.1347 112.501 84.3638 112.72 84.5955C112.938 84.8275 113.154 85.062 113.366 85.2991C113.578 85.5362 113.788 85.7759 113.995 86.0184C114.201 86.2607 114.405 86.5054 114.605 86.7527C114.806 87.0001 115.003 87.2499 115.198 87.5021C115.392 87.7543 115.584 88.0088 115.772 88.2657C115.96 88.5227 116.145 88.782 116.327 89.0436C116.508 89.3051 116.687 89.5687 116.862 89.8344C117.037 90.1004 117.21 90.3684 117.378 90.6385C117.547 90.9088 117.712 91.181 117.874 91.4552C122.753 99.7503 124.218 110.49 121.757 119.784C119.654 127.725 115.112 135.202 108.576 140.266C105.92 142.324 103.012 143.964 100.109 145.638C100.146 152.458 100.128 159.278 100.055 166.098C100.045 169.555 100.234 173.09 100.025 176.535C99.9955 177.021 99.9806 177.661 99.6975 178.077C99.4529 178.435 99.1077 178.578 98.6882 178.621C98.2442 178.667 97.7397 178.569 97.3739 178.319C95.9903 177.372 94.7855 175.877 93.5878 174.702L85.659 166.965L84.3944 165.613C81.7844 168.345 78.8548 170.78 76.0745 173.335C74.2641 174.998 72.3916 177.122 70.355 178.488C69.8143 178.496 69.3676 178.407 68.9714 178.003C68.5759 177.601 68.5219 177.09 68.4721 176.554C68.1632 173.224 68.4085 169.658 68.4078 166.311L68.3748 145.499ZM84.196 75.5477C73.9545 76.1607 64.7016 80.2037 57.8355 87.9799C51.9214 94.6779 48.8416 104.372 49.4595 113.237C49.4792 113.521 49.5024 113.806 49.5291 114.089C49.5558 114.373 49.586 114.656 49.6197 114.939C49.6534 115.222 49.6906 115.505 49.7312 115.787C49.7719 116.069 49.816 116.351 49.8636 116.632C49.9112 116.913 49.9623 117.193 50.0168 117.473C50.0713 117.753 50.1293 118.032 50.1907 118.31C50.2521 118.588 50.317 118.866 50.3852 119.143C50.4534 119.419 50.5251 119.695 50.6002 119.97C50.6752 120.245 50.7537 120.519 50.8355 120.792C50.9173 121.065 51.0024 121.337 51.091 121.608C51.1795 121.879 51.2714 122.149 51.3665 122.418C51.4617 122.686 51.5602 122.953 51.662 123.22C51.7637 123.486 51.8688 123.751 51.9771 124.014C52.0854 124.278 52.197 124.54 52.3117 124.801C52.4265 125.062 52.5445 125.322 52.6657 125.58C52.7869 125.838 52.9112 126.094 53.0387 126.349C53.1662 126.604 53.2968 126.857 53.4306 127.108C53.5643 127.36 53.7012 127.61 53.8411 127.859C53.981 128.107 54.124 128.353 54.27 128.598C54.416 128.843 54.565 129.086 54.717 129.327C54.869 129.568 55.0239 129.807 55.1818 130.044C55.3397 130.281 55.5005 130.517 55.6642 130.75C55.8279 130.983 55.9944 131.215 56.1638 131.444C56.3332 131.673 56.5054 131.9 56.6804 132.125C56.8554 132.35 57.0332 132.572 57.2137 132.793C57.3942 133.013 57.5774 133.232 57.7632 133.448C57.9491 133.664 58.1376 133.877 58.3288 134.089C58.5199 134.3 58.7137 134.509 58.91 134.716C59.1063 134.922 59.3051 135.126 59.5064 135.328C59.7078 135.53 59.9116 135.729 60.1178 135.925C60.3241 136.122 60.5327 136.316 60.7438 136.508C60.9548 136.699 61.1682 136.888 61.3839 137.074C67.9893 142.774 76.4304 145.623 85.1006 145.611C95.1213 145.008 103.985 141.337 110.751 133.713C110.944 133.5 111.134 133.284 111.321 133.066C111.508 132.848 111.692 132.628 111.873 132.405C112.055 132.183 112.234 131.958 112.409 131.731C112.585 131.504 112.758 131.274 112.928 131.043C113.099 130.812 113.266 130.578 113.43 130.342C113.594 130.107 113.756 129.87 113.914 129.63C114.072 129.39 114.228 129.149 114.38 128.905C114.532 128.662 114.682 128.416 114.828 128.169C114.974 127.922 115.117 127.673 115.257 127.422C115.397 127.171 115.534 126.919 115.668 126.665C115.801 126.41 115.932 126.155 116.059 125.897C116.186 125.64 116.31 125.381 116.431 125.12C116.552 124.859 116.669 124.597 116.784 124.334C116.898 124.07 117.009 123.805 117.116 123.539C117.224 123.273 117.328 123.005 117.429 122.736C117.53 122.467 117.628 122.197 117.722 121.926C117.816 121.654 117.907 121.382 117.994 121.108C118.082 120.835 118.166 120.56 118.246 120.284C118.327 120.009 118.404 119.732 118.477 119.454C118.551 119.177 118.621 118.898 118.687 118.619C118.754 118.339 118.817 118.059 118.877 117.778C118.936 117.497 118.992 117.215 119.045 116.933C119.097 116.651 119.146 116.368 119.192 116.084C119.238 115.8 119.28 115.516 119.318 115.232C119.356 114.947 119.391 114.662 119.422 114.376C119.454 114.091 119.481 113.805 119.505 113.519C119.529 113.233 119.55 112.946 119.567 112.659C119.584 112.372 119.597 112.086 119.607 111.798C119.617 111.511 119.623 111.224 119.626 110.937C119.628 110.65 119.627 110.363 119.622 110.075C119.618 109.788 119.61 109.501 119.598 109.214C119.586 108.927 119.571 108.64 119.552 108.354C118.952 99.3598 114.686 90.3194 107.866 84.3964C107.459 84.0459 107.044 83.7046 106.621 83.3725C106.198 83.0403 105.768 82.7175 105.331 82.4041C104.894 82.091 104.451 81.7875 104 81.4937C103.55 81.2001 103.093 80.9165 102.631 80.6428C102.168 80.3692 101.699 80.106 101.225 79.8529C100.75 79.6001 100.271 79.3577 99.7854 79.1258C99.3004 78.8941 98.8106 78.6731 98.3159 78.4627C97.821 78.2525 97.3218 78.0533 96.8183 77.8649C96.3148 77.6767 95.8073 77.4997 95.2958 77.3337C94.7846 77.1679 94.2698 77.0134 93.7517 76.8701C93.2335 76.7269 92.7125 76.5952 92.1885 76.475C91.6645 76.3547 91.1382 76.2461 90.6094 76.1491C90.0807 76.0519 89.5501 75.9664 89.0175 75.8927C88.4851 75.819 87.9512 75.7571 87.4158 75.7071C86.8806 75.6569 86.3446 75.6185 85.8077 75.592C85.2708 75.5653 84.7335 75.5505 84.196 75.5477ZM71.7792 146.878L71.8164 172.611C73.8485 170.654 82.6108 161.896 84.9244 161.995C86.0064 162.041 91.3569 167.753 92.4803 168.799L96.7446 172.889C96.7175 164.254 96.6516 155.581 96.8345 146.949C88.564 149.286 80.0024 149.73 71.7792 146.878Z" fill="#B9A694"/>
<path d="M87.6317 136.371C87.2064 136.418 86.7802 136.455 86.3529 136.482C85.9257 136.508 85.4981 136.525 85.0702 136.531C84.6421 136.537 84.2142 136.532 83.7866 136.518C83.3587 136.503 82.9315 136.478 82.5052 136.442C82.0786 136.407 81.6531 136.361 81.2286 136.305C80.8044 136.249 80.3817 136.183 79.9605 136.106C79.5395 136.029 79.1204 135.943 78.7033 135.846C78.2864 135.749 77.8721 135.642 77.4604 135.525C77.0486 135.408 76.64 135.281 76.2346 135.144C75.8289 135.008 75.4268 134.861 75.0285 134.705C74.6299 134.549 74.2354 134.383 73.845 134.207C73.4544 134.032 73.0683 133.847 72.6867 133.653C72.3054 133.459 71.9289 133.256 71.5572 133.043C71.1853 132.831 70.819 132.61 70.4581 132.38C70.0972 132.15 69.742 131.911 69.3926 131.663C69.0431 131.416 68.6999 131.161 68.3629 130.897C68.1949 130.767 68.0286 130.635 67.8639 130.502C67.6991 130.368 67.536 130.232 67.3747 130.095C67.2133 129.957 67.0536 129.817 66.8957 129.676C66.7376 129.534 66.5813 129.391 66.4268 129.245C66.2725 129.1 66.1199 128.953 65.9688 128.803C65.818 128.654 65.669 128.503 65.5219 128.351C65.3749 128.197 65.2297 128.043 65.0862 127.887C64.943 127.73 64.8016 127.572 64.6622 127.412C64.5228 127.252 64.3854 127.091 64.2499 126.927C64.1143 126.764 63.9809 126.599 63.8494 126.433C63.718 126.266 63.5886 126.098 63.4613 125.928C63.334 125.758 63.2088 125.587 63.0858 125.415C62.9626 125.242 62.8416 125.067 62.7228 124.891C62.604 124.716 62.4873 124.539 62.3728 124.36C62.2584 124.181 62.1461 124.001 62.0361 123.82C61.926 123.638 61.8182 123.456 61.7127 123.272C61.6071 123.088 61.5038 122.902 61.4028 122.716C61.3018 122.529 61.2031 122.341 61.1067 122.152C61.0103 121.963 60.9162 121.773 60.8245 121.582C60.7327 121.391 60.6434 121.198 60.5564 121.005C60.4693 120.811 60.3847 120.617 60.3025 120.421C60.2203 120.225 60.1404 120.029 60.063 119.831C59.9856 119.634 59.9107 119.435 59.8381 119.236C59.7656 119.036 59.6955 118.836 59.6279 118.635C59.5603 118.434 59.4952 118.232 59.4325 118.029C59.3698 117.827 59.3097 117.623 59.252 117.419C59.1944 117.215 59.1392 117.01 59.0866 116.804C59.0339 116.599 58.9838 116.392 58.9363 116.186C58.8887 115.979 58.8437 115.772 58.8012 115.564C58.7587 115.356 58.7188 115.148 58.6814 114.939C58.6441 114.73 58.6093 114.52 58.5771 114.31C58.5449 114.101 58.5152 113.891 58.4882 113.68C58.4615 113.468 58.4375 113.256 58.4161 113.043C58.3947 112.83 58.3759 112.617 58.3598 112.404C58.3436 112.191 58.3301 111.977 58.3192 111.764C58.3083 111.55 58.3 111.337 58.2943 111.123C58.2886 110.909 58.2856 110.695 58.2852 110.482C58.2848 110.268 58.287 110.054 58.2919 109.84C58.2967 109.626 58.3042 109.413 58.3143 109.199C58.3245 108.985 58.3372 108.772 58.3525 108.559C58.3679 108.345 58.3859 108.132 58.4065 107.92C58.4271 107.707 58.4503 107.494 58.4761 107.282C58.5019 107.07 58.5304 106.858 58.5614 106.646C58.5924 106.434 58.6261 106.223 58.6623 106.013C58.6985 105.802 58.7373 105.592 58.7787 105.382C58.8201 105.172 58.8641 104.963 58.9106 104.754C58.9572 104.545 59.0063 104.337 59.0579 104.13C59.1096 103.922 59.1638 103.716 59.2206 103.509C59.2773 103.303 59.3366 103.098 59.3984 102.893C59.4602 102.688 59.5245 102.484 59.5913 102.281C59.6581 102.078 59.7274 101.876 59.7992 101.675C59.871 101.473 59.9453 101.273 60.022 101.073C60.0987 100.874 60.1779 100.675 60.2595 100.477C60.3411 100.28 60.4251 100.083 60.5115 99.8877C60.598 99.692 60.6868 99.4974 60.778 99.3041C60.8692 99.1108 60.9628 98.9185 61.0588 98.7273C61.1547 98.5363 61.253 98.3464 61.3536 98.1576C61.4542 97.969 61.5571 97.7817 61.6624 97.5957C61.7676 97.4095 61.8751 97.2247 61.9848 97.0412C62.0946 96.8578 62.2066 96.6757 62.3209 96.4949C62.4351 96.3142 62.5516 96.1349 62.6702 95.9569C62.7889 95.779 62.9097 95.6027 63.0327 95.4279C63.1558 95.2531 63.2809 95.0797 63.408 94.9077C63.5353 94.7359 63.6647 94.5658 63.7961 94.3972C68.2666 88.7432 74.4936 85.4057 81.6329 84.5864C87.9989 83.7662 94.7061 85.6928 99.8675 89.4157C100.041 89.539 100.212 89.6645 100.382 89.7923C100.552 89.9199 100.721 90.0496 100.887 90.1813C101.054 90.313 101.219 90.4468 101.383 90.5828C101.546 90.7186 101.708 90.8564 101.868 90.9963C102.029 91.136 102.187 91.2777 102.344 91.4215C102.5 91.5652 102.655 91.7109 102.808 91.8586C102.961 92.0062 103.112 92.1556 103.262 92.3067C103.411 92.458 103.559 92.6112 103.704 92.7661C103.85 92.9211 103.993 93.0778 104.135 93.2362C104.277 93.3946 104.417 93.5549 104.555 93.717C104.692 93.8789 104.828 94.0423 104.962 94.2074C105.096 94.3728 105.227 94.5397 105.357 94.7082C105.486 94.8768 105.614 95.0469 105.739 95.2184C105.865 95.3902 105.988 95.5634 106.109 95.738C106.231 95.9128 106.35 96.089 106.466 96.2666C106.583 96.4442 106.698 96.6232 106.81 96.8036C106.923 96.984 107.033 97.1658 107.141 97.349C107.249 97.5322 107.355 97.7167 107.458 97.9025C107.561 98.0883 107.663 98.2753 107.761 98.4635C107.86 98.6519 107.957 98.8413 108.051 99.0319C108.145 99.2226 108.237 99.4144 108.326 99.6073C108.415 99.8003 108.503 99.9942 108.587 100.189C108.672 100.384 108.754 100.58 108.834 100.777C108.913 100.975 108.991 101.173 109.066 101.372C109.141 101.571 109.213 101.771 109.283 101.971C109.353 102.172 109.421 102.374 109.486 102.576C109.551 102.779 109.613 102.982 109.673 103.186C109.733 103.39 109.791 103.594 109.846 103.8C109.901 104.005 109.953 104.211 110.003 104.418C110.053 104.625 110.1 104.832 110.145 105.04C110.19 105.248 110.232 105.456 110.272 105.665C110.312 105.874 110.349 106.083 110.383 106.293C110.417 106.502 110.449 106.711 110.477 106.92C110.506 107.13 110.533 107.34 110.557 107.55C110.58 107.76 110.601 107.97 110.62 108.181C110.638 108.392 110.655 108.603 110.668 108.814C110.681 109.025 110.692 109.236 110.7 109.447C110.709 109.658 110.714 109.87 110.717 110.081C110.72 110.293 110.721 110.504 110.719 110.716C110.716 110.927 110.711 111.138 110.704 111.35C110.697 111.561 110.687 111.772 110.674 111.984C110.661 112.195 110.646 112.406 110.628 112.616C110.611 112.827 110.59 113.038 110.567 113.248C110.544 113.458 110.519 113.668 110.491 113.878C110.463 114.087 110.432 114.296 110.399 114.505C110.365 114.714 110.33 114.922 110.291 115.13C110.253 115.338 110.212 115.546 110.168 115.753C110.125 115.96 110.079 116.166 110.03 116.372C109.982 116.578 109.931 116.783 109.877 116.987C109.823 117.192 109.767 117.396 109.709 117.599C109.65 117.802 109.589 118.005 109.525 118.206C109.462 118.408 109.396 118.609 109.327 118.809C109.259 119.009 109.188 119.208 109.114 119.406C109.041 119.605 108.965 119.802 108.886 119.998C108.808 120.195 108.728 120.391 108.644 120.585C108.561 120.779 108.476 120.973 108.388 121.165C108.3 121.357 108.21 121.549 108.117 121.739C108.025 121.929 107.93 122.118 107.833 122.306C107.736 122.493 107.636 122.68 107.534 122.865C107.432 123.051 107.328 123.235 107.222 123.417C107.116 123.6 107.007 123.782 106.896 123.962C106.786 124.142 106.673 124.321 106.557 124.498C106.442 124.675 106.325 124.851 106.205 125.026C106.086 125.2 105.964 125.373 105.84 125.545C101.399 131.636 95.0341 135.227 87.6317 136.371ZM82.2967 87.8192C75.9136 88.5431 70.4678 91.3568 66.442 96.4024C66.2129 96.6949 65.9912 96.9929 65.7769 97.2963C65.5625 97.5998 65.3557 97.9084 65.1564 98.222C64.9571 98.5354 64.7655 98.8535 64.5818 99.1764C64.398 99.4995 64.2223 99.8268 64.0547 100.158C63.8868 100.49 63.7272 100.825 63.5757 101.164C63.4242 101.504 63.2812 101.846 63.1465 102.193C63.012 102.539 62.8859 102.888 62.7683 103.241C62.6507 103.593 62.5418 103.948 62.4415 104.306C62.3413 104.664 62.2498 105.024 62.1671 105.386C62.0844 105.748 62.0107 106.113 61.9458 106.478C61.8809 106.844 61.825 107.211 61.778 107.58C61.7311 107.949 61.6931 108.318 61.6642 108.688C61.6353 109.059 61.6154 109.43 61.6046 109.801C61.5939 110.173 61.5921 110.544 61.5995 110.916C61.6068 111.287 61.6232 111.658 61.6487 112.029C61.6742 112.4 61.7087 112.769 61.7522 113.138C62.4413 118.99 65.687 124.588 70.2949 128.225C75.0062 131.943 81.09 133.543 87.0296 133.001C93.54 132.118 98.9339 129.078 102.924 123.816C106.599 118.97 107.935 113.344 107.102 107.334C106.277 101.385 103.313 96.0949 98.4685 92.5049C93.9334 89.1438 87.9811 87.0694 82.2967 87.8192Z" fill="#B9A694"/>
<path d="M78.6951 100.409C78.8021 99.1695 78.5839 97.8481 78.8709 96.6338C79.1036 95.648 79.4724 95.2406 80.3285 94.7308C82.3939 94.6483 89.3968 94.0657 90.6759 95.562C91.6096 96.6535 91.3527 99.2545 91.364 100.649C92.0132 101.275 92.7915 101.803 93.5079 102.351C94.4267 101.87 96.2595 100.702 97.325 101.07C97.8883 101.264 98.3753 101.963 98.6762 102.44C99.5051 103.755 101.605 109.921 101.045 111.309C100.519 112.614 97.9545 113.251 96.7782 113.907L96.5833 114.017C96.2517 114.679 96.0064 115.393 95.7375 116.082C96.6156 117.089 97.771 118.639 97.77 120.017C97.7697 120.633 97.3802 121.082 96.9724 121.5C95.8649 122.634 90.7309 126.169 89.1745 126.097C88.318 126.057 87.8384 125.41 87.3259 124.811L85.9737 122.94C85.1545 122.925 84.3323 122.951 83.513 122.96C82.8075 123.707 81.3368 126.069 80.3666 126.225C78.6909 126.495 76.0066 124.38 74.7246 123.462C73.6607 122.7 71.8703 121.392 71.8108 119.962C71.7601 118.738 73.3132 117.122 74.0439 116.213L72.9668 113.428C71.3567 112.882 69.2234 112.42 68.1269 111.054C68.0225 110.602 68.0455 110.227 68.124 109.769C68.4116 108.086 70.5556 101.911 71.8101 101.126C73.1245 100.305 75.5635 101.535 76.9545 101.889L78.6951 100.409ZM81.9841 97.9707C81.9901 99.2092 82.0139 100.447 82.0555 101.685C80.5476 103.162 78.6722 105.342 76.3915 105.288C75.4068 105.265 74.3073 104.777 73.415 104.394C72.8391 106.03 72.1459 107.668 71.7271 109.35C73.2011 110.152 74.7498 110.897 76.0583 111.956C76.4345 113.494 76.8524 115.079 77.0951 116.644C76.6546 117.72 76.0548 118.667 75.4378 119.649C76.7192 120.698 78 121.716 79.4161 122.582C80.7512 121.162 81.9068 119.766 84.0065 119.664C84.9683 119.618 86.3202 119.608 87.2373 119.846C88.2628 120.587 89.1195 121.378 89.8735 122.402C91.3637 121.602 92.721 120.662 94.0554 119.626C93.3124 118.478 92.7026 117.341 92.2026 116.066C92.7662 114.408 93.3984 112.769 94.2008 111.21C95.3639 110.718 96.497 110.336 97.7251 110.038C97.3667 108.137 96.9501 106.248 96.3632 104.403C95.1969 104.869 94.0367 105.369 92.8157 105.675C91.2758 104.735 89.3461 103.311 88.1522 101.965L88.1387 97.8889C86.0884 97.8843 84.0311 97.8404 81.9841 97.9707Z" fill="#B9A694"/>
<path d="M85.7911 115.935C84.5763 116.014 83.5618 115.974 82.4517 115.417C81.296 114.837 80.3562 113.822 79.9529 112.584C79.5173 111.247 79.6727 109.706 80.3226 108.464C81.0776 107.021 82.3095 106.193 83.8346 105.732C84.84 105.69 85.7501 105.759 86.6844 106.166C87.959 106.722 88.9773 107.77 89.4252 109.094C89.8984 110.492 89.7536 112.159 89.0497 113.455C88.3255 114.79 87.2002 115.484 85.7911 115.935ZM83.9057 109.108C83.324 109.535 82.9161 109.848 82.7849 110.6C82.6928 111.127 82.783 111.65 83.111 112.081C83.398 112.458 83.9186 112.784 84.4001 112.79C84.6959 112.793 85.0035 112.734 85.2947 112.685C85.9498 112.232 86.495 111.767 86.5797 110.923C86.6278 110.443 86.44 109.997 86.1072 109.656C85.615 109.153 85.1648 109.065 84.4851 109.081C84.2919 109.087 84.0987 109.096 83.9057 109.108Z" fill="#B9A694"/>
<path d="M285.137 156.975L285.234 128.101C285.262 124.334 284.932 120.323 285.345 116.587C285.49 115.277 285.763 114.092 286.523 112.987C287.721 111.245 289.572 110.363 291.592 109.984C291.75 109.971 291.907 109.965 292.066 109.961C295.299 109.864 298.543 110.047 301.779 110.059L320.183 110.048L330.174 110.067C332.056 110.072 334.11 109.933 335.969 110.22C337.627 110.476 339.123 110.996 340.342 112.192C341.334 113.166 342.236 114.466 342.519 115.838C343.145 118.88 342.827 125.798 342.844 129.207L342.96 157.058C347.285 157.073 350.782 157.204 354.076 160.37C356.462 162.662 357.97 165.902 358 169.226C358.001 169.442 357.998 169.658 357.988 169.874C357.979 170.089 357.965 170.305 357.945 170.52C357.925 170.735 357.9 170.949 357.87 171.163C357.84 171.377 357.804 171.59 357.763 171.802C357.722 172.015 357.676 172.226 357.625 172.436C357.573 172.645 357.517 172.854 357.455 173.061C357.394 173.268 357.327 173.473 357.255 173.677C357.183 173.881 357.107 174.083 357.025 174.283C356.943 174.482 356.857 174.68 356.765 174.876C356.673 175.072 356.577 175.265 356.476 175.456C356.375 175.647 356.269 175.835 356.159 176.021C356.048 176.206 355.934 176.389 355.814 176.569C355.695 176.749 355.571 176.926 355.443 177.1C355.315 177.274 355.182 177.444 355.046 177.612C354.909 177.779 354.768 177.943 354.624 178.103C354.479 178.264 354.33 178.42 354.178 178.573C351.033 181.752 347.04 181.903 342.847 181.947L336.544 182L295.932 181.925L286.256 181.947C284.126 181.954 281.869 182.114 279.766 181.738C279.479 181.685 279.194 181.621 278.911 181.547C278.629 181.474 278.349 181.39 278.072 181.296C277.795 181.202 277.522 181.099 277.253 180.986C276.984 180.873 276.719 180.75 276.458 180.618C276.198 180.486 275.942 180.345 275.691 180.194C275.441 180.044 275.196 179.885 274.957 179.717C274.717 179.549 274.484 179.373 274.257 179.189C274.031 179.005 273.811 178.813 273.598 178.613C271.177 176.336 269.631 172.989 269.558 169.659C269.486 166.422 270.861 163.118 273.111 160.807C276.595 157.228 280.436 157.034 285.137 156.975ZM316.519 113.259C311.182 113.314 305.844 113.339 300.507 113.333C298.035 113.325 294.085 112.992 291.739 113.449C290.852 113.621 290.064 114.081 289.45 114.742C287.871 116.44 288.347 119.54 288.414 121.685C290.85 123.019 292.776 125.257 294.787 127.149C296.22 128.472 297.691 129.752 299.2 130.988C300.503 129.898 301.76 128.757 302.97 127.565C303.816 126.717 304.843 125.269 305.859 124.665C306.197 124.464 306.534 124.341 306.933 124.378C308.7 124.54 311.334 128.123 312.559 129.409L314.233 131.093C315.525 129.865 320.402 124.327 321.915 124.386C323.188 124.435 328.094 129.618 329.278 130.7C332.733 127.918 336.1 124.838 339.4 121.867C339.435 119.458 339.912 116.584 338.1 114.699C337.601 114.18 336.988 113.725 336.284 113.538C333.914 112.907 330.791 113.238 328.323 113.239L316.519 113.259ZM288.5 125.693C288.385 131.242 288.502 136.806 288.499 142.356C288.498 147.214 288.351 152.128 288.568 156.977C299.124 157.105 309.681 157.162 320.237 157.149C326.673 157.159 333.128 157.258 339.559 157.008L339.572 134.87C339.561 131.894 339.574 128.915 339.528 125.938C337.518 127.873 332.481 132.798 330.343 134.158C329.9 134.439 329.307 134.716 328.773 134.729C327.497 134.762 323.173 129.364 321.852 128.338C320.47 129.574 315.656 134.91 314.15 134.928C312.554 134.947 308.28 129.705 306.957 128.385C306.003 129.362 300.36 135.258 299.49 135.204C297.128 135.056 290.834 127.356 288.5 125.693ZM280.843 160.431C278.312 160.831 276.16 162.22 274.667 164.291C273.295 166.193 272.707 168.49 273.115 170.814C273.142 170.971 273.174 171.127 273.209 171.283C273.244 171.439 273.284 171.593 273.327 171.747C273.37 171.901 273.417 172.053 273.467 172.204C273.518 172.356 273.573 172.506 273.631 172.654C273.689 172.803 273.751 172.95 273.817 173.095C273.883 173.241 273.952 173.384 274.025 173.526C274.098 173.668 274.174 173.808 274.254 173.946C274.334 174.084 274.417 174.22 274.504 174.354C274.591 174.488 274.681 174.62 274.774 174.749C274.868 174.879 274.964 175.006 275.064 175.13C275.164 175.255 275.266 175.377 275.372 175.496C275.478 175.615 275.587 175.732 275.699 175.846C275.81 175.96 275.925 176.071 276.042 176.179C276.159 176.287 276.279 176.392 276.402 176.494C276.524 176.597 276.649 176.696 276.777 176.791C276.905 176.887 277.034 176.98 277.167 177.069C278.639 178.073 279.944 178.43 281.705 178.576C285.684 178.908 289.872 178.653 293.87 178.653L318.126 178.64L336.888 178.643C340.132 178.645 343.612 178.899 346.825 178.493C349.222 178.07 351.336 176.993 352.801 174.984C354.33 172.888 354.72 169.99 354.249 167.484C353.82 165.203 352.592 163.167 350.651 161.856C349.233 160.897 347.716 160.648 346.044 160.512C342.341 160.209 338.489 160.425 334.772 160.422L314.036 160.389L291.953 160.398C288.285 160.4 284.497 160.191 280.843 160.431Z" fill="#B9A694"/>
</svg>
