
<svg width="403" height="187" viewBox="0 0 403 187" fill="none" xmlns="http://www.w3.org/2000/svg">
<path d="M159.587 66.1498C160.024 55.8706 157.603 47.9341 165.391 39.4426C165.518 39.3015 165.647 39.162 165.778 39.0241C165.909 38.8861 166.041 38.7498 166.176 38.6151C166.31 38.4804 166.446 38.3473 166.583 38.2159C166.721 38.0845 166.86 37.9547 167.001 37.8267C167.142 37.6987 167.284 37.5724 167.428 37.4478C167.572 37.3233 167.718 37.2005 167.865 37.0795C168.012 36.9585 168.16 36.8392 168.311 36.7217C168.461 36.6043 168.612 36.4887 168.765 36.375C168.918 36.2612 169.072 36.1493 169.228 36.0394C169.384 35.9294 169.541 35.8213 169.699 35.7151C169.858 35.6089 170.017 35.5047 170.178 35.4024C170.339 35.3001 170.502 35.1997 170.665 35.1013C170.829 35.0029 170.993 34.9066 171.159 34.8122C171.325 34.7178 171.492 34.6254 171.66 34.5351C171.829 34.4448 171.998 34.3566 172.168 34.2704C172.339 34.1842 172.51 34.1 172.683 34.0179C172.856 33.936 173.029 33.8561 173.204 33.7782C173.378 33.7004 173.554 33.6247 173.73 33.5511C173.906 33.4776 174.084 33.4061 174.262 33.3369C174.44 33.2677 174.619 33.2007 174.799 33.1357C174.979 33.0707 175.16 33.008 175.341 32.9475C175.522 32.887 175.705 32.8287 175.888 32.7726C176.071 32.7165 176.254 32.6627 176.438 32.6111C176.623 32.5595 176.807 32.5101 176.993 32.4629C177.178 32.4157 177.364 32.3708 177.551 32.3283C177.738 32.2855 177.925 32.2452 178.112 32.2072C178.3 32.169 178.488 32.1332 178.676 32.0998C178.865 32.0663 179.054 32.035 179.243 32.006C179.433 31.9772 179.622 31.9506 179.812 31.9262C180.002 31.9019 180.192 31.8799 180.383 31.86C180.573 31.8404 180.764 31.823 180.955 31.8079C181.146 31.7928 181.337 31.7801 181.528 31.7697C185.74 31.6621 189.991 31.7491 194.206 31.7713C201.168 31.8083 206.78 31.1707 212.964 35.1929C214.258 36.0345 215.522 36.9689 216.644 38.023C220.267 41.425 222.715 46.1957 223.193 51.1163C223.373 52.9687 223.262 54.9018 223.258 56.7654C223.232 60.0019 223.238 63.2382 223.275 66.4745C223.991 66.8171 224.632 67.1845 225.232 67.7058C225.33 67.7905 225.426 67.8775 225.52 67.9668C225.614 68.056 225.705 68.1476 225.794 68.2416C225.884 68.3354 225.97 68.4313 226.055 68.5292C226.139 68.6274 226.221 68.7275 226.3 68.8297C226.379 68.9317 226.456 69.0356 226.53 69.1414C226.604 69.2473 226.675 69.3549 226.744 69.4643C226.813 69.5736 226.878 69.6845 226.941 69.7972C227.004 69.9097 227.065 70.0238 227.122 70.1393C227.179 70.2549 227.233 70.3718 227.285 70.49C227.336 70.6082 227.384 70.7276 227.43 70.8481C227.475 70.9687 227.517 71.0903 227.557 71.213C227.596 71.3356 227.632 71.4591 227.665 71.5835C227.698 71.7079 227.728 71.8331 227.754 71.9589C227.781 72.0848 227.804 72.2112 227.825 72.3382C227.845 72.4653 227.862 72.5928 227.876 72.7207C227.89 72.8485 227.9 72.9766 227.908 73.105C227.915 73.2353 227.92 73.3657 227.921 73.4962C227.923 73.6267 227.921 73.7571 227.915 73.8876C227.91 74.0179 227.901 74.1481 227.889 74.2782C227.877 74.4081 227.862 74.5377 227.843 74.6669C227.824 74.7962 227.802 74.9248 227.777 75.0529C227.752 75.181 227.724 75.3085 227.692 75.4351C227.66 75.5618 227.625 75.6876 227.587 75.8126C227.549 75.9377 227.507 76.0616 227.463 76.1846C227.418 76.3075 227.371 76.4292 227.32 76.5497C227.269 76.6703 227.216 76.7895 227.159 76.9073C227.102 77.0252 227.042 77.1417 226.98 77.2566C226.917 77.3715 226.851 77.4847 226.783 77.5965C226.714 77.7081 226.643 77.8179 226.568 77.926C226.494 78.0341 226.418 78.1403 226.338 78.2446C226.258 78.3489 226.176 78.4511 226.091 78.5513C226.007 78.6516 225.919 78.7496 225.829 78.8454C224.109 80.7001 221.866 81.3523 219.395 81.4705L219.381 81.5983C218.339 90.3964 213.363 98.4577 206.344 103.844C206.177 105.399 206.253 106.998 206.252 108.563C206.25 111.676 206.281 114.79 206.342 117.903C214.539 118.249 223.19 120.96 230.126 125.283C232.714 126.897 235.216 128.549 237.55 130.51C237.814 130.735 238.076 130.962 238.335 131.192C238.594 131.422 238.851 131.654 239.106 131.889C239.36 132.125 239.612 132.362 239.862 132.602C240.112 132.842 240.359 133.084 240.604 133.329C240.849 133.574 241.091 133.821 241.331 134.071C241.571 134.32 241.809 134.572 242.043 134.826C242.278 135.08 242.51 135.337 242.74 135.596C242.97 135.854 243.197 136.115 243.421 136.379C243.645 136.642 243.867 136.907 244.086 137.175C244.305 137.442 244.521 137.712 244.735 137.984C244.949 138.256 245.159 138.53 245.367 138.806C245.575 139.082 245.781 139.36 245.983 139.64C246.186 139.92 246.385 140.202 246.582 140.485C246.779 140.769 246.972 141.055 247.163 141.343C247.354 141.631 247.542 141.92 247.728 142.212C247.913 142.503 248.095 142.796 248.274 143.091C248.453 143.386 248.629 143.683 248.803 143.981C248.976 144.28 249.146 144.58 249.313 144.882C249.48 145.183 249.644 145.487 249.805 145.792C249.967 146.097 250.124 146.404 250.279 146.712C250.434 147.02 250.586 147.329 250.734 147.64C250.883 147.951 251.028 148.264 251.171 148.578C251.313 148.892 251.452 149.207 251.588 149.524C251.724 149.841 251.857 150.158 251.986 150.478C252.116 150.797 252.242 151.118 252.365 151.439C252.488 151.761 252.608 152.084 252.724 152.408C252.841 152.732 252.954 153.058 253.064 153.384C253.174 153.71 253.281 154.038 253.384 154.366C253.487 154.694 253.587 155.024 253.684 155.354C253.781 155.685 253.874 156.016 253.964 156.348C254.054 156.68 254.141 157.013 254.224 157.347C254.307 157.681 254.387 158.016 254.464 158.351C254.701 159.387 254.911 160.427 255.094 161.473C255.276 162.519 255.431 163.569 255.559 164.623C255.686 165.677 255.786 166.733 255.858 167.792C255.93 168.851 255.974 169.911 255.991 170.973C256.004 173.111 255.848 175.249 255.771 177.385C255.737 178.331 255.906 180.819 255.276 181.55C255.118 181.734 255.026 181.763 254.799 181.806C253.07 182.137 251.065 181.945 249.305 181.942L240.123 181.937L202.452 181.927L146.857 181.952L134.109 181.935C132.45 181.931 129.441 182.13 127.987 181.785C127.365 181.271 127.249 180.502 127.179 179.742C125.713 163.671 129.538 148.004 140.193 135.518C149.345 124.792 162.503 119.054 176.506 117.859C176.562 113.208 176.524 108.552 176.509 103.901C174.731 102.676 173.14 101.128 171.716 99.5261C167.002 94.2232 165.155 88.8887 163.374 82.2296C160.848 81.7364 158.737 80.9336 157.174 78.8054C155.753 76.8707 155.093 74.5761 155.488 72.2066C155.932 69.5433 157.397 67.685 159.587 66.1498ZM180.396 34.0853C174.456 34.9214 169.315 37.8101 165.681 42.5583C165.524 42.7626 165.37 42.9701 165.222 43.1808C165.073 43.3914 164.929 43.6051 164.789 43.8218C164.649 44.0384 164.514 44.2579 164.384 44.4801C164.254 44.7023 164.128 44.9272 164.008 45.1547C163.887 45.3821 163.771 45.6119 163.66 45.8443C163.549 46.0765 163.443 46.311 163.343 46.5476C163.242 46.7843 163.146 47.0229 163.055 47.2635C162.964 47.5041 162.879 47.7464 162.798 47.9907C162.718 48.2349 162.643 48.4806 162.573 48.7279C162.503 48.9751 162.438 49.2237 162.379 49.4737C162.32 49.7237 162.266 49.9748 162.217 50.227C162.169 50.4792 162.125 50.7323 162.088 50.9863C162.05 51.2404 162.018 51.495 161.991 51.7503C161.964 52.0057 161.942 52.2615 161.926 52.5177C161.91 52.7739 161.9 53.0303 161.895 53.2869C161.889 53.5437 161.89 53.8004 161.896 54.057L183.654 54.0715C187.814 54.0717 192.049 54.2395 196.197 54.0265C196.968 53.2083 197.721 52.4015 198.188 51.3702C198.682 50.2794 198.971 47.4565 199.512 46.7884C199.719 46.5329 200.011 46.3827 200.347 46.397C200.692 46.4118 201.016 46.5725 201.215 46.8537C201.438 47.1695 201.396 47.466 201.346 47.82C201.168 49.5322 201.015 51.0112 202.196 52.4643C203.029 53.4885 204.167 53.9302 205.466 54.0357C207.339 54.1878 209.293 54.0663 211.174 54.059L221.193 54.0618C221.185 48.6348 219.245 43.6941 215.324 39.8265C212.15 36.6954 207.699 34.626 203.243 34.1299C201.924 33.9832 200.591 34.0161 199.266 34.0214L186.507 34.0163C184.601 34.0123 182.258 33.8081 180.396 34.0853ZM199.857 53.0166C195.342 59.0595 190.541 61.8619 183.014 62.995C180.099 63.4339 177.147 63.6798 174.197 63.5334C172.552 63.4517 170.918 63.2105 169.276 63.1121C169.152 64.9129 169.04 66.7144 168.938 68.5165C168.88 69.4982 168.881 70.521 168.74 71.4938C166.855 73.2368 165.512 74.2038 165.418 76.9633C165.152 84.7336 168.806 93.2583 174.172 98.8645C177.096 101.919 180.27 103.997 184.263 105.447C189.833 107.18 196.444 106.675 201.645 104.018C208.721 100.403 213.609 93.908 215.982 86.485C217.182 82.7332 217.924 78.4615 217.687 74.5238C216.864 73.165 215.592 72.1714 214.399 71.1394C214.284 68.6813 214.451 66.154 214.457 63.6858C209.8 62.0382 205.795 59.6286 202.416 56.0267C201.694 55.2568 200.709 53.557 199.857 53.0166ZM220.751 68.0149C220.396 68.2561 220.001 68.4587 219.879 68.8941C219.63 69.7821 219.925 72.0709 219.938 73.0828C219.964 75.1448 219.98 77.2207 219.877 79.2803C221.236 79.0878 222.398 78.785 223.478 77.9013C224.717 76.7828 225.525 75.4521 225.622 73.7685C225.628 73.6756 225.631 73.5827 225.632 73.4897C225.633 73.3966 225.632 73.3035 225.628 73.2105C225.624 73.1177 225.618 73.0249 225.609 72.9322C225.601 72.8396 225.589 72.7472 225.576 72.6552C225.562 72.563 225.546 72.4713 225.528 72.38C225.51 72.2888 225.489 72.1981 225.466 72.1079C225.443 72.0176 225.417 71.9281 225.389 71.8393C225.361 71.7503 225.331 71.6622 225.299 71.5748C225.267 71.4874 225.232 71.4008 225.195 71.3153C225.158 71.2297 225.119 71.1451 225.077 71.0615C225.036 70.9779 224.992 70.8953 224.947 70.8139C224.901 70.7325 224.853 70.6524 224.803 70.5735C224.753 70.4945 224.701 70.4169 224.647 70.3406C224.593 70.2643 224.537 70.1895 224.479 70.116C224.421 70.0426 224.361 69.9707 224.3 69.9003C224.238 69.8298 224.174 69.761 224.109 69.6939C223.181 68.7375 222.056 68.2347 220.751 68.0149ZM161.491 68.1182C159.957 68.6805 158.851 69.4541 158.143 70.9609C157.442 72.4549 157.414 74.2141 157.987 75.7544C158.044 75.9063 158.106 76.0559 158.174 76.2034C158.241 76.3507 158.315 76.4953 158.394 76.6372C158.472 76.7791 158.557 76.9179 158.646 77.0537C158.735 77.1892 158.83 77.3214 158.929 77.4501C159.029 77.5788 159.133 77.7037 159.242 77.8247C159.351 77.9456 159.464 78.0623 159.582 78.1749C159.7 78.2874 159.822 78.3954 159.948 78.4989C160.074 78.6024 160.204 78.7012 160.338 78.7951C161.144 79.3023 161.927 79.6672 162.838 79.9521C162.897 78.2394 163.205 69.0189 162.776 68.2385C162.388 68.0366 161.916 68.059 161.491 68.1182ZM204.075 105.255C197.856 108.583 190.995 109.7 184.127 107.696C182.237 107.144 180.491 106.36 178.771 105.42C178.745 110.233 178.748 115.047 178.781 119.86C178.799 121.744 178.622 123.839 178.888 125.699C179.045 125.848 179.193 125.991 179.371 126.116C179.54 126.216 179.71 126.313 179.881 126.408C180.053 126.503 180.225 126.596 180.399 126.687C180.572 126.778 180.747 126.867 180.923 126.954C181.099 127.041 181.276 127.125 181.454 127.208C181.632 127.29 181.81 127.371 181.99 127.449C182.17 127.527 182.351 127.603 182.533 127.677C182.715 127.751 182.898 127.822 183.081 127.891C183.265 127.961 183.449 128.028 183.634 128.093C183.82 128.158 184.006 128.221 184.193 128.281C184.379 128.342 184.567 128.4 184.755 128.456C184.943 128.512 185.132 128.565 185.322 128.617C185.511 128.668 185.702 128.717 185.893 128.764C186.083 128.81 186.275 128.855 186.467 128.897C186.658 128.939 186.851 128.979 187.044 129.017C187.237 129.054 187.43 129.089 187.624 129.122C187.818 129.155 188.012 129.185 188.206 129.213C188.401 129.241 188.596 129.267 188.791 129.291C188.986 129.314 189.181 129.335 189.377 129.354C189.573 129.372 189.769 129.389 189.965 129.403C190.161 129.417 190.357 129.428 190.554 129.437C190.75 129.447 190.946 129.454 191.143 129.458C191.34 129.462 191.536 129.465 191.733 129.464C191.929 129.464 192.126 129.461 192.322 129.456C192.519 129.451 192.715 129.444 192.912 129.434C193.108 129.424 193.304 129.412 193.5 129.398C193.696 129.383 193.892 129.366 194.088 129.347C194.284 129.328 194.479 129.306 194.674 129.282C194.869 129.258 195.064 129.232 195.258 129.204C195.453 129.175 195.647 129.144 195.841 129.11C196.034 129.077 196.228 129.041 196.42 129.003C196.613 128.965 196.805 128.925 196.997 128.882C197.189 128.84 197.38 128.795 197.571 128.747C199.814 128.202 202.253 127.246 204.174 125.965C204.15 123.835 204.259 105.694 204.075 105.255ZM175.841 120.109C174.923 120.228 173.985 120.314 173.076 120.489C173.669 121.45 174.383 122.239 175.176 123.044C175.616 123.415 176.051 123.792 176.522 124.126C176.566 122.97 176.863 121.204 176.386 120.15C176.148 120.048 176.091 120.082 175.841 120.109ZM206.433 120.047L206.445 124.454C207.097 123.906 207.702 123.341 208.29 122.729C208.896 122.013 209.511 121.308 210.03 120.527L206.433 120.047ZM212.507 120.885C209.7 125.758 204.116 129.331 198.719 130.809C192.17 132.601 184.767 131.731 178.865 128.423C176.452 127.07 174.092 125.288 172.249 123.223C171.585 122.479 171.017 121.662 170.373 120.903C168.873 121.253 167.364 121.582 165.883 122.006C166.587 123.547 167.936 124.986 169.048 126.266C174.395 132.205 182.025 135.193 189.948 135.655C197.567 136.1 205.656 133.825 211.424 128.788C213.639 126.854 215.621 124.631 216.781 121.917C215.373 121.501 213.962 121.114 212.507 120.885ZM218.9 122.497C216.774 128.099 211.287 132.529 205.891 134.972C197.643 138.704 187.853 138.919 179.378 135.801C174.8 134.116 170.389 131.194 167.188 127.543C165.882 126.052 164.762 124.401 163.667 122.756C163.3 122.87 162.936 122.988 162.572 123.11C162.209 123.233 161.847 123.36 161.487 123.491C161.126 123.622 160.767 123.757 160.411 123.897C160.054 124.036 159.698 124.18 159.345 124.328C158.992 124.476 158.64 124.629 158.29 124.785C157.941 124.942 157.593 125.103 157.247 125.267C156.901 125.432 156.558 125.601 156.216 125.774C155.875 125.947 155.535 126.125 155.198 126.306C154.861 126.487 154.526 126.672 154.193 126.861C153.861 127.05 153.53 127.244 153.202 127.441C152.874 127.638 152.549 127.839 152.226 128.044C151.903 128.249 151.583 128.457 151.265 128.67C150.947 128.883 150.632 129.099 150.319 129.319C150.007 129.539 149.697 129.763 149.39 129.991C149.083 130.218 148.779 130.449 148.478 130.684C148.176 130.919 147.878 131.157 147.582 131.399C147.287 131.641 146.994 131.886 146.705 132.135C146.416 132.384 146.129 132.637 145.846 132.892C145.563 133.148 145.283 133.407 145.006 133.67C144.729 133.932 144.456 134.198 144.185 134.467C143.915 134.736 143.648 135.008 143.384 135.284C143.121 135.559 142.861 135.838 142.604 136.119C142.347 136.401 142.094 136.686 141.844 136.973C141.594 137.261 141.348 137.552 141.106 137.845C140.863 138.139 140.624 138.435 140.389 138.735C140.154 139.034 139.922 139.336 139.694 139.641C139.466 139.946 139.242 140.253 139.022 140.563C138.802 140.874 138.585 141.186 138.372 141.502C138.16 141.817 137.951 142.135 137.746 142.455C137.542 142.776 137.341 143.098 137.144 143.424C136.947 143.749 136.754 144.076 136.565 144.406C136.377 144.736 136.192 145.068 136.011 145.402C131.511 153.869 129.631 161.111 129.224 170.656C129.096 173.649 129.084 176.77 129.471 179.744C134.382 179.802 139.292 179.818 144.203 179.794C147.449 179.789 150.722 179.872 153.964 179.742C154.051 174.518 154.077 169.294 154.041 164.07L154.024 159.174C154.021 158.355 153.945 157.458 154.06 156.649C154.104 156.339 154.264 155.95 154.519 155.75C154.734 155.581 154.97 155.485 155.249 155.524C155.523 155.563 155.726 155.738 155.868 155.963C156.076 156.293 156.152 156.694 156.186 157.075C156.331 158.702 156.193 160.437 156.195 162.074L156.214 172.581C156.214 174.981 156.19 177.383 156.216 179.783L194.664 179.74C205.43 179.803 216.197 179.803 226.963 179.738L226.965 162.95C226.968 161.613 226.991 160.273 226.972 158.936C226.962 158.307 226.85 157.643 226.926 157.02C226.981 156.571 227.151 156.098 227.471 155.766C227.694 155.535 227.892 155.455 228.204 155.401C228.53 155.469 228.706 155.584 228.876 155.861C229.062 156.165 229.135 156.501 229.164 156.851C229.232 157.673 229.163 158.511 229.159 159.335L229.178 164.127L229.192 179.807L253.401 179.778C253.554 175.946 253.827 172.105 253.614 168.27C252.974 156.747 248.617 145.016 240.596 136.467C240.273 136.12 239.945 135.778 239.612 135.44C239.279 135.102 238.942 134.769 238.6 134.44C238.258 134.112 237.911 133.788 237.56 133.469C237.208 133.149 236.853 132.835 236.493 132.526C236.133 132.216 235.768 131.912 235.4 131.612C235.031 131.313 234.658 131.018 234.282 130.729C233.905 130.44 233.524 130.156 233.139 129.877C232.754 129.598 232.366 129.324 231.973 129.056C231.581 128.787 231.184 128.524 230.784 128.267C230.385 128.009 229.981 127.758 229.574 127.511C229.167 127.264 228.757 127.024 228.343 126.788C227.929 126.553 227.512 126.323 227.092 126.099C226.672 125.875 226.249 125.657 225.822 125.445C225.396 125.233 224.967 125.026 224.535 124.825C224.103 124.625 223.668 124.43 223.23 124.241C222.793 124.053 222.353 123.87 221.91 123.693C220.919 123.289 219.918 122.829 218.9 122.497Z" fill="#94B99A"/>
<path d="M205.284 69.8212C202.665 68.68 200.608 70.5346 199.635 69.8936C199.434 69.7613 199.284 69.4749 199.24 69.2395C199.194 68.9904 199.264 68.7898 199.403 68.5874C199.931 67.8175 201.673 67.5377 202.531 67.3716C203.178 67.3152 203.847 67.3291 204.487 67.447C205.611 67.6541 207.249 68.2027 207.896 69.2266C208.119 69.579 208.179 69.8796 208.092 70.2856C207.933 70.4888 207.845 70.5899 207.589 70.6488C206.817 70.8266 205.926 70.1819 205.284 69.8212Z" fill="#94B99A"/>
<path d="M179.288 69.1737C178.007 69.2747 177.396 69.8308 176.365 70.4087C175.971 70.6301 175.645 70.7421 175.188 70.6428C174.967 70.5004 174.85 70.3758 174.78 70.1367C174.686 69.8201 174.761 69.5291 174.951 69.2558C175.673 68.2134 177.134 67.6511 178.405 67.386C179.769 67.2662 182.039 67.3374 183.194 68.0968C183.428 68.2505 183.626 68.4731 183.643 68.7465C183.659 69.0123 183.493 69.3804 183.278 69.5552C182.569 70.1314 180.581 69.1202 179.407 69.1676C179.368 69.1693 179.328 69.1716 179.288 69.1737Z" fill="#94B99A"/>
<path d="M219.353 79.5849C219.452 77.3461 219.437 75.0897 219.412 72.8483C219.4 71.7484 219.118 69.2604 219.355 68.2953C219.471 67.8219 219.848 67.6018 220.185 67.3396C221.425 67.5785 222.495 68.125 223.377 69.1646C223.439 69.2376 223.5 69.3124 223.558 69.389C223.617 69.4654 223.674 69.5436 223.729 69.6235C223.784 69.7033 223.837 69.7847 223.889 69.8676C223.94 69.9505 223.99 70.0349 224.037 70.1207C224.085 70.2064 224.13 70.2935 224.174 70.382C224.217 70.4705 224.258 70.5602 224.298 70.6512C224.337 70.742 224.374 70.834 224.41 70.927C224.445 71.02 224.478 71.1141 224.509 71.2092C224.539 71.3041 224.568 71.3999 224.595 71.4966C224.621 71.5931 224.645 71.6905 224.667 71.7886C224.689 71.8866 224.709 71.9852 224.726 72.0844C224.744 72.1836 224.759 72.2833 224.772 72.3835C224.785 72.4836 224.795 72.5839 224.804 72.6845C224.812 72.7853 224.818 72.8862 224.822 72.9871C224.825 73.0882 224.827 73.1894 224.826 73.2906C224.825 73.3917 224.821 73.4927 224.816 73.5936C224.724 75.4237 223.955 76.8701 222.777 78.086C221.751 79.0465 220.646 79.3757 219.353 79.5849Z" fill="black"/>
<path d="M160.307 78.3919C160.197 78.295 160.09 78.1932 159.986 78.0864C159.883 77.9797 159.782 77.8683 159.685 77.7523C159.588 77.6362 159.495 77.5159 159.406 77.3912C159.316 77.2664 159.23 77.1377 159.149 77.0049C159.067 76.8722 158.989 76.736 158.916 76.5962C158.842 76.4562 158.773 76.3131 158.708 76.1667C158.644 76.0204 158.583 75.8713 158.528 75.7194C158.472 75.5673 158.421 75.413 158.375 75.2564C157.903 73.6681 157.926 71.854 158.503 70.3135C159.085 68.7598 159.994 67.962 161.255 67.3823C161.604 67.3212 161.992 67.2981 162.311 67.5063C162.664 68.311 162.411 77.8188 162.362 79.5849C161.613 79.2912 160.969 78.9149 160.307 78.3919Z" fill="black"/>
<path d="M180.465 79.5815C179.72 79.6074 179.058 79.4844 178.425 79.1488C177.713 78.7709 177.22 78.138 177.042 77.4584C177.018 77.3637 177 77.2682 176.987 77.1721C176.974 77.0758 176.967 76.9793 176.966 76.8826C176.964 76.7857 176.969 76.6891 176.979 76.5927C176.99 76.4963 177.006 76.4006 177.028 76.3055C177.049 76.2104 177.077 76.1164 177.11 76.0234C177.143 75.9306 177.181 75.8394 177.225 75.7497C177.269 75.66 177.319 75.5723 177.373 75.4867C177.428 75.401 177.487 75.3178 177.552 75.237C178.185 74.4595 179.077 74.1901 180.138 74.0195C180.855 74.008 181.559 74.1364 182.171 74.4563C182.891 74.833 183.38 75.4497 183.562 76.1339C183.587 76.2272 183.607 76.3213 183.62 76.4163C183.634 76.5112 183.642 76.6065 183.643 76.7021C183.645 76.7977 183.641 76.8932 183.63 76.9884C183.62 77.0837 183.604 77.1783 183.582 77.272C183.56 77.3659 183.532 77.4587 183.498 77.5502C183.464 77.6416 183.425 77.7313 183.38 77.8194C183.335 77.9075 183.285 77.9935 183.229 78.0773C183.173 78.1611 183.112 78.2423 183.047 78.321C182.412 79.0883 181.527 79.4061 180.465 79.5815Z" fill="#94B99A"/>
<path d="M203.553 79.5811C202.695 79.6053 201.87 79.516 201.11 79.2122C201.001 79.1685 200.895 79.121 200.793 79.0696C200.691 79.0181 200.593 78.963 200.499 78.9042C200.405 78.8456 200.315 78.7835 200.23 78.7181C200.144 78.6528 200.064 78.5845 199.989 78.5133C199.913 78.4419 199.842 78.368 199.777 78.2916C199.712 78.2151 199.653 78.1364 199.599 78.0555C199.545 77.9745 199.497 77.8919 199.455 77.8075C199.413 77.723 199.377 77.6372 199.347 77.5502C199.314 77.4547 199.287 77.3584 199.268 77.2611C199.248 77.1637 199.236 77.0659 199.23 76.9676C199.224 76.8694 199.225 76.7712 199.233 76.673C199.241 76.5748 199.256 76.4771 199.277 76.38C199.299 76.283 199.328 76.1869 199.363 76.0919C199.398 75.9969 199.44 75.9033 199.488 75.8114C199.537 75.7194 199.591 75.6294 199.652 75.5415C199.713 75.4535 199.78 75.368 199.853 75.2848C200.546 74.5122 201.532 74.192 202.745 74.0256C203.64 73.9913 204.456 74.0813 205.234 74.421C205.34 74.4672 205.442 74.5171 205.541 74.5707C205.64 74.6243 205.735 74.6814 205.826 74.7419C205.917 74.8024 206.003 74.8661 206.085 74.933C206.167 74.9999 206.245 75.0696 206.317 75.142C206.389 75.2145 206.456 75.2895 206.517 75.3669C206.579 75.4443 206.635 75.5237 206.686 75.6052C206.736 75.6867 206.781 75.7698 206.819 75.8545C206.858 75.9392 206.891 76.0252 206.918 76.1123C207.161 76.8887 206.957 77.7458 206.339 78.4081C205.654 79.1416 204.708 79.4221 203.553 79.5811Z" fill="#94B99A"/>
<path d="M190.16 86.7436C189.763 86.4585 189.376 86.0732 189.254 85.6492C189.241 85.6035 189.23 85.5575 189.223 85.5112C189.215 85.4647 189.211 85.418 189.209 85.3712C189.208 85.3244 189.209 85.2777 189.213 85.231C189.217 85.1843 189.224 85.1379 189.234 85.0918C189.243 85.0456 189.256 85 189.271 84.9548C189.287 84.9097 189.305 84.8653 189.326 84.8215C189.347 84.7778 189.37 84.7349 189.396 84.693C189.422 84.6511 189.451 84.6103 189.482 84.5707C190.575 84.0999 191.443 85.4313 192.524 85.4453C192.748 85.4482 192.939 85.3858 193.095 85.2519C193.341 85.0395 193.455 84.7786 193.414 84.491C193.355 84.079 192.154 84.0041 191.773 83.7169C191.464 83.4837 191.485 83.0445 191.505 82.7309C191.573 81.6663 192.017 78.8072 192.546 77.8895C192.672 77.6706 192.884 77.5153 193.106 77.3584C193.563 77.3959 194.001 77.4661 194.293 77.7821C195.038 78.5865 194.13 81.2389 194.035 82.2844L194.025 82.4118C194.055 82.4241 194.086 82.4359 194.116 82.4487C194.919 82.7928 195.528 83.2362 195.781 83.9588C196.026 84.6603 195.828 85.428 195.357 86.0405C195.294 86.1222 195.226 86.201 195.154 86.2771C195.081 86.3532 195.004 86.4261 194.922 86.4959C194.84 86.5658 194.754 86.6321 194.663 86.6948C194.573 86.7575 194.479 86.8164 194.381 86.8715C194.283 86.9266 194.181 86.9776 194.077 87.0244C193.972 87.0712 193.865 87.1137 193.755 87.1517C193.645 87.1897 193.533 87.2232 193.419 87.2522C193.305 87.2811 193.189 87.3053 193.072 87.3248C191.972 87.5017 191.068 87.2119 190.16 86.7436Z" fill="#94B99A"/>
<path d="M185.105 93.427C184.628 93.1402 184.148 92.9037 183.868 92.3726C183.676 92.0067 183.586 91.7176 183.683 91.3012C183.767 91.1797 183.843 91.0778 183.973 91.0101C185.133 90.4093 186.859 91.7812 187.997 92.1588C191.881 93.4482 195.349 92.6992 198.875 90.7203C199.013 90.7194 199.189 90.707 199.327 90.7374C199.697 90.819 200.016 91.108 200.206 91.4526C200.333 91.6818 200.382 91.9341 200.296 92.1926C199.961 93.1925 197.823 93.9503 196.968 94.2696C192.997 95.7523 188.868 95.3569 185.105 93.427Z" fill="#94B99A"/>
<path d="M191.548 147.491C191.25 147.471 190.957 147.446 190.669 147.404C190.087 147.317 189.609 147.097 189.362 146.829C189.129 146.578 189.182 146.286 189.385 146.035C189.764 145.567 190.439 145.442 191.344 145.264C191.755 145.32 192.188 145.393 192.559 145.496C193.064 145.638 193.446 145.938 193.592 146.205C193.611 146.239 193.625 146.273 193.636 146.307C193.647 146.341 193.654 146.375 193.658 146.41C193.662 146.444 193.662 146.479 193.658 146.513C193.654 146.548 193.647 146.582 193.636 146.616C193.624 146.65 193.61 146.684 193.592 146.718C193.573 146.751 193.551 146.784 193.526 146.816C193.5 146.849 193.472 146.88 193.439 146.911C193.407 146.942 193.372 146.972 193.333 147.001C192.89 147.339 192.308 147.409 191.548 147.491Z" fill="#94B99A"/>
<path d="M192.183 156.375C191.919 156.385 191.654 156.396 191.389 156.396C190.751 156.398 190.128 156.264 189.72 156.005C189.327 155.755 189.15 155.481 189.226 155.163C189.342 154.674 189.787 154.454 190.527 154.179C190.938 154.17 191.374 154.16 191.782 154.189C192.423 154.234 193.058 154.496 193.383 154.776C193.662 155.016 193.732 155.288 193.588 155.557C193.367 155.967 192.873 156.17 192.183 156.375Z" fill="#94B99A"/>
<path d="M192.057 165.302C191.7 165.291 191.353 165.277 191.002 165.228C190.926 165.217 190.851 165.203 190.776 165.186C190.702 165.169 190.629 165.15 190.558 165.128C190.487 165.106 190.417 165.081 190.35 165.053C190.282 165.026 190.217 164.996 190.153 164.964C190.09 164.932 190.029 164.897 189.97 164.86C189.912 164.823 189.856 164.784 189.803 164.743C189.75 164.701 189.701 164.658 189.654 164.613C189.608 164.569 189.564 164.522 189.524 164.474C189.212 164.104 189.131 163.677 189.282 163.258C189.522 162.59 190.075 162.299 190.862 161.962C191.145 161.966 191.411 161.984 191.691 162.02C192.357 162.105 192.982 162.428 193.332 162.845C193.638 163.21 193.741 163.634 193.596 164.052C193.377 164.684 192.801 164.992 192.057 165.302Z" fill="#94B99A"/>
<path d="M96.9928 30.73C97.0639 30.3935 97.143 30.0588 97.2302 29.7261C97.3173 29.3932 97.4123 29.0627 97.5154 28.7345C97.6184 28.4063 97.7293 28.0808 97.8479 27.7579C97.9665 27.4349 98.0929 27.115 98.2269 26.7981C98.3608 26.4812 98.5023 26.1678 98.6514 25.8578C98.8004 25.5477 98.9569 25.2414 99.1206 24.9387C99.2844 24.6361 99.4553 24.3376 99.6334 24.0432C99.8115 23.7488 99.9965 23.4588 100.188 23.1733C102.406 19.8137 105.63 16.7336 109.494 15.4018C110.477 15.0628 111.545 14.8944 112.564 14.6878C112.879 14.3166 113.114 14.0958 113.566 13.9058C114.351 13.9442 114.62 14.0763 115.191 14.6165C116.876 14.923 118.452 15.3818 120.017 16.0839C126.422 18.9564 129.15 24.5396 131.522 30.7269C133.063 30.7769 134.393 31.1937 135.643 32.1071C137.176 33.2276 138.253 34.8948 138.527 36.7848C138.798 38.6501 138.286 40.7328 137.13 42.2284C135.583 44.2286 133.349 44.9235 130.934 45.227C129.959 48.0674 129.11 51.0121 128.223 53.8844C127.887 54.9685 127.668 56.1569 127.207 57.1937C126.884 57.9217 126.463 58.5763 125.89 59.1354C123.955 61.0251 121.502 60.9046 118.998 60.8955C118.895 61.7454 118.765 62.4691 118.297 63.2117C118.257 63.274 118.216 63.3352 118.173 63.3954C118.13 63.4557 118.085 63.5148 118.039 63.5728C117.993 63.6307 117.946 63.6875 117.897 63.7431C117.848 63.7987 117.798 63.853 117.746 63.9062C117.694 63.9592 117.641 64.011 117.587 64.0615C117.533 64.112 117.478 64.161 117.421 64.2087C117.364 64.2563 117.307 64.3025 117.248 64.3472C117.189 64.392 117.129 64.4354 117.067 64.4772C117.006 64.5189 116.944 64.5591 116.881 64.5977C116.818 64.6364 116.754 64.6736 116.689 64.709C116.624 64.7444 116.558 64.7782 116.491 64.8104C116.425 64.8425 116.357 64.873 116.289 64.9019C116.221 64.9307 116.152 64.9578 116.082 64.9831C116.013 65.0084 115.942 65.032 115.872 65.0537C115.801 65.0756 115.73 65.0957 115.658 65.114C115.586 65.1322 115.514 65.1487 115.441 65.1634C114.048 65.4523 112.445 65.1992 111.27 64.3777C110.046 63.5214 109.584 62.309 109.317 60.9057C107.68 60.7759 105.929 61.0032 104.387 60.3387C104.26 60.2837 104.135 60.2242 104.012 60.1603C103.89 60.0964 103.769 60.0281 103.651 59.9554C103.533 59.8827 103.418 59.8059 103.306 59.7248C103.194 59.6438 103.085 59.5588 102.979 59.4699C102.872 59.3809 102.77 59.2883 102.67 59.192C102.571 59.0956 102.475 58.9958 102.383 58.8925C102.291 58.7893 102.202 58.6828 102.118 58.5731C102.033 58.4635 101.953 58.3509 101.877 58.2354C100.094 55.5876 98.9985 49.3204 97.6545 45.9885C96.9468 45.8284 96.2306 45.6701 95.5416 45.4412C93.1292 44.6399 91.4172 42.8622 90.2835 40.6429C88.3732 41.5308 86.4057 42.5184 84.6786 43.7257C84.4683 43.8699 84.2599 44.0168 84.0533 44.1662C83.8466 44.3157 83.6419 44.4677 83.439 44.6221C83.2362 44.7766 83.0352 44.9336 82.8363 45.093C82.6373 45.2525 82.4403 45.4144 82.2453 45.5787C82.0504 45.743 81.8575 45.9097 81.6666 46.0789C81.4758 46.2478 81.2871 46.4192 81.1005 46.593C80.9139 46.7668 80.7294 46.9429 80.5472 47.1212C80.365 47.2995 80.185 47.48 80.0072 47.6627C79.8295 47.8455 79.654 48.0305 79.4808 48.2176C79.3076 48.4047 79.1368 48.5939 78.9683 48.7852C78.7998 48.9765 78.6337 49.1699 78.4699 49.3653C78.3062 49.5607 78.145 49.7581 77.9862 49.9575C77.8273 50.1569 77.671 50.3582 77.5172 50.5614C77.3633 50.7648 77.212 50.9699 77.0633 51.177C76.9145 51.384 76.7683 51.5928 76.6248 51.8033C76.4812 52.014 76.3402 52.2264 76.2019 52.4405C76.0636 52.6546 75.9279 52.8704 75.7949 53.0879C75.662 53.3052 75.5317 53.5243 75.4041 53.745C75.2766 53.9657 75.1518 54.188 75.0297 54.4117C74.9077 54.6354 74.7884 54.8606 74.6719 55.0875C74.5555 55.3141 74.4418 55.5422 74.331 55.7717C74.2202 56.0012 74.1122 56.2321 74.0071 56.4643C73.902 56.6965 73.7998 56.9299 73.7004 57.1647C73.6011 57.3994 73.5047 57.6353 73.4112 57.8723C73.3177 58.1094 73.2272 58.3476 73.1396 58.5869C73.052 58.8263 72.9674 59.0667 72.8858 59.308C72.8042 59.5494 72.7255 59.7918 72.6499 60.0352C72.5743 60.2787 72.5017 60.523 72.4321 60.768C72.3625 61.0132 72.296 61.2592 72.2325 61.5059C72.169 61.7528 72.1086 62.0005 72.0512 62.2488C71.9939 62.4969 71.9396 62.7459 71.8884 62.9956C71.8372 63.2452 71.7891 63.4954 71.7441 63.7463C70.1825 72.6637 72.9998 81.7677 78.149 89.0643C83.0676 96.0343 91.194 100.902 99.5568 102.358C103.911 103.171 108.577 102.813 112.989 102.825L133.944 102.816C136.474 102.821 139.019 102.736 141.547 102.802C142.142 102.817 142.954 102.817 143.354 103.328C143.522 103.544 143.605 103.872 143.563 104.145C143.513 104.472 143.316 104.839 143.006 104.995C142.8 105.098 142.522 105.129 142.295 105.14C139.664 105.263 136.851 105.114 134.2 105.116C128.666 105.172 123.132 105.169 117.598 105.107L108.253 105.086C105.879 105.081 103.485 105.108 101.122 104.865C100.265 104.782 99.4124 104.665 98.5643 104.515C97.7164 104.366 96.8756 104.184 96.0418 103.969C95.208 103.754 94.3839 103.506 93.5694 103.227C92.7549 102.948 91.9524 102.638 91.162 102.297C90.881 102.174 90.6016 102.048 90.3237 101.918C90.0459 101.788 89.7698 101.654 89.4954 101.518C89.2208 101.381 88.948 101.241 88.677 101.097C88.4061 100.953 88.1369 100.806 87.8695 100.656C87.6023 100.506 87.3369 100.352 87.0734 100.195C86.81 100.038 86.5485 99.8782 86.289 99.7147C86.0296 99.5512 85.7722 99.3846 85.5169 99.2147C85.2616 99.0448 85.0085 98.8717 84.7575 98.6955C84.5065 98.5193 84.2578 98.34 84.0113 98.1576C83.7648 97.9752 83.5206 97.7897 83.2788 97.6012C83.0369 97.4127 82.7975 97.2212 82.5604 97.0268C82.3233 96.8324 82.0887 96.635 81.8566 96.4346C81.6245 96.2342 81.3949 96.031 81.1679 95.825C80.9408 95.6189 80.7164 95.4101 80.4946 95.1984C80.2727 94.9867 80.0536 94.7723 79.8371 94.5553C79.6207 94.3382 79.4069 94.1184 79.196 93.8958C78.985 93.6734 78.7768 93.4483 78.5715 93.2207C78.3662 92.993 78.1637 92.7629 77.9641 92.5302C77.7645 92.2975 77.5679 92.0623 77.3741 91.8248C77.1804 91.5872 76.9897 91.3472 76.802 91.1049C76.6143 90.8625 76.4297 90.6178 76.2481 90.3707C76.0665 90.1238 75.888 89.8747 75.7126 89.6233C75.5373 89.3718 75.3651 89.1182 75.1961 88.8624C75.0271 88.6067 74.8613 88.349 74.6987 88.0891C74.5361 87.8293 74.3768 87.5675 74.2208 87.3036C74.0648 87.0397 73.912 86.774 73.7627 86.5063C73.6133 86.2387 73.4673 85.9693 73.3246 85.6979C73.182 85.4267 73.0427 85.1537 72.9069 84.879C72.7711 84.6042 72.6387 84.3277 72.5098 84.0496C72.3809 83.7716 72.2555 83.492 72.1336 83.2107C72.0117 82.9296 71.8933 82.6469 71.7784 82.3627C71.6636 82.0786 71.5523 81.7931 71.4446 81.5062C68.0855 72.7967 68.1291 63.9529 71.9422 55.3865C75.3123 47.8154 82.0049 41.3038 89.7663 38.309C89.9642 36.4354 90.294 34.8461 91.5244 33.353C92.9403 31.6349 94.83 30.9281 96.9928 30.73ZM114.997 16.9508L115.068 20.2307C117.373 20.5463 119.739 21.1271 121.779 22.2804L123.385 21.6464L123.641 21.5725C123.607 21.1621 122.97 20.6914 122.656 20.4246C120.591 18.6687 117.758 17.1061 114.997 16.9508ZM112.115 17.1076C109.526 17.5969 106.333 19.1689 104.735 21.3392C104.653 21.451 104.619 21.5386 104.6 21.6748C104.815 21.7543 104.86 21.7206 105.079 21.6833C107.659 21.5034 110.169 20.7534 112.711 20.3194C112.723 19.5874 112.969 17.6977 112.561 17.1042C112.411 17.0989 112.264 17.0851 112.115 17.1076ZM115.104 22.5313C114.9 23.5817 115.022 24.8028 115.028 25.8769L118.861 25.9319L118.625 23.4495C117.476 23.0582 116.292 22.7788 115.104 22.5313ZM112.407 22.7188C111.402 22.9731 110.4 23.2323 109.379 23.4211C109.387 24.1308 109.255 25.2699 109.503 25.9259C109.601 25.956 109.701 25.9995 109.804 26.0006L112.798 25.987C112.826 25.2189 113.087 23.3566 112.715 22.7302L112.407 22.7188ZM124.941 23.4438L122.267 24.3298L122.255 25.8928L124.11 25.8905L126.648 25.8723C126.406 25.3365 125.755 23.6752 125.214 23.4733C125.058 23.4149 125.12 23.43 124.941 23.4438ZM102.374 23.9616C101.848 24.5989 101.394 25.2402 101.023 25.9815C102.308 25.9877 103.593 25.9829 104.878 25.9671L105.882 25.8977L105.897 23.9758C104.722 23.987 103.548 24.0072 102.374 23.9616ZM100.003 28.2676C98.8939 29.4385 98.7357 35.6527 98.7885 37.3511C98.8654 39.8247 99.4589 42.1571 99.6712 44.5966C101.765 46.159 104.104 47.5452 106.373 48.8435C107.436 46.5697 108.815 44.7699 111.252 43.8846C113.353 43.1216 115.603 43.2794 117.614 44.2326C119.595 45.171 120.804 46.4878 121.683 48.4696C121.814 48.7648 121.907 48.8017 122.193 48.7655L122.576 48.4488C124.626 46.8444 127.004 45.672 128.957 43.9399C129.615 38.8851 130.489 32.9513 128.164 28.2059C118.783 28.257 109.381 28.085 100.003 28.2676ZM96.403 33.1123C94.9967 33.4533 93.7974 33.9529 92.9904 35.2378C92.227 36.4537 92.1215 37.9836 92.4776 39.3513C92.7778 40.5046 93.4029 41.4629 94.3034 42.2365C95.0224 42.7387 95.9501 43.3759 96.8614 43.304L97.0277 43.1827C96.8255 40.9663 96.4397 38.7614 96.4614 36.5287C96.4686 35.7675 96.7497 33.724 96.5019 33.1362L96.403 33.1123ZM131.915 33.0698C131.975 34.7199 131.97 36.3698 131.901 38.0195C131.833 39.6691 131.7 41.3136 131.504 42.953C132.628 42.6891 133.551 42.2855 134.472 41.5776C135.503 40.6331 136.177 39.507 136.26 38.0803C136.264 38.0031 136.267 37.9258 136.268 37.8483C136.269 37.7709 136.267 37.6936 136.264 37.6162C136.261 37.539 136.256 37.4618 136.249 37.3846C136.243 37.3075 136.234 37.2307 136.223 37.154C136.213 37.0774 136.2 37.001 136.185 36.925C136.171 36.849 136.155 36.7734 136.137 36.6982C136.119 36.623 136.099 36.5483 136.077 36.474C136.055 36.3996 136.031 36.326 136.006 36.253C135.98 36.1799 135.953 36.1074 135.924 36.0356C135.895 35.9639 135.864 35.8929 135.832 35.8226C135.799 35.7525 135.765 35.6831 135.729 35.6145C135.693 35.546 135.655 35.4784 135.616 35.4118C135.577 35.345 135.536 35.2793 135.493 35.2147C135.451 35.1499 135.407 35.0863 135.361 35.0238C135.315 34.9613 135.268 34.9 135.219 34.8399C135.171 34.7797 135.12 34.7207 135.069 34.663C134.355 33.8682 133.161 33.1269 132.064 33.0743C132.014 33.072 131.965 33.0713 131.915 33.0698ZM113.934 45.7611C112.29 45.9022 110.813 46.3875 109.698 47.6894C108.897 48.6242 108.556 49.7361 108.272 50.9048C109.349 53.4423 110.431 55.9817 111.267 58.6111C111.58 59.595 111.524 60.7521 111.961 61.6833C112.187 62.1633 112.538 62.5249 113.032 62.7283C113.495 62.9186 114.041 62.9655 114.535 63.0204C115.253 62.879 115.984 62.7031 116.399 62.0386C116.977 61.1112 116.86 59.6697 117.191 58.6217C117.895 56.397 119.109 54.1949 119.631 51.9306C119.786 51.262 119.796 50.653 119.609 49.9887C119.183 48.4666 118.095 47.1799 116.714 46.4318C116.502 46.3166 116.283 46.2156 116.058 46.1289C115.833 46.0422 115.603 45.9706 115.368 45.914C115.134 45.8573 114.896 45.8162 114.656 45.7906C114.416 45.765 114.176 45.7552 113.934 45.7611ZM127.541 47.8477C125.831 49.0637 124.125 50.3703 122.334 51.4625C121.976 52.6293 119.644 57.9094 119.697 58.4575L119.743 58.5131C121.126 58.5684 122.931 58.7646 124.038 57.7492C124.531 57.2977 124.915 56.5676 125.171 55.9499C125.649 54.8 125.931 53.5219 126.288 52.3247C126.72 50.8758 127.21 49.4446 127.608 47.9855L127.541 47.8477ZM100.928 48.1866C101.477 50.2545 102.561 54.737 103.49 56.4694C103.838 57.1191 104.351 57.6979 104.991 58.0721C106.105 58.7235 107.621 58.5523 108.861 58.4984L106.127 51.4898C104.442 50.3911 102.722 49.0796 100.928 48.1866Z" fill="#94B99A"/>
<path d="M147.267 18.2451C146.928 18.286 146.591 18.3126 146.249 18.3184C144.318 18.351 142.38 18.33 140.449 18.3314C139.289 18.3324 138.01 18.4217 136.866 18.2704C136.542 18.2277 136.193 18.1261 135.978 17.8943C135.821 17.7252 135.767 17.497 135.786 17.2835C135.83 16.7894 136.111 16.4871 136.522 16.1771C137.694 16.0927 138.905 16.1533 140.082 16.1511C142.019 16.1471 143.958 16.1247 145.895 16.1431C146.479 16.1485 147.419 16.0993 147.8 16.5486C148.011 16.7974 148.073 17.2431 147.992 17.5435C147.89 17.9165 147.611 18.065 147.267 18.2451Z" fill="#94B99A"/>
<path d="M81.6233 29.4906C80.8404 29.4518 80.1305 29.3686 79.4497 29.0227C78.6783 28.6308 78.1329 28.0126 77.9642 27.2766C77.9429 27.1848 77.9273 27.0925 77.9174 26.9996C77.9074 26.9065 77.9031 26.8133 77.9046 26.7199C77.906 26.6266 77.9132 26.5336 77.926 26.4409C77.9388 26.3481 77.9573 26.2561 77.9814 26.1649C78.0055 26.0736 78.0351 25.9836 78.0703 25.8947C78.1054 25.806 78.1459 25.7189 78.1917 25.6335C78.2375 25.5481 78.2883 25.4648 78.3443 25.3836C78.4003 25.3023 78.4611 25.2236 78.5268 25.1474C79.1655 24.399 80.0661 24.0778 81.1273 23.9246C81.761 23.9259 82.337 23.9825 82.8978 24.2396C83.7043 24.6094 84.251 25.2507 84.4726 25.9823C84.5017 26.0757 84.5251 26.1699 84.5428 26.2651C84.5604 26.3604 84.5722 26.4562 84.5781 26.5524C84.584 26.6487 84.584 26.7449 84.5782 26.8412C84.5723 26.9373 84.5606 27.033 84.543 27.1283C84.5254 27.2236 84.5021 27.3179 84.4729 27.4111C84.4438 27.5044 84.4091 27.5963 84.3687 27.6867C84.3283 27.7772 84.2825 27.8658 84.2313 27.9525C84.1801 28.0391 84.1237 28.1234 84.0622 28.2054C83.4892 28.96 82.6496 29.3057 81.6233 29.4906Z" fill="#94B99A"/>
<path d="M106.087 35.4875C106.183 34.4833 105.977 33.3251 106.365 32.3756C106.524 31.9855 106.756 31.8783 107.119 31.717C107.509 31.7266 107.83 31.7662 108.113 32.0623C108.789 32.7695 108.519 34.5661 108.508 35.4758C109.499 35.4718 111.089 35.1838 111.941 35.72C112.189 35.8766 112.347 36.1238 112.392 36.4116C112.443 36.7419 112.382 37.1016 112.146 37.3543C111.461 38.0877 109.447 37.7678 108.523 37.741C108.49 38.7182 108.662 39.7739 108.456 40.7313C108.342 41.2605 108.127 41.4475 107.679 41.7359C107.225 41.7323 106.879 41.7178 106.528 41.4011C105.83 40.7702 106.146 38.5823 106.156 37.6702C105.235 37.6625 103.4 37.9973 102.709 37.2898C102.482 37.0586 102.394 36.7596 102.391 36.4435C102.388 36.1623 102.475 35.8813 102.697 35.693C103.351 35.1393 105.229 35.4514 106.087 35.4875Z" fill="#94B99A"/>
<path d="M120.425 35.3836C120.446 34.6883 120.399 33.9697 120.452 33.2792C120.504 32.5947 120.666 32.193 121.228 31.7439C121.664 31.713 122.122 31.6557 122.488 31.9338C123.304 32.5543 122.987 34.5521 122.986 35.4376C123.959 35.4754 125.626 35.0979 126.449 35.6528C126.662 35.7962 126.797 36.0103 126.847 36.247C126.914 36.561 126.882 36.9249 126.653 37.1807C126.022 37.883 123.934 37.6493 123.005 37.6984C122.96 38.8627 123.379 40.6538 122.54 41.6021C122.404 41.6445 122.304 41.6795 122.16 41.7066C121.78 41.7776 121.34 41.7259 121.036 41.4834C120.19 40.8079 120.501 38.7044 120.522 37.722C119.696 37.7253 118.063 37.9152 117.374 37.4693C117.072 37.2742 116.9 37.0156 116.868 36.6736C116.836 36.3361 116.909 35.9621 117.174 35.7125C117.813 35.1115 119.58 35.3683 120.425 35.3836Z" fill="#94B99A"/>
<path d="M117.293 132.944C114.824 133.056 112.31 132.966 109.838 132.963L95.7125 132.944L87.2658 132.983C85.6615 132.992 83.9805 133.101 82.3906 132.887C81.0112 132.702 79.7073 132.144 78.5601 131.366C78.4337 131.28 78.3096 131.191 78.1877 131.099C78.0659 131.007 77.9464 130.911 77.8293 130.813C77.7122 130.715 77.5977 130.614 77.4858 130.51C77.3738 130.406 77.2645 130.299 77.1579 130.189C77.0514 130.08 76.9476 129.968 76.8467 129.853C76.7457 129.739 76.6478 129.621 76.5528 129.502C76.4577 129.382 76.3658 129.26 76.2769 129.136C76.188 129.012 76.1024 128.886 76.0199 128.757C75.9374 128.629 75.8581 128.498 75.7822 128.366C75.7063 128.234 75.6338 128.099 75.5646 127.963C75.4955 127.827 75.4298 127.69 75.3676 127.55C75.3054 127.411 75.2468 127.27 75.1917 127.128C75.1366 126.985 75.0851 126.842 75.0372 126.697C74.9894 126.552 74.9452 126.406 74.9047 126.259C74.8642 126.112 74.8275 125.964 74.7944 125.815C74.7614 125.666 74.7322 125.517 74.7067 125.366C74.6799 125.215 74.6568 125.062 74.6376 124.909C74.6184 124.757 74.603 124.603 74.5915 124.449C74.5799 124.296 74.5722 124.142 74.5683 123.988C74.5645 123.834 74.5645 123.68 74.5683 123.526C74.5721 123.372 74.5798 123.218 74.5913 123.064C74.6028 122.91 74.6182 122.757 74.6373 122.604C74.6565 122.451 74.6795 122.299 74.7063 122.147C74.7331 121.995 74.7637 121.844 74.798 121.694C74.8323 121.544 74.8704 121.394 74.9122 121.246C74.954 121.098 74.9995 120.951 75.0486 120.804C75.0978 120.658 75.1506 120.513 75.2069 120.37C75.2633 120.226 75.3233 120.084 75.3868 119.944C75.4503 119.803 75.5172 119.664 75.5876 119.527C75.6581 119.39 75.7319 119.254 75.8091 119.121C75.8862 118.987 75.9667 118.856 76.0505 118.726C76.1343 118.597 76.2212 118.469 76.3113 118.344C77.919 116.069 80.4172 114.682 83.1396 114.214C84.7976 114.035 86.555 114.143 88.2224 114.15L96.8491 114.163C101.406 114.14 105.962 114.143 110.519 114.173C112.745 114.171 115.403 113.941 117.587 114.277C119.175 114.521 120.87 115.149 122.137 116.148C122.26 116.245 122.38 116.345 122.498 116.448C122.616 116.551 122.731 116.657 122.844 116.765C122.957 116.874 123.067 116.985 123.174 117.099C123.281 117.213 123.386 117.33 123.487 117.449C123.589 117.568 123.687 117.69 123.783 117.814C123.878 117.938 123.97 118.064 124.06 118.192C124.149 118.321 124.235 118.452 124.318 118.584C124.4 118.717 124.48 118.852 124.556 118.989C124.632 119.125 124.705 119.263 124.774 119.404C124.843 119.544 124.909 119.686 124.971 119.829C125.033 119.973 125.092 120.117 125.147 120.264C125.202 120.41 125.253 120.558 125.301 120.706C125.349 120.855 125.393 121.005 125.433 121.156C125.474 121.307 125.51 121.459 125.543 121.612C125.576 121.765 125.605 121.918 125.63 122.072C125.655 122.227 125.677 122.381 125.694 122.537C125.974 124.924 125.437 127.478 123.909 129.382C122.204 131.507 119.985 132.647 117.293 132.944ZM84.0898 116.581C81.8873 116.749 80.1083 117.453 78.6497 119.154C77.3796 120.635 76.8268 122.56 77.0012 124.491C77.1607 126.257 77.9789 127.864 79.3502 129.003C79.4757 129.106 79.6045 129.205 79.7368 129.3C79.8691 129.395 80.0045 129.485 80.143 129.57C80.2815 129.656 80.4228 129.736 80.5669 129.812C80.711 129.888 80.8575 129.958 81.0065 130.024C81.1554 130.09 81.3065 130.15 81.4597 130.206C81.6128 130.261 81.7677 130.311 81.9243 130.356C82.081 130.4 82.2389 130.44 82.3983 130.474C82.5576 130.507 82.7179 130.536 82.8792 130.559C84.1344 130.734 85.5094 130.637 86.7788 130.636L93.643 130.627L116.55 130.651C118.574 130.594 120.219 129.939 121.61 128.454C121.691 128.367 121.768 128.278 121.844 128.187C121.92 128.096 121.993 128.003 122.064 127.909C122.135 127.814 122.204 127.718 122.27 127.62C122.337 127.522 122.4 127.423 122.461 127.322C122.523 127.221 122.581 127.118 122.638 127.014C122.694 126.91 122.747 126.804 122.798 126.698C122.849 126.591 122.897 126.483 122.943 126.374C122.988 126.265 123.031 126.155 123.071 126.044C123.111 125.933 123.148 125.821 123.182 125.708C123.217 125.595 123.248 125.481 123.277 125.366C123.305 125.251 123.331 125.136 123.354 125.02C123.377 124.904 123.397 124.788 123.414 124.671C123.431 124.554 123.445 124.437 123.456 124.32C123.467 124.202 123.475 124.084 123.481 123.966C123.486 123.848 123.488 123.73 123.488 123.612C123.487 123.494 123.484 123.376 123.477 123.258C123.373 121.38 122.369 119.507 120.954 118.281C120.183 117.613 119.16 116.975 118.146 116.797C116.269 116.467 114.311 116.566 112.412 116.564L105.503 116.532C100.69 116.518 95.8777 116.529 91.0652 116.564C88.7514 116.574 86.3984 116.452 84.0898 116.581Z" fill="#94B99A"/>
<path d="M115.861 127.423C114.972 127.515 114.1 127.403 113.311 126.969C113.253 126.937 113.197 126.905 113.141 126.87C113.085 126.836 113.03 126.801 112.976 126.764C112.922 126.727 112.869 126.689 112.816 126.649C112.764 126.61 112.713 126.569 112.663 126.527C112.613 126.485 112.564 126.441 112.516 126.397C112.468 126.352 112.422 126.306 112.376 126.26C112.331 126.213 112.286 126.165 112.243 126.116C112.2 126.067 112.159 126.017 112.118 125.965C112.078 125.914 112.038 125.862 112 125.809C111.963 125.756 111.926 125.702 111.891 125.647C111.856 125.592 111.822 125.537 111.79 125.48C111.758 125.423 111.727 125.366 111.698 125.308C111.668 125.25 111.641 125.191 111.614 125.131C111.588 125.072 111.563 125.012 111.54 124.951C111.517 124.89 111.495 124.829 111.475 124.767C111.455 124.706 111.436 124.643 111.419 124.581C111.15 123.556 111.328 122.397 111.875 121.489C112.541 120.383 113.533 119.959 114.741 119.673C115.467 119.622 116.163 119.727 116.826 120.032C116.887 120.06 116.947 120.09 117.006 120.121C117.066 120.152 117.124 120.185 117.182 120.219C117.239 120.253 117.296 120.288 117.352 120.325C117.407 120.362 117.462 120.401 117.516 120.44C117.569 120.48 117.622 120.521 117.674 120.564C117.725 120.607 117.776 120.65 117.825 120.695C117.874 120.74 117.922 120.787 117.969 120.834C118.016 120.882 118.061 120.931 118.105 120.981C118.15 121.03 118.193 121.081 118.234 121.134C118.276 121.186 118.316 121.239 118.355 121.293C118.393 121.347 118.431 121.402 118.467 121.458C118.502 121.514 118.537 121.571 118.57 121.629C118.602 121.687 118.634 121.746 118.663 121.805C118.693 121.865 118.722 121.925 118.748 121.986C118.775 122.047 118.8 122.108 118.823 122.17C118.846 122.232 118.868 122.295 118.888 122.358C119.216 123.375 119.146 124.509 118.616 125.448C118.008 126.526 117.024 127.088 115.861 127.423ZM114.821 121.938C114.284 122.228 113.868 122.495 113.673 123.098C113.532 123.537 113.551 124.021 113.77 124.432C113.977 124.819 114.365 125.112 114.793 125.221C115.085 125.296 115.413 125.247 115.706 125.196C116.239 124.927 116.672 124.583 116.852 123.996C116.979 123.582 116.921 123.105 116.695 122.735C116.47 122.366 116.073 122.049 115.642 121.954C115.382 121.897 115.086 121.922 114.821 121.938Z" fill="#94B99A"/>
<path d="M87.1807 128.455C86.3127 128.644 85.4637 128.607 84.6441 128.231C84.5264 128.178 84.4115 128.119 84.2996 128.054C84.1876 127.989 84.0791 127.919 83.974 127.843C83.869 127.767 83.7679 127.686 83.6708 127.6C83.5738 127.513 83.4811 127.422 83.393 127.327C83.3048 127.231 83.2215 127.131 83.1432 127.027C83.0648 126.923 82.9917 126.816 82.924 126.704C82.8562 126.593 82.794 126.478 82.7375 126.36C82.681 126.243 82.6304 126.122 82.5857 125.999C82.5424 125.875 82.5051 125.748 82.4739 125.62C82.4427 125.492 82.4177 125.362 82.3988 125.231C82.38 125.101 82.3674 124.969 82.3611 124.837C82.3549 124.705 82.3549 124.573 82.3612 124.441C82.3675 124.31 82.3801 124.178 82.399 124.048C82.4179 123.917 82.443 123.787 82.4742 123.659C82.5055 123.531 82.5428 123.404 82.5861 123.28C82.6294 123.155 82.6786 123.033 82.7336 122.913C83.266 121.78 84.1833 121.23 85.2987 120.829C86.2453 120.727 87.1453 120.729 88.0203 121.16C88.9559 121.62 89.6298 122.49 89.9466 123.488C90.257 124.467 90.2211 125.582 89.7485 126.502C89.2064 127.556 88.2605 128.113 87.1807 128.455ZM85.7874 123.181C85.2997 123.532 84.9255 123.874 84.8109 124.497C84.7361 124.905 84.8038 125.287 85.0495 125.621C85.2725 125.925 85.6648 126.192 86.042 126.22C86.2762 126.238 86.5166 126.223 86.7511 126.214C87.258 125.878 87.5828 125.543 87.6918 124.916C87.7629 124.507 87.6837 124.085 87.4388 123.749C87.221 123.449 86.8452 123.197 86.4763 123.164C86.2509 123.143 86.0128 123.161 85.7874 123.181Z" fill="#94B99A"/>
<path d="M104.1 125.101C102.483 125.085 94.9856 125.524 94.0692 124.847C93.7824 124.635 93.583 124.231 93.5148 123.8C93.45 123.393 93.493 122.925 93.6928 122.594C94.2201 121.721 95.5618 121.958 96.2918 121.964L102.481 121.938C103.485 121.934 104.563 121.812 105.559 121.96C105.85 122.003 106.124 122.077 106.368 122.313C106.626 122.562 106.8 122.921 106.836 123.358C106.874 123.808 106.755 124.331 106.52 124.654C105.984 125.391 104.805 125.127 104.1 125.101Z" fill="#94B99A"/>
<path d="M79.0099 145.264C78.6571 145.174 78.3301 145.063 78.0933 144.636C77.9026 144.292 77.8777 143.823 77.925 143.403C78.0367 142.409 78.5121 141.383 79.0699 140.811C79.097 140.812 79.124 140.813 79.1511 140.815C79.4504 140.835 79.7441 140.917 79.9343 141.293C80.1638 141.747 80.1617 142.271 80.0804 142.802C79.9379 143.734 79.5612 144.732 79.0099 145.264Z" fill="#94B99A"/>
<path d="M102.725 181.947C101.853 182.045 100.911 181.986 100.033 181.938C99.8118 181.927 99.591 181.913 99.3704 181.897C99.1498 181.881 98.9294 181.862 98.7094 181.84C98.4892 181.819 98.2693 181.794 98.0498 181.767C97.8304 181.74 97.6112 181.711 97.3925 181.679C97.1737 181.646 96.9555 181.612 96.7377 181.574C96.5198 181.537 96.3024 181.496 96.0856 181.454C95.8688 181.411 95.6526 181.366 95.4369 181.318C95.2213 181.27 95.0063 181.219 94.7919 181.166C94.5776 181.113 94.364 181.057 94.151 180.999C93.9382 180.94 93.7261 180.88 93.5147 180.816C93.3033 180.753 93.0929 180.687 92.8834 180.618C92.6737 180.549 92.4649 180.478 92.257 180.405C92.0492 180.331 91.8424 180.255 91.6365 180.177C91.4306 180.098 91.2258 180.017 91.0221 179.933C90.8184 179.85 90.6157 179.764 90.4142 179.676C90.2126 179.587 90.0122 179.496 89.813 179.403C89.6138 179.31 89.4158 179.214 89.219 179.116C89.0222 179.018 88.8267 178.918 88.6325 178.815C88.4384 178.712 88.2455 178.607 88.0541 178.5C87.8625 178.392 87.6725 178.283 87.4839 178.17C87.2953 178.058 87.1081 177.944 86.9223 177.828C86.7366 177.711 86.5524 177.592 86.3698 177.471C86.1871 177.35 86.0061 177.227 85.8266 177.102C85.6471 176.976 85.4692 176.849 85.293 176.719C85.1168 176.59 84.9423 176.458 84.7695 176.324C84.5967 176.19 84.4256 176.054 84.2563 175.916C84.087 175.778 83.9195 175.638 83.7538 175.496C83.5881 175.354 83.4242 175.21 83.2622 175.064C83.1002 174.918 82.9401 174.77 82.7819 174.62C82.6237 174.47 82.4674 174.318 82.3131 174.165C82.1588 174.011 82.0065 173.856 81.8563 173.698C81.706 173.541 81.5577 173.382 81.4115 173.221C81.2654 173.065 81.1214 172.907 80.9793 172.748C80.8373 172.589 80.6973 172.427 80.5594 172.265C80.4214 172.102 80.2856 171.938 80.1518 171.772C80.0181 171.606 79.8865 171.438 79.757 171.269C79.6275 171.1 79.5003 170.929 79.3751 170.757C79.25 170.585 79.1271 170.411 79.0064 170.236C78.8857 170.061 78.7673 169.884 78.6511 169.706C78.5349 169.529 78.421 169.349 78.3094 169.168C78.1978 168.988 78.0885 168.806 77.9816 168.622C77.8746 168.439 77.77 168.255 77.6677 168.069C77.5655 167.883 77.4656 167.696 77.3681 167.508C77.2706 167.32 77.1755 167.13 77.0829 166.94C76.9902 166.749 76.9 166.558 76.8123 166.365C76.7245 166.172 76.6392 165.979 76.5563 165.784C76.4735 165.589 76.3932 165.394 76.3153 165.197C76.2375 165 76.1622 164.803 76.0894 164.605C76.0166 164.406 75.9463 164.207 75.8786 164.007C75.8109 163.807 75.7457 163.606 75.6831 163.404C75.6205 163.203 75.5605 163 75.5031 162.797C75.4457 162.594 75.3908 162.39 75.3386 162.186C75.2864 161.981 75.2367 161.776 75.1897 161.571C75.1427 161.365 75.0984 161.159 75.0566 160.952C75.0149 160.746 74.9758 160.539 74.9393 160.331C74.9028 160.123 74.869 159.915 74.8379 159.707C74.8067 159.499 74.7782 159.29 74.7524 159.081C74.7266 158.872 74.7034 158.662 74.6829 158.453C74.6624 158.243 74.6446 158.033 74.6295 157.823C74.6143 157.613 74.6019 157.403 74.5921 157.192C74.5823 156.982 74.5752 156.771 74.5709 156.561C74.5664 156.35 74.5647 156.14 74.5657 155.929C74.5667 155.719 74.5703 155.508 74.5766 155.298C74.583 155.087 74.592 154.877 74.6037 154.667C74.7109 153.015 74.7409 149.718 76.0429 148.604C76.4976 148.627 76.9133 148.645 77.2535 148.981C77.4577 149.182 77.5698 149.488 77.6089 149.763C77.7039 150.431 77.1349 152.555 77.0699 153.436C76.5705 160.208 78.4718 166.473 83.1201 171.642C86.6622 175.581 92.0575 178.518 97.3808 179.336C98.9755 179.581 100.525 179.507 102.108 179.655C102.563 179.698 103.067 179.892 103.336 180.268C103.355 180.295 103.372 180.322 103.388 180.35C103.404 180.378 103.418 180.406 103.431 180.436C103.444 180.465 103.455 180.495 103.464 180.525C103.474 180.556 103.482 180.587 103.488 180.618C103.494 180.65 103.499 180.681 103.501 180.713C103.504 180.745 103.505 180.776 103.504 180.808C103.504 180.84 103.501 180.872 103.497 180.904C103.493 180.935 103.487 180.966 103.48 180.997C103.381 181.43 103.069 181.688 102.725 181.947Z" fill="#94B99A"/>
<path d="M322.098 71.0218C321.897 70.7454 321.692 70.4714 321.483 70.2C321.275 69.9285 321.062 69.6598 320.846 69.3939C320.629 69.1279 320.408 68.8646 320.184 68.6041C319.96 68.3434 319.732 68.0857 319.501 67.831C319.269 67.5761 319.033 67.3242 318.794 67.0753C318.555 66.8264 318.313 66.5805 318.067 66.3375C317.82 66.0947 317.571 65.855 317.317 65.6183C317.064 65.3817 316.808 65.1482 316.548 64.918C316.288 64.6878 316.025 64.4609 315.758 64.2373C315.491 64.0137 315.222 63.7935 314.949 63.5765C314.676 63.3597 314.4 63.1463 314.12 62.9363C313.841 62.7263 313.559 62.5199 313.274 62.317C312.989 62.1141 312.701 61.9148 312.41 61.7191C312.119 61.5233 311.825 61.3313 311.528 61.143C311.232 60.9547 310.933 60.7701 310.631 60.5892C310.329 60.4084 310.024 60.2313 309.717 60.0581C309.41 59.8849 309.101 59.7154 308.789 59.5498C308.477 59.3844 308.162 59.2228 307.846 59.0652C307.529 58.9075 307.21 58.7539 306.889 58.6043C306.568 58.4546 306.244 58.309 305.919 58.1673C305.593 58.0257 305.266 57.8883 304.937 57.755C304.607 57.6216 304.276 57.4924 303.943 57.3672C303.61 57.2421 303.275 57.1212 302.938 57.0045C302.601 56.8877 302.263 56.7753 301.923 56.6671C301.583 56.5588 301.242 56.4548 300.899 56.3551C300.556 56.2554 300.211 56.16 299.865 56.0689C299.52 55.9778 299.173 55.891 298.824 55.8086C298.476 55.7263 298.127 55.6483 297.776 55.5746C297.426 55.5009 297.074 55.4316 296.722 55.3669C296.369 55.3019 296.015 55.2415 295.661 55.1855C295.307 55.1294 294.952 55.0778 294.596 55.0308C294.24 54.9836 293.884 54.9408 293.527 54.9026C291.225 54.6733 288.899 54.752 286.589 54.7699L278.055 54.8149L254.328 54.8539C253.094 54.8593 249.345 55.1217 248.51 54.4795C248.164 54.2127 248.013 53.8979 248.001 53.4876C247.988 53.101 248.176 52.8056 248.463 52.5396C248.787 52.24 249.222 52.1471 249.661 52.1135C251.03 52.0092 252.452 52.0802 253.825 52.084L261.549 52.0936L286.868 52.0499C288.986 52.0025 291.101 51.9384 293.214 52.1282C301.574 52.8797 309.886 56.2229 316.348 61.175C324.964 67.7781 330.825 77.6688 331.835 88.0467C331.987 89.6039 332.303 96.8417 331.245 97.7616C330.956 98.0147 330.559 98.0346 330.19 97.966C330.124 97.9538 330.059 97.9381 329.997 97.9188C329.934 97.8998 329.873 97.8774 329.812 97.8515C329.751 97.8257 329.692 97.7968 329.635 97.7648C329.578 97.7329 329.524 97.6979 329.472 97.66C329.418 97.6221 329.368 97.5815 329.322 97.5383C329.274 97.495 329.228 97.4494 329.185 97.4014C329.144 97.3533 329.106 97.3033 329.07 97.2513C329.034 97.1992 329.002 97.1452 328.973 97.0896C328.827 96.8027 328.828 96.3687 328.829 96.0609C328.836 94.9949 329.012 93.9244 329.067 92.8585C329.129 91.6243 329.027 90.3536 328.932 89.1217C328.397 82.2185 326.014 76.8255 322.098 71.0218Z" fill="#94B99A"/>
<path d="M287.686 96.8879C287.454 96.9166 287.221 96.9398 286.987 96.9574C286.754 96.9751 286.52 96.9873 286.286 96.9941C286.052 97.0007 285.818 97.0018 285.584 96.9973C285.35 96.9928 285.116 96.9829 284.882 96.9673C284.648 96.9518 284.415 96.9308 284.183 96.9042C283.95 96.8776 283.718 96.8455 283.487 96.8079C283.256 96.7704 283.026 96.7274 282.797 96.6789C282.568 96.6305 282.34 96.5767 282.114 96.5174C281.888 96.4583 281.663 96.3938 281.439 96.3238C281.216 96.254 280.995 96.179 280.775 96.0987C280.555 96.0183 280.338 95.9328 280.122 95.8422C279.907 95.7514 279.693 95.6557 279.482 95.555C279.272 95.4543 279.063 95.3486 278.858 95.238C278.652 95.1274 278.449 95.012 278.249 94.8919C278.048 94.7715 277.851 94.6466 277.657 94.517C277.463 94.3876 277.272 94.2535 277.084 94.1149C276.884 93.9676 276.687 93.8156 276.494 93.6588C276.302 93.5019 276.113 93.3404 275.928 93.1742C275.744 93.0081 275.563 92.8375 275.387 92.6624C275.211 92.4874 275.04 92.3082 274.872 92.1248C274.705 91.9413 274.543 91.7538 274.385 91.5625C274.228 91.371 274.075 91.1758 273.927 90.9769C273.779 90.778 273.636 90.5755 273.498 90.3695C273.361 90.1635 273.228 89.9543 273.101 89.7418C272.973 89.5294 272.851 89.3139 272.735 89.0953C272.618 88.8769 272.508 88.6557 272.402 88.4317C272.297 88.2079 272.197 87.9815 272.103 87.7525C272.009 87.5237 271.921 87.2928 271.838 87.0597C271.756 86.8264 271.679 86.5914 271.609 86.3545C271.538 86.1174 271.473 85.8789 271.414 85.6389C271.356 85.3987 271.303 85.1573 271.256 84.9146C271.21 84.6718 271.169 84.4281 271.135 84.1834C271.101 83.9358 271.074 83.6875 271.053 83.4384C271.032 83.1893 271.017 82.9399 271.009 82.6903C271 82.4406 270.998 82.1907 271.002 81.9408C271.006 81.6911 271.016 81.4415 271.032 81.1921C271.048 80.9426 271.071 80.6938 271.099 80.4455C271.128 80.1974 271.163 79.95 271.204 79.7034C271.245 79.4568 271.292 79.2113 271.345 78.967C271.398 78.7229 271.457 78.48 271.523 78.2385C271.588 77.9972 271.659 77.7576 271.736 77.5197C271.813 77.2819 271.896 77.046 271.985 76.8121C272.074 76.5782 272.169 76.3466 272.269 76.1175C272.369 75.8882 272.475 75.6615 272.587 75.4373C272.699 75.2133 272.816 74.9921 272.938 74.7737C273.061 74.5555 273.189 74.3403 273.323 74.1282C273.456 73.9161 273.595 73.7073 273.738 73.502C273.882 73.2966 274.031 73.0949 274.185 72.8968C276.776 69.5231 280.497 67.674 284.687 67.0998C284.72 67.0948 284.752 67.0884 284.784 67.0847C288.436 66.6776 292.032 67.7564 294.952 69.9337C298.274 72.41 300.343 75.9729 300.881 80.0612C300.912 80.3078 300.937 80.5551 300.956 80.8031C300.975 81.0508 300.988 81.2989 300.994 81.5474C301.001 81.796 301.002 82.0445 300.996 82.2929C300.991 82.5414 300.98 82.7896 300.962 83.0375C300.945 83.2854 300.921 83.5329 300.892 83.7798C300.863 84.0266 300.827 84.2726 300.786 84.5177C300.744 84.7628 300.697 85.0069 300.644 85.2499C300.591 85.4927 300.531 85.7341 300.466 85.9742C300.401 86.2143 300.331 86.4527 300.254 86.6893C300.177 86.926 300.095 87.1607 300.007 87.3935C299.919 87.6262 299.825 87.8567 299.726 88.085C299.627 88.3133 299.522 88.5392 299.412 88.7625C299.302 88.9859 299.186 89.2064 299.065 89.4241C298.944 89.6419 298.818 89.8566 298.687 90.0684C298.555 90.2802 298.419 90.4888 298.277 90.6941C298.136 90.8993 297.989 91.101 297.838 91.2993C295.44 94.3843 291.563 96.411 287.686 96.8879ZM284.998 69.6989C281.464 70.1984 278.241 71.8683 276.081 74.7376C274.108 77.3583 273.362 80.836 273.865 84.0495C273.897 84.2552 273.934 84.4599 273.976 84.6638C274.019 84.8677 274.066 85.0704 274.119 85.2719C274.171 85.4735 274.229 85.6736 274.292 85.8721C274.355 86.0707 274.422 86.2677 274.495 86.4629C274.568 86.6582 274.646 86.8516 274.728 87.0431C274.811 87.2344 274.898 87.4236 274.99 87.6106C275.083 87.7977 275.179 87.9823 275.281 88.1645C275.383 88.3468 275.489 88.5264 275.599 88.7033C275.71 88.8803 275.825 89.0544 275.945 89.2255C276.064 89.3967 276.188 89.5648 276.316 89.7299C276.444 89.895 276.576 90.0568 276.712 90.2152C276.849 90.3737 276.989 90.5287 277.133 90.6803C277.277 90.8318 277.425 90.9796 277.577 91.1237C277.728 91.2678 277.883 91.4081 278.042 91.5447C278.201 91.681 278.363 91.8134 278.528 91.9418C278.694 92.0701 278.862 92.1942 279.034 92.3142C281.3 93.923 284.3 94.6257 287.067 94.3838C290.555 93.9376 293.498 92.3504 295.648 89.5608C297.745 86.8401 298.607 83.609 298.142 80.2142C298.114 80.0104 298.08 79.8073 298.041 79.6051C298.002 79.4029 297.958 79.2018 297.909 79.0017C297.86 78.8016 297.806 78.6029 297.748 78.4054C297.689 78.208 297.625 78.0121 297.556 77.8179C297.488 77.6236 297.414 77.431 297.336 77.2402C297.258 77.0495 297.175 76.8608 297.087 76.6741C297 76.4876 296.907 76.3032 296.811 76.121C296.714 75.9389 296.612 75.7592 296.507 75.5819C296.401 75.4048 296.291 75.2303 296.176 75.0585C296.062 74.8868 295.943 74.7179 295.82 74.5519C295.697 74.386 295.57 74.2231 295.439 74.0633C295.308 73.9035 295.173 73.747 295.034 73.5939C294.895 73.4407 294.753 73.291 294.606 73.1449C294.46 72.9987 294.31 72.8561 294.157 72.7173C294.003 72.5785 293.846 72.4435 293.686 72.3125C293.526 72.1812 293.363 72.054 293.196 71.9309C290.948 70.2788 287.799 69.328 284.998 69.6989Z" fill="#94B99A"/>
<path d="M282.066 84.9631C281.897 84.9801 281.727 84.9968 281.556 84.9998C281.129 85.007 280.64 84.825 280.363 84.5082C280.071 84.1746 279.96 83.8061 280.012 83.3764C280.09 82.7424 280.468 82.3971 280.97 82.0102C281.057 82.007 281.145 82.0022 281.232 82.0005C281.739 81.99 282.288 82.1478 282.623 82.5253C282.898 82.8351 283.029 83.1819 282.995 83.583C282.939 84.2277 282.575 84.5717 282.066 84.9631Z" fill="#94B99A"/>
<path d="M291.202 85C291.026 84.9525 290.846 84.9082 290.675 84.8333C290.422 84.7229 290.208 84.4206 290.094 84.076C289.988 83.7563 289.967 83.4147 290.053 83.0767C290.203 82.4881 290.483 82.2444 290.858 82C291.218 82.0299 291.568 82.1066 291.812 82.5396C291.984 82.8429 292.028 83.2167 291.984 83.6002C291.906 84.2764 291.566 84.647 291.202 85Z" fill="#94B99A"/>
<path d="M308.331 132.903L273.812 132.888C268.964 132.887 264.09 133.01 259.245 132.899C258.836 132.89 258.151 132.922 257.798 132.718C257.323 132.444 257.153 131.625 257.101 131.136C256.87 128.982 257.109 125.531 257.103 123.209L257.076 114.072C257.07 112.142 256.885 110.003 257.251 108.11C257.541 106.604 258.262 105.111 259.253 103.939C260.768 102.149 262.817 101.282 265.123 101.088C268.327 100.965 271.559 101.038 274.767 101.038L291.979 101.055L302.643 101.054C304.642 101.048 306.744 100.909 308.733 101.102C310.012 101.226 311.2 101.586 312.267 102.317C314.037 103.531 315.348 105.611 315.703 107.718C315.981 109.37 315.876 111.15 315.889 112.822C315.913 116.056 315.912 119.291 315.887 122.526C315.879 125.25 316.139 128.387 315.897 131.058C315.843 131.651 315.739 132.19 315.392 132.681C314.296 133.22 309.838 132.916 308.331 132.903ZM266.334 103.644C264.431 103.761 262.901 104.06 261.549 105.542C260.889 106.265 260.265 107.22 260.041 108.174C259.519 110.388 259.775 113.041 259.767 115.314C259.749 120.28 259.839 125.256 259.748 130.22L268.992 130.221C269.011 128.798 268.8 121.021 269.462 120.411C269.804 120.096 270.081 120.042 270.528 120.005C272.635 119.832 274.855 119.951 276.972 119.947L290.211 119.994C292.724 120.012 295.238 120.014 297.752 120C299.143 119.997 300.595 119.916 301.979 120.049C302.28 120.077 302.659 120.081 302.863 120.337C303.464 121.088 303.242 122.563 303.24 123.475L303.264 130.223L313.189 130.251L313.159 115.007C313.152 112.74 313.427 110.151 313.022 107.928C312.83 106.871 312.485 106.073 311.706 105.313C310.959 104.585 310.13 104.087 309.096 103.922C307.173 103.615 305.136 103.726 303.19 103.718L294.322 103.687C285.256 103.639 276.155 103.335 267.094 103.605C266.84 103.614 266.587 103.627 266.334 103.644ZM271.745 122.573C271.559 125.085 271.594 127.657 271.627 130.176C274.312 130.211 277.009 130.24 279.694 130.186C279.739 127.667 279.757 125.115 279.598 122.6C276.981 122.567 274.363 122.559 271.745 122.573ZM283.926 122.623L282.325 122.66C282.289 125.172 282.276 127.684 282.286 130.196L289.007 130.223L290.251 130.212C290.279 127.695 290.34 125.164 290.251 122.648C288.143 122.62 286.035 122.612 283.926 122.623ZM297.507 122.625C295.945 122.642 294.379 122.635 292.817 122.68C292.8 125.182 292.746 127.72 292.866 130.219L295.572 130.244C297.245 130.238 298.92 130.249 300.592 130.226C300.609 127.712 300.604 125.198 300.578 122.685C299.552 122.636 298.534 122.609 297.507 122.625Z" fill="#94B99A"/>
<path d="M285.427 108.727C285.997 108.417 286.502 108.174 287.131 108.006C288.074 107.966 288.921 108.12 289.777 108.545C290.712 109.009 291.4 109.831 291.742 110.832C292.189 112.143 292.035 113.487 291.438 114.721C290.567 116.52 288.342 119.234 286.426 119.846C285.485 120.147 284.746 119.986 283.884 119.538C282.123 118.339 280.072 116.329 279.315 114.261C278.869 113.044 278.888 111.735 279.427 110.551C279.895 109.522 280.716 108.741 281.768 108.369C283.079 107.905 284.215 108.153 285.427 108.727ZM287.559 110.583C286.731 111.066 286.172 112.409 285.14 112.182C284.071 111.948 284.013 109.997 282.438 110.849C281.976 111.099 281.621 111.577 281.501 112.097C281.338 112.804 281.715 113.528 282.094 114.099C282.522 114.742 283.105 115.327 283.637 115.883C284.252 116.461 284.879 116.976 285.598 117.416C287.136 116.373 289.055 114.619 289.435 112.686C289.521 112.252 289.546 111.779 289.286 111.399C288.985 110.96 288.302 110.638 287.792 110.597C287.714 110.591 287.636 110.588 287.559 110.583Z" fill="#94B99A"/>
</svg>
